<?xml version="1.0"?>
<svg xmlns="http://www.w3.org/2000/svg" xmlns:lc="http://www.librecad.org" xmlns:xlink="http://www.w3.org/1999/xlink" width="124.5257mm" height="62.4254mm" viewBox="0 0 124.5257 62.4254">
    <g lc:layername="0" lc:is_locked="false" lc:is_construction="false" fill="none" stroke="black" stroke-width="1"/>
    <g lc:layername="BLACK" lc:is_locked="false" lc:is_construction="false" fill="none" stroke="black" stroke-width="1"/>
    <g lc:layername="BLUE1" lc:is_locked="false" lc:is_construction="false" fill="none" stroke="black" stroke-width="1"/>
    <g lc:layername="BLUE2" lc:is_locked="false" lc:is_construction="false" fill="none" stroke="black" stroke-width="1"/>
    <g lc:layername="BLUE3" lc:is_locked="false" lc:is_construction="false" fill="none" stroke="black" stroke-width="1"/>
    <g lc:layername="BLUE4" lc:is_locked="false" lc:is_construction="false" fill="none" stroke="black" stroke-width="1"/>
    <g lc:layername="BROWN1" lc:is_locked="false" lc:is_construction="false" fill="none" stroke="black" stroke-width="1"/>
    <g lc:layername="BROWN2" lc:is_locked="false" lc:is_construction="false" fill="none" stroke="black" stroke-width="1"/>
    <g lc:layername="Black" lc:is_locked="false" lc:is_construction="false" fill="none" stroke="black" stroke-width="1">
        <line x1="124.5137" y1="0.0002" x2="124.5147" y2="0.0002"/>
        <line x1="124.5147" y1="0.0002" x2="124.5157" y2="0.0006"/>
        <line x1="124.5157" y1="0.0006" x2="124.5167" y2="0.0008"/>
        <line x1="124.5167" y1="0.0008" x2="124.5177" y2="0.0013"/>
        <line x1="124.5177" y1="0.0013" x2="124.5187" y2="0.0017"/>
        <line x1="124.5187" y1="0.0017" x2="124.5197" y2="0.0024"/>
        <line x1="124.5197" y1="0.0024" x2="124.5207" y2="0.003"/>
        <line x1="124.5207" y1="0.003" x2="124.5217" y2="0.0038"/>
        <line x1="124.5217" y1="0.0038" x2="124.5227" y2="0.0045"/>
        <line x1="124.5227" y1="0.0045" x2="124.5227" y2="0.0055"/>
        <line x1="124.5227" y1="0.0055" x2="124.5237" y2="0.0064"/>
        <line x1="124.5237" y1="0.0064" x2="124.5237" y2="0.0074"/>
        <line x1="124.5237" y1="0.0074" x2="124.5247" y2="0.0084"/>
        <line x1="124.5247" y1="0.0084" x2="124.5247" y2="0.0095"/>
        <line x1="124.5247" y1="0.0095" x2="124.5257" y2="0.0105"/>
        <line x1="124.5257" y1="0.0105" x2="124.5257" y2="0.0116"/>
        <line x1="124.5257" y1="0.0116" x2="124.5257" y2="0.0127"/>
        <line x1="124.5257" y1="0.0127" x2="124.5257" y2="62.4127"/>
        <line x1="124.5257" y1="62.4127" x2="124.5257" y2="62.413795"/>
        <line x1="124.5257" y1="62.413795" x2="124.5257" y2="62.414905"/>
        <line x1="124.5257" y1="62.414905" x2="124.5247" y2="62.415949"/>
        <line x1="124.5247" y1="62.415949" x2="124.5247" y2="62.417044"/>
        <line x1="124.5247" y1="62.417044" x2="124.5237" y2="62.418005"/>
        <line x1="124.5237" y1="62.418005" x2="124.5237" y2="62.41905"/>
        <line x1="124.5237" y1="62.41905" x2="124.5227" y2="62.419902"/>
        <line x1="124.5227" y1="62.419902" x2="124.5227" y2="62.420863"/>
        <line x1="124.5227" y1="62.420863" x2="124.5217" y2="62.421578"/>
        <line x1="124.5217" y1="62.421578" x2="124.5207" y2="62.422429"/>
        <line x1="124.5207" y1="62.422429" x2="124.5197" y2="62.422984"/>
        <line x1="124.5197" y1="62.422984" x2="124.5187" y2="62.423699"/>
        <line x1="124.5187" y1="62.423699" x2="124.5177" y2="62.424079"/>
        <line x1="124.5177" y1="62.424079" x2="124.5167" y2="62.424634"/>
        <line x1="124.5167" y1="62.424634" x2="124.5157" y2="62.424827"/>
        <line x1="124.5157" y1="62.424827" x2="124.5147" y2="62.425207"/>
        <line x1="124.5147" y1="62.425207" x2="124.5137" y2="62.425207"/>
        <line x1="124.5137" y1="62.425207" x2="124.5127" y2="62.4254"/>
        <line x1="124.5127" y1="62.4254" x2="0.0127" y2="62.4254"/>
        <line x1="0.0127" y1="62.4254" x2="0.011605" y2="62.425207"/>
        <line x1="0.011605" y1="62.425207" x2="0.010495" y2="62.425207"/>
        <line x1="0.010495" y1="62.425207" x2="0.009451" y2="62.424827"/>
        <line x1="0.009451" y1="62.424827" x2="0.008356" y2="62.424634"/>
        <line x1="0.008356" y1="62.424634" x2="0.007395" y2="62.424079"/>
        <line x1="0.007395" y1="62.424079" x2="0.00635" y2="62.423699"/>
        <line x1="0.00635" y1="62.423699" x2="0.005498" y2="62.422984"/>
        <line x1="0.005498" y1="62.422984" x2="0.004537" y2="62.422429"/>
        <line x1="0.004537" y1="62.422429" x2="0.003822" y2="62.421578"/>
        <line x1="0.003822" y1="62.421578" x2="0.002971" y2="62.420863"/>
        <line x1="0.002971" y1="62.420863" x2="0.002416" y2="62.419902"/>
        <line x1="0.002416" y1="62.419902" x2="0.001701" y2="62.41905"/>
        <line x1="0.001701" y1="62.41905" x2="0.001321" y2="62.418005"/>
        <line x1="0.001321" y1="62.418005" x2="0.000766" y2="62.417044"/>
        <line x1="0.000766" y1="62.417044" x2="0.000573" y2="62.415949"/>
        <line x1="0.000573" y1="62.415949" x2="0.000193" y2="62.414905"/>
        <line x1="0.000193" y1="62.414905" x2="0.000193" y2="62.413795"/>
        <line x1="0.000193" y1="62.413795" x2="0" y2="62.4127"/>
        <line x1="0" y1="62.4127" x2="0" y2="0.0127"/>
        <line x1="0" y1="0.0127" x2="0.000193" y2="0.0116"/>
        <line x1="0.000193" y1="0.0116" x2="0.000193" y2="0.0105"/>
        <line x1="0.000193" y1="0.0105" x2="0.000573" y2="0.0095"/>
        <line x1="0.000573" y1="0.0095" x2="0.000766" y2="0.0084"/>
        <line x1="0.000766" y1="0.0084" x2="0.001321" y2="0.0074"/>
        <line x1="0.001321" y1="0.0074" x2="0.001701" y2="0.0064"/>
        <line x1="0.001701" y1="0.0064" x2="0.002416" y2="0.0055"/>
        <line x1="0.002416" y1="0.0055" x2="0.002971" y2="0.0045"/>
        <line x1="0.002971" y1="0.0045" x2="0.003822" y2="0.0038"/>
        <line x1="0.003822" y1="0.0038" x2="0.004537" y2="0.003"/>
        <line x1="0.004537" y1="0.003" x2="0.005498" y2="0.0024"/>
        <line x1="0.005498" y1="0.0024" x2="0.00635" y2="0.0017"/>
        <line x1="0.00635" y1="0.0017" x2="0.007395" y2="0.0013"/>
        <line x1="0.007395" y1="0.0013" x2="0.008356" y2="0.0008"/>
        <line x1="0.008356" y1="0.0008" x2="0.009451" y2="0.0006"/>
        <line x1="0.009451" y1="0.0006" x2="0.010495" y2="0.0002"/>
        <line x1="0.010495" y1="0.0002" x2="0.011605" y2="0.0002"/>
        <line x1="0.011605" y1="0.0002" x2="0.0127" y2="0"/>
        <line x1="0.0127" y1="0" x2="124.5127" y2="0"/>
        <line x1="124.5127" y1="0" x2="124.5137" y2="0.0002"/>
        <line x1="7.56149" y1="56.43505" x2="7.15905" y2="56.77274"/>
        <line x1="7.15905" y1="56.77274" x2="6.66538" y2="56.95242"/>
        <line x1="6.66538" y1="56.95242" x2="6.14002" y2="56.95242"/>
        <line x1="6.14002" y1="56.95242" x2="5.64635" y2="56.77274"/>
        <line x1="5.64635" y1="56.77274" x2="5.24391" y2="56.43505"/>
        <line x1="5.24391" y1="56.43505" x2="4.98123" y2="55.98007"/>
        <line x1="4.98123" y1="55.98007" x2="4.89" y2="55.4627"/>
        <line x1="4.89" y1="55.4627" x2="4.98123" y2="54.94533"/>
        <line x1="4.98123" y1="54.94533" x2="5.24391" y2="54.49036"/>
        <line x1="5.24391" y1="54.49036" x2="5.64635" y2="54.15266"/>
        <line x1="5.64635" y1="54.15266" x2="6.14002" y2="53.97298"/>
        <line x1="6.14002" y1="53.97298" x2="6.66538" y2="53.97298"/>
        <line x1="6.66538" y1="53.97298" x2="7.15905" y2="54.15266"/>
        <line x1="7.15905" y1="54.15266" x2="7.56149" y2="54.49036"/>
        <line x1="7.56149" y1="54.49036" x2="7.82417" y2="54.94533"/>
        <line x1="7.82417" y1="54.94533" x2="7.9154" y2="55.4627"/>
        <line x1="7.9154" y1="55.4627" x2="7.82417" y2="55.98007"/>
        <line x1="7.82417" y1="55.98007" x2="7.56149" y2="56.43505"/>
        <line x1="7.54204" y1="54.50668" x2="7.14635" y2="54.17466"/>
        <line x1="7.14635" y1="54.17466" x2="6.66097" y2="53.998"/>
        <line x1="6.66097" y1="53.998" x2="6.14443" y2="53.998"/>
        <line x1="6.14443" y1="53.998" x2="5.65905" y2="54.17466"/>
        <line x1="5.65905" y1="54.17466" x2="5.26336" y2="54.50668"/>
        <line x1="5.26336" y1="54.50668" x2="5.0051" y2="54.95401"/>
        <line x1="5.0051" y1="54.95401" x2="4.9154" y2="55.4627"/>
        <line x1="4.9154" y1="55.4627" x2="5.0051" y2="55.97139"/>
        <line x1="5.0051" y1="55.97139" x2="5.26336" y2="56.41872"/>
        <line x1="5.26336" y1="56.41872" x2="5.65905" y2="56.75074"/>
        <line x1="5.65905" y1="56.75074" x2="6.14443" y2="56.92741"/>
        <line x1="6.14443" y1="56.92741" x2="6.66097" y2="56.92741"/>
        <line x1="6.66097" y1="56.92741" x2="7.14635" y2="56.75074"/>
        <line x1="7.14635" y1="56.75074" x2="7.54204" y2="56.41872"/>
        <line x1="7.54204" y1="56.41872" x2="7.8003" y2="55.97139"/>
        <line x1="7.8003" y1="55.97139" x2="7.89" y2="55.4627"/>
        <line x1="7.89" y1="55.4627" x2="7.8003" y2="54.95401"/>
        <line x1="7.8003" y1="54.95401" x2="7.54204" y2="54.50668"/>
        <line x1="119.2727" y1="56.38305" x2="118.8697" y2="56.72074"/>
        <line x1="118.8697" y1="56.72074" x2="118.3767" y2="56.90042"/>
        <line x1="118.3767" y1="56.90042" x2="117.8507" y2="56.90042"/>
        <line x1="117.8507" y1="56.90042" x2="117.3577" y2="56.72074"/>
        <line x1="117.3577" y1="56.72074" x2="116.9547" y2="56.38305"/>
        <line x1="116.9547" y1="56.38305" x2="116.6927" y2="55.92807"/>
        <line x1="116.6927" y1="55.92807" x2="116.6007" y2="55.4107"/>
        <line x1="116.6007" y1="55.4107" x2="116.6927" y2="54.89333"/>
        <line x1="116.6927" y1="54.89333" x2="116.9547" y2="54.43836"/>
        <line x1="116.9547" y1="54.43836" x2="117.3577" y2="54.10066"/>
        <line x1="117.3577" y1="54.10066" x2="117.8507" y2="53.92098"/>
        <line x1="117.8507" y1="53.92098" x2="118.3767" y2="53.92098"/>
        <line x1="118.3767" y1="53.92098" x2="118.8697" y2="54.10066"/>
        <line x1="118.8697" y1="54.10066" x2="119.2727" y2="54.43836"/>
        <line x1="119.2727" y1="54.43836" x2="119.5347" y2="54.89333"/>
        <line x1="119.5347" y1="54.89333" x2="119.6267" y2="55.4107"/>
        <line x1="119.6267" y1="55.4107" x2="119.5347" y2="55.92807"/>
        <line x1="119.5347" y1="55.92807" x2="119.2727" y2="56.38305"/>
        <line x1="119.2527" y1="54.45468" x2="118.8577" y2="54.12266"/>
        <line x1="118.8577" y1="54.12266" x2="118.3717" y2="53.946"/>
        <line x1="118.3717" y1="53.946" x2="117.8557" y2="53.946"/>
        <line x1="117.8557" y1="53.946" x2="117.3697" y2="54.12266"/>
        <line x1="117.3697" y1="54.12266" x2="116.9747" y2="54.45468"/>
        <line x1="116.9747" y1="54.45468" x2="116.7157" y2="54.90201"/>
        <line x1="116.7157" y1="54.90201" x2="116.6267" y2="55.4107"/>
        <line x1="116.6267" y1="55.4107" x2="116.7157" y2="55.91939"/>
        <line x1="116.7157" y1="55.91939" x2="116.9747" y2="56.36672"/>
        <line x1="116.9747" y1="56.36672" x2="117.3697" y2="56.69874"/>
        <line x1="117.3697" y1="56.69874" x2="117.8557" y2="56.87541"/>
        <line x1="117.8557" y1="56.87541" x2="118.3717" y2="56.87541"/>
        <line x1="118.3717" y1="56.87541" x2="118.8577" y2="56.69874"/>
        <line x1="118.8577" y1="56.69874" x2="119.2527" y2="56.36672"/>
        <line x1="119.2527" y1="56.36672" x2="119.5117" y2="55.91939"/>
        <line x1="119.5117" y1="55.91939" x2="119.6007" y2="55.4107"/>
        <line x1="119.6007" y1="55.4107" x2="119.5117" y2="54.90201"/>
        <line x1="119.5117" y1="54.90201" x2="119.2527" y2="54.45468"/>
        <line x1="119.2747" y1="7.9852" x2="118.8717" y2="8.3236"/>
        <line x1="118.8717" y1="8.3236" x2="118.3767" y2="8.5037"/>
        <line x1="118.3767" y1="8.5037" x2="117.8507" y2="8.5037"/>
        <line x1="117.8507" y1="8.5037" x2="117.3557" y2="8.3236"/>
        <line x1="117.3557" y1="8.3236" x2="116.9527" y2="7.9852"/>
        <line x1="116.9527" y1="7.9852" x2="116.6887" y2="7.5292"/>
        <line x1="116.6887" y1="7.5292" x2="116.5977" y2="7.0107"/>
        <line x1="116.5977" y1="7.0107" x2="116.6887" y2="6.4922"/>
        <line x1="116.6887" y1="6.4922" x2="116.9527" y2="6.0362"/>
        <line x1="116.9527" y1="6.0362" x2="117.3557" y2="5.6978"/>
        <line x1="117.3557" y1="5.6978" x2="117.8507" y2="5.5177"/>
        <line x1="117.8507" y1="5.5177" x2="118.3767" y2="5.5177"/>
        <line x1="118.3767" y1="5.5177" x2="118.8717" y2="5.6978"/>
        <line x1="118.8717" y1="5.6978" x2="119.2747" y2="6.0362"/>
        <line x1="119.2747" y1="6.0362" x2="119.5387" y2="6.4922"/>
        <line x1="119.5387" y1="6.4922" x2="119.6297" y2="7.0107"/>
        <line x1="119.6297" y1="7.0107" x2="119.5387" y2="7.5292"/>
        <line x1="119.5387" y1="7.5292" x2="119.2747" y2="7.9852"/>
        <line x1="119.2557" y1="6.0525" x2="118.8587" y2="5.7198"/>
        <line x1="118.8587" y1="5.7198" x2="118.3727" y2="5.5427"/>
        <line x1="118.3727" y1="5.5427" x2="117.8547" y2="5.5427"/>
        <line x1="117.8547" y1="5.5427" x2="117.3687" y2="5.7198"/>
        <line x1="117.3687" y1="5.7198" x2="116.9717" y2="6.0525"/>
        <line x1="116.9717" y1="6.0525" x2="116.7127" y2="6.5009"/>
        <line x1="116.7127" y1="6.5009" x2="116.6227" y2="7.0107"/>
        <line x1="116.6227" y1="7.0107" x2="116.7127" y2="7.5205"/>
        <line x1="116.7127" y1="7.5205" x2="116.9717" y2="7.9689"/>
        <line x1="116.9717" y1="7.9689" x2="117.3687" y2="8.3016"/>
        <line x1="117.3687" y1="8.3016" x2="117.8547" y2="8.4787"/>
        <line x1="117.8547" y1="8.4787" x2="118.3727" y2="8.4787"/>
        <line x1="118.3727" y1="8.4787" x2="118.8587" y2="8.3016"/>
        <line x1="118.8587" y1="8.3016" x2="119.2557" y2="7.9689"/>
        <line x1="119.2557" y1="7.9689" x2="119.5147" y2="7.5205"/>
        <line x1="119.5147" y1="7.5205" x2="119.6047" y2="7.0107"/>
        <line x1="119.6047" y1="7.0107" x2="119.5147" y2="6.5009"/>
        <line x1="119.5147" y1="6.5009" x2="119.2557" y2="6.0525"/>
        <line x1="7.57505" y1="7.9852" x2="7.17171" y2="8.3236"/>
        <line x1="7.17171" y1="8.3236" x2="6.67696" y2="8.5037"/>
        <line x1="6.67696" y1="8.5037" x2="6.15044" y2="8.5037"/>
        <line x1="6.15044" y1="8.5037" x2="5.65568" y2="8.3236"/>
        <line x1="5.65568" y1="8.3236" x2="5.25235" y2="7.9852"/>
        <line x1="5.25235" y1="7.9852" x2="4.9891" y2="7.5292"/>
        <line x1="4.9891" y1="7.5292" x2="4.89767" y2="7.0107"/>
        <line x1="4.89767" y1="7.0107" x2="4.9891" y2="6.4922"/>
        <line x1="4.9891" y1="6.4922" x2="5.25235" y2="6.0362"/>
        <line x1="5.25235" y1="6.0362" x2="5.65568" y2="5.6978"/>
        <line x1="5.65568" y1="5.6978" x2="6.15044" y2="5.5177"/>
        <line x1="6.15044" y1="5.5177" x2="6.67696" y2="5.5177"/>
        <line x1="6.67696" y1="5.5177" x2="7.17171" y2="5.6978"/>
        <line x1="7.17171" y1="5.6978" x2="7.57505" y2="6.0362"/>
        <line x1="7.57505" y1="6.0362" x2="7.8383" y2="6.4922"/>
        <line x1="7.8383" y1="6.4922" x2="7.92973" y2="7.0107"/>
        <line x1="7.92973" y1="7.0107" x2="7.8383" y2="7.5292"/>
        <line x1="7.8383" y1="7.5292" x2="7.57505" y2="7.9852"/>
        <line x1="7.55559" y1="6.0525" x2="7.15901" y2="5.7198"/>
        <line x1="7.15901" y1="5.7198" x2="6.67254" y2="5.5427"/>
        <line x1="6.67254" y1="5.5427" x2="6.15485" y2="5.5427"/>
        <line x1="6.15485" y1="5.5427" x2="5.66839" y2="5.7198"/>
        <line x1="5.66839" y1="5.7198" x2="5.27181" y2="6.0525"/>
        <line x1="5.27181" y1="6.0525" x2="5.01297" y2="6.5009"/>
        <line x1="5.01297" y1="6.5009" x2="4.92307" y2="7.0107"/>
        <line x1="4.92307" y1="7.0107" x2="5.01297" y2="7.5205"/>
        <line x1="5.01297" y1="7.5205" x2="5.27181" y2="7.9689"/>
        <line x1="5.27181" y1="7.9689" x2="5.66839" y2="8.3016"/>
        <line x1="5.66839" y1="8.3016" x2="6.15485" y2="8.4787"/>
        <line x1="6.15485" y1="8.4787" x2="6.67254" y2="8.4787"/>
        <line x1="6.67254" y1="8.4787" x2="7.15901" y2="8.3016"/>
        <line x1="7.15901" y1="8.3016" x2="7.55559" y2="7.9689"/>
        <line x1="7.55559" y1="7.9689" x2="7.81443" y2="7.5205"/>
        <line x1="7.81443" y1="7.5205" x2="7.90433" y2="7.0107"/>
        <line x1="7.90433" y1="7.0107" x2="7.81443" y2="6.5009"/>
        <line x1="7.81443" y1="6.5009" x2="7.55559" y2="6.0525"/>
    </g>
    <g lc:layername="CYAN1" lc:is_locked="false" lc:is_construction="false" fill="none" stroke="black" stroke-width="1"/>
    <g lc:layername="CYAN2" lc:is_locked="false" lc:is_construction="false" fill="none" stroke="black" stroke-width="1"/>
    <g lc:layername="CYAN3" lc:is_locked="false" lc:is_construction="false" fill="none" stroke="black" stroke-width="1"/>
    <g lc:layername="CYAN4" lc:is_locked="false" lc:is_construction="false" fill="none" stroke="black" stroke-width="1"/>
    <g lc:layername="GRAY1" lc:is_locked="false" lc:is_construction="false" fill="none" stroke="black" stroke-width="1"/>
    <g lc:layername="GRAY2" lc:is_locked="false" lc:is_construction="false" fill="none" stroke="black" stroke-width="1"/>
    <g lc:layername="GRAY3" lc:is_locked="false" lc:is_construction="false" fill="none" stroke="black" stroke-width="1"/>
    <g lc:layername="GREEN1" lc:is_locked="false" lc:is_construction="false" fill="none" stroke="black" stroke-width="1"/>
    <g lc:layername="GREEN2" lc:is_locked="false" lc:is_construction="false" fill="none" stroke="black" stroke-width="1"/>
    <g lc:layername="GREEN3" lc:is_locked="false" lc:is_construction="false" fill="none" stroke="black" stroke-width="1"/>
    <g lc:layername="GREEN4" lc:is_locked="false" lc:is_construction="false" fill="none" stroke="black" stroke-width="1"/>
    <g lc:layername="LYELLOW" lc:is_locked="false" lc:is_construction="false" fill="none" stroke="black" stroke-width="1"/>
    <g lc:layername="MAGENTA1" lc:is_locked="false" lc:is_construction="false" fill="none" stroke="black" stroke-width="1"/>
    <g lc:layername="MAGENTA2" lc:is_locked="false" lc:is_construction="false" fill="none" stroke="black" stroke-width="1"/>
    <g lc:layername="MAGENTA3" lc:is_locked="false" lc:is_construction="false" fill="none" stroke="black" stroke-width="1"/>
    <g lc:layername="MAGENTA4" lc:is_locked="false" lc:is_construction="false" fill="none" stroke="black" stroke-width="1"/>
    <g lc:layername="RED1" lc:is_locked="false" lc:is_construction="false" fill="none" stroke="black" stroke-width="1"/>
    <g lc:layername="RED2" lc:is_locked="false" lc:is_construction="false" fill="none" stroke="black" stroke-width="1"/>
    <g lc:layername="RED3" lc:is_locked="false" lc:is_construction="false" fill="none" stroke="black" stroke-width="1"/>
    <g lc:layername="RED4" lc:is_locked="false" lc:is_construction="false" fill="none" stroke="black" stroke-width="1"/>
    <g lc:layername="WHITE" lc:is_locked="false" lc:is_construction="false" fill="none" stroke="black" stroke-width="1"/>
</svg>
