999
dxfrw 0.6.3
  0
SECTION
  2
HEADER
  9
$ACADVER
  1
AC1021
  9
$DWGCODEPAGE
  3
ANSI_1252
  9
$INSBASE
 10
0
 20
0
 30
0
  9
$EXTMIN
 10
-0.0127
 20
-0.0127
 30
0
  9
$EXTMAX
 10
124.513
 20
62.4127
 30
0
  9
$LIMMIN
 10
0
 20
0
  9
$LIMMAX
 10
420
 20
297
  9
$ORTHOMODE
 70
    0
  9
$REGENMODE
 70
    1
  9
$FILLMODE
 70
    1
  9
$QTEXTMODE
 70
    0
  9
$MIRRTEXT
 70
    0
  9
$LTSCALE
 40
1
  9
$ATTMODE
 70
    0
  9
$TEXTSIZE
 40
2.5
  9
$TRACEWID
 40
15.68
  9
$TEXTSTYLE
  7
STANDARD
  9
$CLAYER
  8
WHITE
  9
$CELTYPE
  6
BYLAYER
  9
$CECOLOR
 62
  256
  9
$CELTSCALE
 40
1
  9
$DISPSILH
 70
    0
  9
$DIMSCALE
 40
2.5
  9
$DIMASZ
 40
2.5
  9
$DIMEXO
 40
0.625
  9
$DIMDLI
 40
3.75
  9
$DIMRND
 40
0
  9
$DIMDLE
 40
0
  9
$DIMEXE
 40
1.25
  9
$DIMTP
 40
0
  9
$DIMTM
 40
0
  9
$DIMTXT
 40
2.5
  9
$DIMCEN
 40
2.5
  9
$DIMTSZ
 40
0
  9
$DIMTOL
 70
    0
  9
$DIMLIM
 70
    0
  9
$DIMTIH
 70
    0
  9
$DIMTOH
 70
    0
  9
$DIMSE1
 70
    0
  9
$DIMSE2
 70
    0
  9
$DIMTAD
 70
    1
  9
$DIMZIN
 70
    8
  9
$DIMBLK
  1

  9
$DIMASO
 70
    1
  9
$DIMSHO
 70
    1
  9
$DIMPOST
  1

  9
$DIMAPOST
  1

  9
$DIMALT
 70
    0
  9
$DIMALTD
 70
    3
  9
$DIMALTF
 40
0.03937
  9
$DIMLFAC
 40
1
  9
$DIMTOFL
 70
    1
  9
$DIMTVP
 40
0
  9
$DIMTIX
 70
    0
  9
$DIMSOXD
 70
    0
  9
$DIMSAH
 70
    0
  9
$DIMBLK1
  1

  9
$DIMBLK2
  1

  9
$DIMSTYLE
  2
Standard
  9
$DIMCLRD
 70
    0
  9
$DIMCLRE
 70
    0
  9
$DIMCLRT
 70
    0
  9
$DIMTFAC
 40
1
  9
$DIMGAP
 40
0.625
  9
$DIMJUST
 70
    0
  9
$DIMSD1
 70
    0
  9
$DIMSD2
 70
    0
  9
$DIMTOLJ
 70
    0
  9
$DIMTZIN
 70
    8
  9
$DIMALTZ
 70
    0
  9
$DIMALTTZ
 70
    0
  9
$DIMUPT
 70
    0
  9
$DIMDEC
 70
    2
  9
$DIMTDEC
 70
    2
  9
$DIMALTU
 70
    2
  9
$DIMALTTD
 70
    3
  9
$DIMTXSTY
  7
STANDARD
  9
$DIMAUNIT
 70
    0
  9
$DIMADEC
 70
    0
  9
$DIMALTRND
 40
0
  9
$DIMAZIN
 70
    0
  9
$DIMDSEP
 70
   44
  9
$DIMATFIT
 70
    3
  9
$DIMFRAC
 70
    0
  9
$DIMLDRBLK
  1
STANDARD
  9
$DIMLUNIT
 70
    2
  9
$DIMLWD
 70
   -2
  9
$DIMLWE
 70
   -2
  9
$DIMTMOVE
 70
    0
  9
$DIMFXL
 40
1
  9
$DIMFXLON
 70
    0
  9
$DIMJOGANG
 40
0.7854
  9
$DIMTFILL
 70
    0
  9
$DIMTFILLCLR
 70
    0
  9
$DIMARCSYM
 70
    0
  9
$DIMLTYPE
  6

  9
$DIMLTEX1
  6

  9
$DIMLTEX2
  6

  9
$LUNITS
 70
    2
  9
$LUPREC
 70
    4
  9
$SKETCHINC
 40
1
  9
$FILLETRAD
 40
0
  9
$AUNITS
 70
    0
  9
$AUPREC
 70
    2
  9
$MENU
  1
.
  9
$ELEVATION
 40
0
  9
$PELEVATION
 40
0
  9
$THICKNESS
 40
0
  9
$LIMCHECK
 70
    0
  9
$CHAMFERA
 40
0
  9
$CHAMFERB
 40
0
  9
$CHAMFERC
 40
0
  9
$CHAMFERD
 40
0
  9
$SKPOLY
 70
    0
  9
$USRTIMER
 70
    1
  9
$ANGBASE
 50
0
  9
$ANGDIR
 70
    1
  9
$PDMODE
 70
   34
  9
$PDSIZE
 40
0
  9
$PLINEWID
 40
0
  9
$SPLFRAME
 70
    0
  9
$SPLINETYPE
 70
    2
  9
$SPLINESEGS
 70
    8
  9
$HANDSEED
  5
20000
  9
$SURFTAB1
 70
    6
  9
$SURFTAB2
 70
    6
  9
$SURFTYPE
 70
    6
  9
$SURFU
 70
    6
  9
$SURFV
 70
    6
  9
$UCSBASE
  2

  9
$UCSNAME
  2

  9
$UCSORG
 10
0
 20
0
 30
0
  9
$UCSXDIR
 10
1
 20
0
 30
0
  9
$UCSYDIR
 10
0
 20
1
 30
0
  9
$UCSORTHOREF
  2

  9
$UCSORTHOVIEW
 70
    0
  9
$UCSORGTOP
 10
0
 20
0
 30
0
  9
$UCSORGBOTTOM
 10
0
 20
0
 30
0
  9
$UCSORGLEFT
 10
0
 20
0
 30
0
  9
$UCSORGRIGHT
 10
0
 20
0
 30
0
  9
$UCSORGFRONT
 10
0
 20
0
 30
0
  9
$UCSORGBACK
 10
0
 20
0
 30
0
  9
$PUCSBASE
  2

  9
$PUCSNAME
  2

  9
$PUCSORG
 10
0
 20
0
 30
0
  9
$PUCSXDIR
 10
1
 20
0
 30
0
  9
$PUCSYDIR
 10
0
 20
1
 30
0
  9
$PUCSORTHOREF
  2

  9
$PUCSORTHOVIEW
 70
    0
  9
$PUCSORGTOP
 10
0
 20
0
 30
0
  9
$PUCSORGBOTTOM
 10
0
 20
0
 30
0
  9
$PUCSORGLEFT
 10
0
 20
0
 30
0
  9
$PUCSORGRIGHT
 10
0
 20
0
 30
0
  9
$PUCSORGFRONT
 10
0
 20
0
 30
0
  9
$PUCSORGBACK
 10
0
 20
0
 30
0
  9
$USERI1
 70
    0
  9
$USERI2
 70
    0
  9
$USERI3
 70
    0
  9
$USERI4
 70
    0
  9
$USERI5
 70
    0
  9
$USERR1
 40
0
  9
$USERR2
 40
0
  9
$USERR3
 40
0
  9
$USERR4
 40
0
  9
$USERR5
 40
0
  9
$WORLDVIEW
 70
    1
  9
$SHADEDGE
 70
    3
  9
$SHADEDIF
 70
   70
  9
$TILEMODE
 70
    1
  9
$MAXACTVP
 70
   64
  9
$PINSBASE
 10
0
 20
0
 30
0
  9
$PLIMCHECK
 70
    0
  9
$PEXTMIN
 10
0
 20
0
 30
0
  9
$PEXTMAX
 10
0
 20
0
 30
0
  9
$GRIDMODE
 70
    1
  9
$SNAPSTYLE
 70
    0
  9
$PLIMMIN
 10
0
 20
0
  9
$PLIMMAX
 10
210
 20
297
  9
$UNITMODE
 70
    0
  9
$VISRETAIN
 70
    1
  9
$PLINEGEN
 70
    0
  9
$PSLTSCALE
 70
    1
  9
$TREEDEPTH
 70
 3020
  9
$CMLSTYLE
  2
Standard
  9
$CMLJUST
 70
    0
  9
$CMLSCALE
 40
20
  9
$PROXYGRAPHICS
 70
    1
  9
$MEASUREMENT
 70
    0
  9
$CELWEIGHT
370
   -1
  9
$ENDCAPS
280
    0
  9
$JOINSTYLE
280
    0
  9
$LWDISPLAY
290
    0
  9
$INSUNITS
 70
    4
  9
$HYPERLINKBASE
  1

  9
$STYLESHEET
  1

  9
$XEDIT
290
    1
  9
$CEPSNTYPE
380
    0
  9
$PSTYLEMODE
290
    1
  9
$EXTNAMES
290
    1
  9
$PSVPSCALE
 40
1
  9
$OLESTARTUP
290
    0
  9
$SORTENTS
280
  127
  9
$INDEXCTL
280
    0
  9
$HIDETEXT
280
    1
  9
$XCLIPFRAME
290
    0
  9
$HALOGAP
280
    0
  9
$OBSCOLOR
 70
  257
  9
$OBSLTYPE
280
    0
  9
$INTERSECTIONDISPLAY
280
    0
  9
$INTERSECTIONCOLOR
 70
  257
  9
$DIMASSOC
280
    1
  9
$PROJECTNAME
  1

  9
$CAMERADISPLAY
290
    0
  9
$LENSLENGTH
 40
50
  9
$CAMERAHEIGHT
 40
0
  9
$STEPSPERSEC
 40
2
  9
$STEPSIZE
 40
50
  9
$3DDWFPREC
 40
2
  9
$PSOLWIDTH
 40
5
  9
$PSOLHEIGHT
 40
80
  9
$LOFTANG1
 40
1.570796326794897
  9
$LOFTANG2
 40
1.570796326794897
  9
$LOFTMAG1
 40
0
  9
$LOFTMAG2
 40
0
  9
$LOFTPARAM
 70
    7
  9
$LOFTNORMALS
280
    1
  9
$LATITUDE
 40
1
  9
$LONGITUDE
 40
1
  9
$NORTHDIRECTION
 40
0
  9
$TIMEZONE
 70
-8000
  9
$LIGHTGLYPHDISPLAY
280
    1
  9
$TILEMODELIGHTSYNCH
280
    1
  9
$SOLIDHIST
280
    1
  9
$SHOWHIST
280
    1
  9
$DWFFRAME
280
    2
  9
$DGNFRAME
280
    0
  9
$REALWORLDSCALE
290
    1
  9
$INTERFERECOLOR
 62
    1
  9
$CSHADOW
280
    0
  9
$SHADOWPLANELOCATION
 40
0
  0
ENDSEC
  0
SECTION
  2
CLASSES
  0
ENDSEC
  0
SECTION
  2
TABLES
  0
TABLE
  2
VPORT
  5
8
330
0
100
AcDbSymbolTable
 70
    1
  0
VPORT
  5
31
330
2
100
AcDbSymbolTableRecord
100
AcDbViewportTableRecord
  2
*ACTIVE
 70
    0
 10
0
 20
0
 11
1
 21
1
 12
-28.09803133622585
 22
-15.0357358320941
 13
0
 23
0
 14
10
 24
10
 15
10
 25
10
 16
0
 26
0
 36
1
 17
0
 27
0
 37
0
 40
12.02858866567528
 41
2.125
 42
50
 43
0
 44
0
 50
0
 51
0
 71
    0
 72
  100
 73
    1
 74
    3
 75
    0
 76
    1
 77
    0
 78
    0
281
    0
 65
    1
110
0
120
0
130
0
111
1
121
0
131
0
112
0
122
1
132
0
 79
    0
146
0
348
10020
 60
    7
 61
    5
292
1
282
    1
141
0
142
0
 63
  250
421
3358443
  0
ENDTAB
  0
TABLE
  2
LTYPE
  5
5
330
0
100
AcDbSymbolTable
 70
    4
  0
LTYPE
  5
14
330
5
100
AcDbSymbolTableRecord
100
AcDbLinetypeTableRecord
  2
ByBlock
 70
    0
  3

 72
   65
 73
    0
 40
0
  0
LTYPE
  5
15
330
5
100
AcDbSymbolTableRecord
100
AcDbLinetypeTableRecord
  2
ByLayer
 70
    0
  3

 72
   65
 73
    0
 40
0
  0
LTYPE
  5
16
330
5
100
AcDbSymbolTableRecord
100
AcDbLinetypeTableRecord
  2
Continuous
 70
    0
  3
Solid line
 72
   65
 73
    0
 40
0
  0
LTYPE
  5
32
330
5
100
AcDbSymbolTableRecord
100
AcDbLinetypeTableRecord
  2
DOT
 70
    0
  3
Dot . . . . . . . . . . . . . . . . . . . . . .
 72
   65
 73
    2
 40
6.35
 49
0
 74
    0
 49
-6.35
 74
    0
  0
LTYPE
  5
33
330
5
100
AcDbSymbolTableRecord
100
AcDbLinetypeTableRecord
  2
DOTTINY
 70
    0
  3
Dot (.15x) .....................................
 72
   65
 73
    2
 40
0.9525
 49
0
 74
    0
 49
-0.9525
 74
    0
  0
LTYPE
  5
34
330
5
100
AcDbSymbolTableRecord
100
AcDbLinetypeTableRecord
  2
DOT2
 70
    0
  3
Dot (.5x) .....................................
 72
   65
 73
    2
 40
3.175
 49
0
 74
    0
 49
-3.175
 74
    0
  0
LTYPE
  5
35
330
5
100
AcDbSymbolTableRecord
100
AcDbLinetypeTableRecord
  2
DOTX2
 70
    0
  3
Dot (2x) .  .  .  .  .  .  .  .  .  .  .  .  .
 72
   65
 73
    2
 40
12.7
 49
0
 74
    0
 49
-12.7
 74
    0
  0
LTYPE
  5
36
330
5
100
AcDbSymbolTableRecord
100
AcDbLinetypeTableRecord
  2
DASHED
 70
    0
  3
Dashed _ _ _ _ _ _ _ _ _ _ _ _ _ _ _ _ _
 72
   65
 73
    2
 40
19.05
 49
12.7
 74
    0
 49
-6.35
 74
    0
  0
LTYPE
  5
37
330
5
100
AcDbSymbolTableRecord
100
AcDbLinetypeTableRecord
  2
DASHEDTINY
 70
    0
  3
Dashed (.15x) _ _ _ _ _ _ _ _ _ _ _ _ _ _ _ _ _
 72
   65
 73
    2
 40
2.8575
 49
1.905
 74
    0
 49
-0.9525
 74
    0
  0
LTYPE
  5
38
330
5
100
AcDbSymbolTableRecord
100
AcDbLinetypeTableRecord
  2
DASHED2
 70
    0
  3
Dashed (.5x) _ _ _ _ _ _ _ _ _ _ _ _ _ _ _ _ _
 72
   65
 73
    2
 40
9.524999999999999
 49
6.35
 74
    0
 49
-3.175
 74
    0
  0
LTYPE
  5
39
330
5
100
AcDbSymbolTableRecord
100
AcDbLinetypeTableRecord
  2
DASHEDX2
 70
    0
  3
Dashed (2x) ____  ____  ____  ____  ____  ___
 72
   65
 73
    2
 40
38.09999999999999
 49
25.4
 74
    0
 49
-12.7
 74
    0
  0
LTYPE
  5
3A
330
5
100
AcDbSymbolTableRecord
100
AcDbLinetypeTableRecord
  2
DASHDOT
 70
    0
  3
Dash dot __ . __ . __ . __ . __ . __ . __ . __
 72
   65
 73
    4
 40
25.4
 49
12.7
 74
    0
 49
-6.35
 74
    0
 49
0
 74
    0
 49
-6.35
 74
    0
  0
LTYPE
  5
3B
330
5
100
AcDbSymbolTableRecord
100
AcDbLinetypeTableRecord
  2
DASHDOTTINY
 70
    0
  3
Dash dot (.15x) _._._._._._._._._._._._._._._.
 72
   65
 73
    4
 40
3.81
 49
1.905
 74
    0
 49
-0.9525
 74
    0
 49
0
 74
    0
 49
-0.9525
 74
    0
  0
LTYPE
  5
3C
330
5
100
AcDbSymbolTableRecord
100
AcDbLinetypeTableRecord
  2
DASHDOT2
 70
    0
  3
Dash dot (.5x) _._._._._._._._._._._._._._._.
 72
   65
 73
    4
 40
12.7
 49
6.35
 74
    0
 49
-3.175
 74
    0
 49
0
 74
    0
 49
-3.175
 74
    0
  0
LTYPE
  5
3D
330
5
100
AcDbSymbolTableRecord
100
AcDbLinetypeTableRecord
  2
DASHDOTX2
 70
    0
  3
Dash dot (2x) ____  .  ____  .  ____  .  ___
 72
   65
 73
    4
 40
50.8
 49
25.4
 74
    0
 49
-12.7
 74
    0
 49
0
 74
    0
 49
-12.7
 74
    0
  0
LTYPE
  5
3E
330
5
100
AcDbSymbolTableRecord
100
AcDbLinetypeTableRecord
  2
DIVIDE
 70
    0
  3
Divide ____ . . ____ . . ____ . . ____ . . ____
 72
   65
 73
    6
 40
31.75
 49
12.7
 74
    0
 49
-6.35
 74
    0
 49
0
 74
    0
 49
-6.35
 74
    0
 49
0
 74
    0
 49
-6.35
 74
    0
  0
LTYPE
  5
3F
330
5
100
AcDbSymbolTableRecord
100
AcDbLinetypeTableRecord
  2
DIVIDETINY
 70
    0
  3
Divide (.15x) __..__..__..__..__..__..__..__.._
 72
   65
 73
    6
 40
4.7625
 49
1.905
 74
    0
 49
-0.9525
 74
    0
 49
0
 74
    0
 49
-0.9525
 74
    0
 49
0
 74
    0
 49
-0.9525
 74
    0
  0
LTYPE
  5
40
330
5
100
AcDbSymbolTableRecord
100
AcDbLinetypeTableRecord
  2
DIVIDE2
 70
    0
  3
Divide (.5x) __..__..__..__..__..__..__..__.._
 72
   65
 73
    6
 40
15.875
 49
6.35
 74
    0
 49
-3.175
 74
    0
 49
0
 74
    0
 49
-3.175
 74
    0
 49
0
 74
    0
 49
-3.175
 74
    0
  0
LTYPE
  5
41
330
5
100
AcDbSymbolTableRecord
100
AcDbLinetypeTableRecord
  2
DIVIDEX2
 70
    0
  3
Divide (2x) ________  .  .  ________  .  .  _
 72
   65
 73
    6
 40
63.5
 49
25.4
 74
    0
 49
-12.7
 74
    0
 49
0
 74
    0
 49
-12.7
 74
    0
 49
0
 74
    0
 49
-12.7
 74
    0
  0
LTYPE
  5
42
330
5
100
AcDbSymbolTableRecord
100
AcDbLinetypeTableRecord
  2
BORDER
 70
    0
  3
Border __ __ . __ __ . __ __ . __ __ . __ __ .
 72
   65
 73
    6
 40
44.45
 49
12.7
 74
    0
 49
-6.35
 74
    0
 49
12.7
 74
    0
 49
-6.35
 74
    0
 49
0
 74
    0
 49
-6.35
 74
    0
  0
LTYPE
  5
43
330
5
100
AcDbSymbolTableRecord
100
AcDbLinetypeTableRecord
  2
BORDERTINY
 70
    0
  3
Border (.15x) __.__.__.__.__.__.__.__.__.__.__.
 72
   65
 73
    6
 40
6.6675
 49
1.905
 74
    0
 49
-0.9525
 74
    0
 49
1.905
 74
    0
 49
-0.9525
 74
    0
 49
0
 74
    0
 49
-0.9525
 74
    0
  0
LTYPE
  5
44
330
5
100
AcDbSymbolTableRecord
100
AcDbLinetypeTableRecord
  2
BORDER2
 70
    0
  3
Border (.5x) __.__.__.__.__.__.__.__.__.__.__.
 72
   65
 73
    6
 40
22.225
 49
6.35
 74
    0
 49
-3.175
 74
    0
 49
6.35
 74
    0
 49
-3.175
 74
    0
 49
0
 74
    0
 49
-3.175
 74
    0
  0
LTYPE
  5
45
330
5
100
AcDbSymbolTableRecord
100
AcDbLinetypeTableRecord
  2
BORDERX2
 70
    0
  3
Border (2x) ____  ____  .  ____  ____  .  ___
 72
   65
 73
    6
 40
88.89999999999999
 49
25.4
 74
    0
 49
-12.7
 74
    0
 49
25.4
 74
    0
 49
-12.7
 74
    0
 49
0
 74
    0
 49
-12.7
 74
    0
  0
LTYPE
  5
46
330
5
100
AcDbSymbolTableRecord
100
AcDbLinetypeTableRecord
  2
CENTER
 70
    0
  3
Center ____ _ ____ _ ____ _ ____ _ ____ _ ____
 72
   65
 73
    4
 40
50.8
 49
31.75
 74
    0
 49
-6.35
 74
    0
 49
6.35
 74
    0
 49
-6.35
 74
    0
  0
LTYPE
  5
47
330
5
100
AcDbSymbolTableRecord
100
AcDbLinetypeTableRecord
  2
CENTERTINY
 70
    0
  3
Center (.15x) ___ _ ___ _ ___ _ ___ _ ___ _ ___
 72
   65
 73
    4
 40
7.62
 49
4.7625
 74
    0
 49
-0.9525
 74
    0
 49
0.9525
 74
    0
 49
-0.9525
 74
    0
  0
LTYPE
  5
48
330
5
100
AcDbSymbolTableRecord
100
AcDbLinetypeTableRecord
  2
CENTER2
 70
    0
  3
Center (.5x) ___ _ ___ _ ___ _ ___ _ ___ _ ___
 72
   65
 73
    4
 40
28.575
 49
19.05
 74
    0
 49
-3.175
 74
    0
 49
3.175
 74
    0
 49
-3.175
 74
    0
  0
LTYPE
  5
49
330
5
100
AcDbSymbolTableRecord
100
AcDbLinetypeTableRecord
  2
CENTERX2
 70
    0
  3
Center (2x) ________  __  ________  __  _____
 72
   65
 73
    4
 40
101.6
 49
63.5
 74
    0
 49
-12.7
 74
    0
 49
12.7
 74
    0
 49
-12.7
 74
    0
  0
ENDTAB
  0
TABLE
  2
LAYER
  5
2
330
0
100
AcDbSymbolTable
 70
    1
  0
LAYER
  5
10
330
2
100
AcDbSymbolTableRecord
100
AcDbLayerTableRecord
  2
0
 70
    0
 62
    7
  6
CONTINUOUS
370
    0
390
F
  0
LAYER
  5
4A
330
2
100
AcDbSymbolTableRecord
100
AcDbLayerTableRecord
  2
BLACK
 70
    0
 62
    7
  6
CONTINUOUS
370
   -3
390
F
  0
LAYER
  5
4B
330
2
100
AcDbSymbolTableRecord
100
AcDbLayerTableRecord
  2
BLUE1
 70
    0
 62
  178
  6
CONTINUOUS
370
   -3
390
F
  0
LAYER
  5
4C
330
2
100
AcDbSymbolTableRecord
100
AcDbLayerTableRecord
  2
BLUE2
 70
    0
 62
    5
  6
CONTINUOUS
370
   -3
390
F
  0
LAYER
  5
4D
330
2
100
AcDbSymbolTableRecord
100
AcDbLayerTableRecord
  2
BLUE3
 70
    0
 62
  171
  6
CONTINUOUS
370
   -3
390
F
  0
LAYER
  5
4E
330
2
100
AcDbSymbolTableRecord
100
AcDbLayerTableRecord
  2
BLUE4
 70
    0
 62
    5
  6
CONTINUOUS
370
   -3
390
F
  0
LAYER
  5
4F
330
2
100
AcDbSymbolTableRecord
100
AcDbLayerTableRecord
  2
BROWN1
 70
    0
 62
   58
  6
CONTINUOUS
370
   -3
390
F
  0
LAYER
  5
50
330
2
100
AcDbSymbolTableRecord
100
AcDbLayerTableRecord
  2
BROWN2
 70
    0
 62
   54
  6
CONTINUOUS
370
   -3
390
F
  0
LAYER
  5
51
330
2
100
AcDbSymbolTableRecord
100
AcDbLayerTableRecord
  2
Black
 70
    0
 62
    7
  6
CONTINUOUS
370
   -3
390
F
  0
LAYER
  5
52
330
2
100
AcDbSymbolTableRecord
100
AcDbLayerTableRecord
  2
CYAN1
 70
    0
 62
  138
  6
CONTINUOUS
370
   -3
390
F
  0
LAYER
  5
53
330
2
100
AcDbSymbolTableRecord
100
AcDbLayerTableRecord
  2
CYAN2
 70
    0
 62
    4
  6
CONTINUOUS
370
   -3
390
F
  0
LAYER
  5
54
330
2
100
AcDbSymbolTableRecord
100
AcDbLayerTableRecord
  2
CYAN3
 70
    0
 62
  131
  6
CONTINUOUS
370
   -3
390
F
  0
LAYER
  5
55
330
2
100
AcDbSymbolTableRecord
100
AcDbLayerTableRecord
  2
CYAN4
 70
    0
 62
    4
  6
CONTINUOUS
370
   -3
390
F
  0
LAYER
  5
56
330
2
100
AcDbSymbolTableRecord
100
AcDbLayerTableRecord
  2
GRAY1
 70
    0
 62
  251
  6
CONTINUOUS
370
   -3
390
F
  0
LAYER
  5
57
330
2
100
AcDbSymbolTableRecord
100
AcDbLayerTableRecord
  2
GRAY2
 70
    0
 62
    8
  6
CONTINUOUS
370
   -3
390
F
  0
LAYER
  5
58
330
2
100
AcDbSymbolTableRecord
100
AcDbLayerTableRecord
  2
GRAY3
 70
    0
 62
    9
  6
CONTINUOUS
370
   -3
390
F
  0
LAYER
  5
59
330
2
100
AcDbSymbolTableRecord
100
AcDbLayerTableRecord
  2
GREEN1
 70
    0
 62
   98
  6
CONTINUOUS
370
   -3
390
F
  0
LAYER
  5
5A
330
2
100
AcDbSymbolTableRecord
100
AcDbLayerTableRecord
  2
GREEN2
 70
    0
 62
    3
  6
CONTINUOUS
370
   -3
390
F
  0
LAYER
  5
5B
330
2
100
AcDbSymbolTableRecord
100
AcDbLayerTableRecord
  2
GREEN3
 70
    0
 62
   91
  6
CONTINUOUS
370
   -3
390
F
  0
LAYER
  5
5C
330
2
100
AcDbSymbolTableRecord
100
AcDbLayerTableRecord
  2
GREEN4
 70
    0
 62
    3
  6
CONTINUOUS
370
   -3
390
F
  0
LAYER
  5
5D
330
2
100
AcDbSymbolTableRecord
100
AcDbLayerTableRecord
  2
LYELLOW
 70
    0
 62
   51
  6
CONTINUOUS
370
   -3
390
F
  0
LAYER
  5
5E
330
2
100
AcDbSymbolTableRecord
100
AcDbLayerTableRecord
  2
MAGENTA1
 70
    0
 62
  228
  6
CONTINUOUS
370
   -3
390
F
  0
LAYER
  5
5F
330
2
100
AcDbSymbolTableRecord
100
AcDbLayerTableRecord
  2
MAGENTA2
 70
    0
 62
    6
  6
CONTINUOUS
370
   -3
390
F
  0
LAYER
  5
60
330
2
100
AcDbSymbolTableRecord
100
AcDbLayerTableRecord
  2
MAGENTA3
 70
    0
 62
  221
  6
CONTINUOUS
370
   -3
390
F
  0
LAYER
  5
61
330
2
100
AcDbSymbolTableRecord
100
AcDbLayerTableRecord
  2
MAGENTA4
 70
    0
 62
    6
  6
CONTINUOUS
370
   -3
390
F
  0
LAYER
  5
62
330
2
100
AcDbSymbolTableRecord
100
AcDbLayerTableRecord
  2
RED1
 70
    0
 62
   18
  6
CONTINUOUS
370
   -3
390
F
  0
LAYER
  5
63
330
2
100
AcDbSymbolTableRecord
100
AcDbLayerTableRecord
  2
RED2
 70
    0
 62
    1
  6
CONTINUOUS
370
   -3
390
F
  0
LAYER
  5
64
330
2
100
AcDbSymbolTableRecord
100
AcDbLayerTableRecord
  2
RED3
 70
    0
 62
   11
  6
CONTINUOUS
370
   -3
390
F
  0
LAYER
  5
65
330
2
100
AcDbSymbolTableRecord
100
AcDbLayerTableRecord
  2
RED4
 70
    0
 62
    1
  6
CONTINUOUS
370
   -3
390
F
  0
LAYER
  5
66
330
2
100
AcDbSymbolTableRecord
100
AcDbLayerTableRecord
  2
WHITE
 70
    0
 62
    7
  6
CONTINUOUS
370
   -3
390
F
  0
LAYER
  5
67
330
2
100
AcDbSymbolTableRecord
100
AcDbLayerTableRecord
  2
YELLOW3
 70
    1
 62
    2
  6
CONTINUOUS
370
   -3
390
F
  0
LAYER
  5
68
330
2
100
AcDbSymbolTableRecord
100
AcDbLayerTableRecord
  2
YELLOW4
 70
    1
 62
    2
  6
CONTINUOUS
370
   -3
390
F
  0
ENDTAB
  0
TABLE
  2
STYLE
  5
3
330
0
100
AcDbSymbolTable
 70
    3
  0
STYLE
  5
69
330
2
100
AcDbSymbolTableRecord
100
AcDbTextStyleTableRecord
  2
Standard
 70
    0
 40
0
 41
1
 50
0
 71
    0
 42
1
  3
txt
  4

  0
ENDTAB
  0
TABLE
  2
VIEW
  5
6
330
0
100
AcDbSymbolTable
 70
    0
  0
ENDTAB
  0
TABLE
  2
UCS
  5
7
330
0
100
AcDbSymbolTable
 70
    0
  0
ENDTAB
  0
TABLE
  2
APPID
  5
9
330
0
100
AcDbSymbolTable
 70
    1
  0
APPID
  5
12
330
9
100
AcDbSymbolTableRecord
100
AcDbRegAppTableRecord
  2
ACAD
 70
    0
  0
APPID
  5
6A
330
9
100
AcDbSymbolTableRecord
100
AcDbRegAppTableRecord
  2
LibreCad
 70
    0
  0
ENDTAB
  0
TABLE
  2
DIMSTYLE
  5
A
330
0
100
AcDbSymbolTable
 70
    1
100
AcDbDimStyleTable
 71
    1
  0
DIMSTYLE
105
6B
330
A
100
AcDbSymbolTableRecord
100
AcDbDimStyleTableRecord
  2
Standard
 70
    0
 40
2.5
 41
2.5
 42
0.625
 43
0.38
 44
1.25
 45
0
 46
0
 47
0
 48
0
 49
1
140
2.5
141
0.09
142
0
143
25.4
144
1
145
0
146
1
147
0.625
148
0
 71
    0
 72
    0
 73
    0
 74
    1
 75
    0
 76
    0
 77
    0
 78
    8
 79
    0
170
    0
171
    2
172
    0
173
    0
174
    0
175
    0
176
    0
177
    0
178
    0
179
    0
271
    2
272
    4
273
    2
274
    2
275
    0
276
    0
277
    2
278
   44
279
    0
280
    0
281
    0
282
    0
283
    1
284
    0
285
    0
286
    0
288
    0
289
    3
340
STANDARD
341

371
   -2
372
   -2
  0
ENDTAB
  0
TABLE
  2
BLOCK_RECORD
  5
1
330
0
100
AcDbSymbolTable
 70
    2
  0
BLOCK_RECORD
  5
1F
330
1
100
AcDbSymbolTableRecord
100
AcDbBlockTableRecord
  2
*Model_Space
 70
    0
280
    1
281
    0
  0
BLOCK_RECORD
  5
1E
330
1
100
AcDbSymbolTableRecord
100
AcDbBlockTableRecord
  2
*Paper_Space
 70
    0
280
    1
281
    0
  0
ENDTAB
  0
ENDSEC
  0
SECTION
  2
BLOCKS
  0
BLOCK
  5
20
330
1F
100
AcDbEntity
  8
0
100
AcDbBlockBegin
  2
*Model_Space
 70
    0
 10
0
 20
0
 30
0
  3
*Model_Space
  1

  0
ENDBLK
  5
21
330
1F
100
AcDbEntity
  8
0
100
AcDbBlockEnd
  0
BLOCK
  5
1C
330
1B
100
AcDbEntity
  8
0
100
AcDbBlockBegin
  2
*Paper_Space
 70
    0
 10
0
 20
0
 30
0
  3
*Paper_Space
  1

  0
ENDBLK
  5
1D
330
1F
100
AcDbEntity
  8
0
100
AcDbBlockEnd
  0
ENDSEC
  0
SECTION
  2
ENTITIES
  0
LINE
  5
6C
100
AcDbEntity
  8
Black
  6
ByLayer
 62
  256
370
   -1
100
AcDbLine
 10
124.501
 20
62.4125
 11
124.502
 21
62.4125
  0
LINE
  5
6D
100
AcDbEntity
  8
Black
  6
ByLayer
 62
  256
370
   -1
100
AcDbLine
 10
124.502
 20
62.4125
 11
124.503
 21
62.4121
  0
LINE
  5
6E
100
AcDbEntity
  8
Black
  6
ByLayer
 62
  256
370
   -1
100
AcDbLine
 10
124.503
 20
62.4121
 11
124.504
 21
62.4119
  0
LINE
  5
6F
100
AcDbEntity
  8
Black
  6
ByLayer
 62
  256
370
   -1
100
AcDbLine
 10
124.504
 20
62.4119
 11
124.505
 21
62.4114
  0
LINE
  5
70
100
AcDbEntity
  8
Black
  6
ByLayer
 62
  256
370
   -1
100
AcDbLine
 10
124.505
 20
62.4114
 11
124.506
 21
62.411
  0
LINE
  5
71
100
AcDbEntity
  8
Black
  6
ByLayer
 62
  256
370
   -1
100
AcDbLine
 10
124.506
 20
62.411
 11
124.507
 21
62.4103
  0
LINE
  5
72
100
AcDbEntity
  8
Black
  6
ByLayer
 62
  256
370
   -1
100
AcDbLine
 10
124.507
 20
62.4103
 11
124.508
 21
62.4097
  0
LINE
  5
73
100
AcDbEntity
  8
Black
  6
ByLayer
 62
  256
370
   -1
100
AcDbLine
 10
124.508
 20
62.4097
 11
124.509
 21
62.4089
  0
LINE
  5
74
100
AcDbEntity
  8
Black
  6
ByLayer
 62
  256
370
   -1
100
AcDbLine
 10
124.509
 20
62.4089
 11
124.51
 21
62.4082
  0
LINE
  5
75
100
AcDbEntity
  8
Black
  6
ByLayer
 62
  256
370
   -1
100
AcDbLine
 10
124.51
 20
62.4082
 11
124.51
 21
62.4072
  0
LINE
  5
76
100
AcDbEntity
  8
Black
  6
ByLayer
 62
  256
370
   -1
100
AcDbLine
 10
124.51
 20
62.4072
 11
124.511
 21
62.4063
  0
LINE
  5
77
100
AcDbEntity
  8
Black
  6
ByLayer
 62
  256
370
   -1
100
AcDbLine
 10
124.511
 20
62.4063
 11
124.511
 21
62.4053
  0
LINE
  5
78
100
AcDbEntity
  8
Black
  6
ByLayer
 62
  256
370
   -1
100
AcDbLine
 10
124.511
 20
62.4053
 11
124.512
 21
62.4043
  0
LINE
  5
79
100
AcDbEntity
  8
Black
  6
ByLayer
 62
  256
370
   -1
100
AcDbLine
 10
124.512
 20
62.4043
 11
124.512
 21
62.4032
  0
LINE
  5
7A
100
AcDbEntity
  8
Black
  6
ByLayer
 62
  256
370
   -1
100
AcDbLine
 10
124.512
 20
62.4032
 11
124.513
 21
62.4022
  0
LINE
  5
7B
100
AcDbEntity
  8
Black
  6
ByLayer
 62
  256
370
   -1
100
AcDbLine
 10
124.513
 20
62.4022
 11
124.513
 21
62.4011
  0
LINE
  5
7C
100
AcDbEntity
  8
Black
  6
ByLayer
 62
  256
370
   -1
100
AcDbLine
 10
124.513
 20
62.4011
 11
124.513
 21
62.4
  0
LINE
  5
7D
100
AcDbEntity
  8
Black
  6
ByLayer
 62
  256
370
   -1
100
AcDbLine
 10
124.513
 20
62.4
 11
124.513
 21
0
  0
LINE
  5
7E
100
AcDbEntity
  8
Black
  6
ByLayer
 62
  256
370
   -1
100
AcDbLine
 10
124.513
 20
0
 11
124.513
 21
-0.001095
  0
LINE
  5
7F
100
AcDbEntity
  8
Black
  6
ByLayer
 62
  256
370
   -1
100
AcDbLine
 10
124.513
 20
-0.001095
 11
124.513
 21
-0.002205
  0
LINE
  5
80
100
AcDbEntity
  8
Black
  6
ByLayer
 62
  256
370
   -1
100
AcDbLine
 10
124.513
 20
-0.002205
 11
124.512
 21
-0.003249
  0
LINE
  5
81
100
AcDbEntity
  8
Black
  6
ByLayer
 62
  256
370
   -1
100
AcDbLine
 10
124.512
 20
-0.003249
 11
124.512
 21
-0.004344
  0
LINE
  5
82
100
AcDbEntity
  8
Black
  6
ByLayer
 62
  256
370
   -1
100
AcDbLine
 10
124.512
 20
-0.004344
 11
124.511
 21
-0.005305
  0
LINE
  5
83
100
AcDbEntity
  8
Black
  6
ByLayer
 62
  256
370
   -1
100
AcDbLine
 10
124.511
 20
-0.005305
 11
124.511
 21
-0.00635
  0
LINE
  5
84
100
AcDbEntity
  8
Black
  6
ByLayer
 62
  256
370
   -1
100
AcDbLine
 10
124.511
 20
-0.00635
 11
124.51
 21
-0.007202
  0
LINE
  5
85
100
AcDbEntity
  8
Black
  6
ByLayer
 62
  256
370
   -1
100
AcDbLine
 10
124.51
 20
-0.007202
 11
124.51
 21
-0.008163
  0
LINE
  5
86
100
AcDbEntity
  8
Black
  6
ByLayer
 62
  256
370
   -1
100
AcDbLine
 10
124.51
 20
-0.008163
 11
124.509
 21
-0.008878
  0
LINE
  5
87
100
AcDbEntity
  8
Black
  6
ByLayer
 62
  256
370
   -1
100
AcDbLine
 10
124.509
 20
-0.008878
 11
124.508
 21
-0.009729
  0
LINE
  5
88
100
AcDbEntity
  8
Black
  6
ByLayer
 62
  256
370
   -1
100
AcDbLine
 10
124.508
 20
-0.009729
 11
124.507
 21
-0.010284
  0
LINE
  5
89
100
AcDbEntity
  8
Black
  6
ByLayer
 62
  256
370
   -1
100
AcDbLine
 10
124.507
 20
-0.010284
 11
124.506
 21
-0.010999
  0
LINE
  5
8A
100
AcDbEntity
  8
Black
  6
ByLayer
 62
  256
370
   -1
100
AcDbLine
 10
124.506
 20
-0.010999
 11
124.505
 21
-0.011379
  0
LINE
  5
8B
100
AcDbEntity
  8
Black
  6
ByLayer
 62
  256
370
   -1
100
AcDbLine
 10
124.505
 20
-0.011379
 11
124.504
 21
-0.011934
  0
LINE
  5
8C
100
AcDbEntity
  8
Black
  6
ByLayer
 62
  256
370
   -1
100
AcDbLine
 10
124.504
 20
-0.011934
 11
124.503
 21
-0.012127
  0
LINE
  5
8D
100
AcDbEntity
  8
Black
  6
ByLayer
 62
  256
370
   -1
100
AcDbLine
 10
124.503
 20
-0.012127
 11
124.502
 21
-0.012507
  0
LINE
  5
8E
100
AcDbEntity
  8
Black
  6
ByLayer
 62
  256
370
   -1
100
AcDbLine
 10
124.502
 20
-0.012507
 11
124.501
 21
-0.012507
  0
LINE
  5
8F
100
AcDbEntity
  8
Black
  6
ByLayer
 62
  256
370
   -1
100
AcDbLine
 10
124.501
 20
-0.012507
 11
124.5
 21
-0.0127
  0
LINE
  5
90
100
AcDbEntity
  8
Black
  6
ByLayer
 62
  256
370
   -1
100
AcDbLine
 10
124.5
 20
-0.0127
 11
0
 21
-0.0127
  0
LINE
  5
91
100
AcDbEntity
  8
Black
  6
ByLayer
 62
  256
370
   -1
100
AcDbLine
 10
0
 20
-0.0127
 11
-0.001095
 21
-0.012507
  0
LINE
  5
92
100
AcDbEntity
  8
Black
  6
ByLayer
 62
  256
370
   -1
100
AcDbLine
 10
-0.001095
 20
-0.012507
 11
-0.002205
 21
-0.012507
  0
LINE
  5
93
100
AcDbEntity
  8
Black
  6
ByLayer
 62
  256
370
   -1
100
AcDbLine
 10
-0.002205
 20
-0.012507
 11
-0.003249
 21
-0.012127
  0
LINE
  5
94
100
AcDbEntity
  8
Black
  6
ByLayer
 62
  256
370
   -1
100
AcDbLine
 10
-0.003249
 20
-0.012127
 11
-0.004344
 21
-0.011934
  0
LINE
  5
95
100
AcDbEntity
  8
Black
  6
ByLayer
 62
  256
370
   -1
100
AcDbLine
 10
-0.004344
 20
-0.011934
 11
-0.005305
 21
-0.011379
  0
LINE
  5
96
100
AcDbEntity
  8
Black
  6
ByLayer
 62
  256
370
   -1
100
AcDbLine
 10
-0.005305
 20
-0.011379
 11
-0.00635
 21
-0.010999
  0
LINE
  5
97
100
AcDbEntity
  8
Black
  6
ByLayer
 62
  256
370
   -1
100
AcDbLine
 10
-0.00635
 20
-0.010999
 11
-0.007202
 21
-0.010284
  0
LINE
  5
98
100
AcDbEntity
  8
Black
  6
ByLayer
 62
  256
370
   -1
100
AcDbLine
 10
-0.007202
 20
-0.010284
 11
-0.008163
 21
-0.009729
  0
LINE
  5
99
100
AcDbEntity
  8
Black
  6
ByLayer
 62
  256
370
   -1
100
AcDbLine
 10
-0.008163
 20
-0.009729
 11
-0.008878
 21
-0.008878
  0
LINE
  5
9A
100
AcDbEntity
  8
Black
  6
ByLayer
 62
  256
370
   -1
100
AcDbLine
 10
-0.008878
 20
-0.008878
 11
-0.009729
 21
-0.008163
  0
LINE
  5
9B
100
AcDbEntity
  8
Black
  6
ByLayer
 62
  256
370
   -1
100
AcDbLine
 10
-0.009729
 20
-0.008163
 11
-0.010284
 21
-0.007202
  0
LINE
  5
9C
100
AcDbEntity
  8
Black
  6
ByLayer
 62
  256
370
   -1
100
AcDbLine
 10
-0.010284
 20
-0.007202
 11
-0.010999
 21
-0.00635
  0
LINE
  5
9D
100
AcDbEntity
  8
Black
  6
ByLayer
 62
  256
370
   -1
100
AcDbLine
 10
-0.010999
 20
-0.00635
 11
-0.011379
 21
-0.005305
  0
LINE
  5
9E
100
AcDbEntity
  8
Black
  6
ByLayer
 62
  256
370
   -1
100
AcDbLine
 10
-0.011379
 20
-0.005305
 11
-0.011934
 21
-0.004344
  0
LINE
  5
9F
100
AcDbEntity
  8
Black
  6
ByLayer
 62
  256
370
   -1
100
AcDbLine
 10
-0.011934
 20
-0.004344
 11
-0.012127
 21
-0.003249
  0
LINE
  5
A0
100
AcDbEntity
  8
Black
  6
ByLayer
 62
  256
370
   -1
100
AcDbLine
 10
-0.012127
 20
-0.003249
 11
-0.012507
 21
-0.002205
  0
LINE
  5
A1
100
AcDbEntity
  8
Black
  6
ByLayer
 62
  256
370
   -1
100
AcDbLine
 10
-0.012507
 20
-0.002205
 11
-0.012507
 21
-0.001095
  0
LINE
  5
A2
100
AcDbEntity
  8
Black
  6
ByLayer
 62
  256
370
   -1
100
AcDbLine
 10
-0.012507
 20
-0.001095
 11
-0.0127
 21
0
  0
LINE
  5
A3
100
AcDbEntity
  8
Black
  6
ByLayer
 62
  256
370
   -1
100
AcDbLine
 10
-0.0127
 20
0
 11
-0.0127
 21
62.4
  0
LINE
  5
A4
100
AcDbEntity
  8
Black
  6
ByLayer
 62
  256
370
   -1
100
AcDbLine
 10
-0.0127
 20
62.4
 11
-0.012507
 21
62.4011
  0
LINE
  5
A5
100
AcDbEntity
  8
Black
  6
ByLayer
 62
  256
370
   -1
100
AcDbLine
 10
-0.012507
 20
62.4011
 11
-0.012507
 21
62.4022
  0
LINE
  5
A6
100
AcDbEntity
  8
Black
  6
ByLayer
 62
  256
370
   -1
100
AcDbLine
 10
-0.012507
 20
62.4022
 11
-0.012127
 21
62.4032
  0
LINE
  5
A7
100
AcDbEntity
  8
Black
  6
ByLayer
 62
  256
370
   -1
100
AcDbLine
 10
-0.012127
 20
62.4032
 11
-0.011934
 21
62.4043
  0
LINE
  5
A8
100
AcDbEntity
  8
Black
  6
ByLayer
 62
  256
370
   -1
100
AcDbLine
 10
-0.011934
 20
62.4043
 11
-0.011379
 21
62.4053
  0
LINE
  5
A9
100
AcDbEntity
  8
Black
  6
ByLayer
 62
  256
370
   -1
100
AcDbLine
 10
-0.011379
 20
62.4053
 11
-0.010999
 21
62.4063
  0
LINE
  5
AA
100
AcDbEntity
  8
Black
  6
ByLayer
 62
  256
370
   -1
100
AcDbLine
 10
-0.010999
 20
62.4063
 11
-0.010284
 21
62.4072
  0
LINE
  5
AB
100
AcDbEntity
  8
Black
  6
ByLayer
 62
  256
370
   -1
100
AcDbLine
 10
-0.010284
 20
62.4072
 11
-0.009729
 21
62.4082
  0
LINE
  5
AC
100
AcDbEntity
  8
Black
  6
ByLayer
 62
  256
370
   -1
100
AcDbLine
 10
-0.009729
 20
62.4082
 11
-0.008878
 21
62.4089
  0
LINE
  5
AD
100
AcDbEntity
  8
Black
  6
ByLayer
 62
  256
370
   -1
100
AcDbLine
 10
-0.008878
 20
62.4089
 11
-0.008163
 21
62.4097
  0
LINE
  5
AE
100
AcDbEntity
  8
Black
  6
ByLayer
 62
  256
370
   -1
100
AcDbLine
 10
-0.008163
 20
62.4097
 11
-0.007202
 21
62.4103
  0
LINE
  5
AF
100
AcDbEntity
  8
Black
  6
ByLayer
 62
  256
370
   -1
100
AcDbLine
 10
-0.007202
 20
62.4103
 11
-0.00635
 21
62.411
  0
LINE
  5
B0
100
AcDbEntity
  8
Black
  6
ByLayer
 62
  256
370
   -1
100
AcDbLine
 10
-0.00635
 20
62.411
 11
-0.005305
 21
62.4114
  0
LINE
  5
B1
100
AcDbEntity
  8
Black
  6
ByLayer
 62
  256
370
   -1
100
AcDbLine
 10
-0.005305
 20
62.4114
 11
-0.004344
 21
62.4119
  0
LINE
  5
B2
100
AcDbEntity
  8
Black
  6
ByLayer
 62
  256
370
   -1
100
AcDbLine
 10
-0.004344
 20
62.4119
 11
-0.003249
 21
62.4121
  0
LINE
  5
B3
100
AcDbEntity
  8
Black
  6
ByLayer
 62
  256
370
   -1
100
AcDbLine
 10
-0.003249
 20
62.4121
 11
-0.002205
 21
62.4125
  0
LINE
  5
B4
100
AcDbEntity
  8
Black
  6
ByLayer
 62
  256
370
   -1
100
AcDbLine
 10
-0.002205
 20
62.4125
 11
-0.001095
 21
62.4125
  0
LINE
  5
B5
100
AcDbEntity
  8
Black
  6
ByLayer
 62
  256
370
   -1
100
AcDbLine
 10
-0.001095
 20
62.4125
 11
0
 21
62.4127
  0
LINE
  5
B6
100
AcDbEntity
  8
Black
  6
ByLayer
 62
  256
370
   -1
100
AcDbLine
 10
0
 20
62.4127
 11
124.5
 21
62.4127
  0
LINE
  5
B7
100
AcDbEntity
  8
Black
  6
ByLayer
 62
  256
370
   -1
100
AcDbLine
 10
124.5
 20
62.4127
 11
124.501
 21
62.4125
  0
LINE
  5
B8
100
AcDbEntity
  8
Black
  6
ByLayer
 62
  256
370
   -1
100
AcDbLine
 10
7.54879
 20
5.97765
 11
7.14635
 21
5.63996
  0
LINE
  5
B9
100
AcDbEntity
  8
Black
  6
ByLayer
 62
  256
370
   -1
100
AcDbLine
 10
7.14635
 20
5.63996
 11
6.65268
 21
5.46028
  0
LINE
  5
BA
100
AcDbEntity
  8
Black
  6
ByLayer
 62
  256
370
   -1
100
AcDbLine
 10
6.65268
 20
5.46028
 11
6.12732
 21
5.46028
  0
LINE
  5
BB
100
AcDbEntity
  8
Black
  6
ByLayer
 62
  256
370
   -1
100
AcDbLine
 10
6.12732
 20
5.46028
 11
5.63365
 21
5.63996
  0
LINE
  5
BC
100
AcDbEntity
  8
Black
  6
ByLayer
 62
  256
370
   -1
100
AcDbLine
 10
5.63365
 20
5.63996
 11
5.23121
 21
5.97765
  0
LINE
  5
BD
100
AcDbEntity
  8
Black
  6
ByLayer
 62
  256
370
   -1
100
AcDbLine
 10
5.23121
 20
5.97765
 11
4.96853
 21
6.43263
  0
LINE
  5
BE
100
AcDbEntity
  8
Black
  6
ByLayer
 62
  256
370
   -1
100
AcDbLine
 10
4.96853
 20
6.43263
 11
4.8773
 21
6.95
  0
LINE
  5
BF
100
AcDbEntity
  8
Black
  6
ByLayer
 62
  256
370
   -1
100
AcDbLine
 10
4.8773
 20
6.95
 11
4.96853
 21
7.46737
  0
LINE
  5
C0
100
AcDbEntity
  8
Black
  6
ByLayer
 62
  256
370
   -1
100
AcDbLine
 10
4.96853
 20
7.46737
 11
5.23121
 21
7.92234
  0
LINE
  5
C1
100
AcDbEntity
  8
Black
  6
ByLayer
 62
  256
370
   -1
100
AcDbLine
 10
5.23121
 20
7.92234
 11
5.63365
 21
8.26004
  0
LINE
  5
C2
100
AcDbEntity
  8
Black
  6
ByLayer
 62
  256
370
   -1
100
AcDbLine
 10
5.63365
 20
8.26004
 11
6.12732
 21
8.439719999999999
  0
LINE
  5
C3
100
AcDbEntity
  8
Black
  6
ByLayer
 62
  256
370
   -1
100
AcDbLine
 10
6.12732
 20
8.439719999999999
 11
6.65268
 21
8.439719999999999
  0
LINE
  5
C4
100
AcDbEntity
  8
Black
  6
ByLayer
 62
  256
370
   -1
100
AcDbLine
 10
6.65268
 20
8.439719999999999
 11
7.14635
 21
8.26004
  0
LINE
  5
C5
100
AcDbEntity
  8
Black
  6
ByLayer
 62
  256
370
   -1
100
AcDbLine
 10
7.14635
 20
8.26004
 11
7.54879
 21
7.92234
  0
LINE
  5
C6
100
AcDbEntity
  8
Black
  6
ByLayer
 62
  256
370
   -1
100
AcDbLine
 10
7.54879
 20
7.92234
 11
7.81147
 21
7.46737
  0
LINE
  5
C7
100
AcDbEntity
  8
Black
  6
ByLayer
 62
  256
370
   -1
100
AcDbLine
 10
7.81147
 20
7.46737
 11
7.9027
 21
6.95
  0
LINE
  5
C8
100
AcDbEntity
  8
Black
  6
ByLayer
 62
  256
370
   -1
100
AcDbLine
 10
7.9027
 20
6.95
 11
7.81147
 21
6.43263
  0
LINE
  5
C9
100
AcDbEntity
  8
Black
  6
ByLayer
 62
  256
370
   -1
100
AcDbLine
 10
7.81147
 20
6.43263
 11
7.54879
 21
5.97765
  0
LINE
  5
CA
100
AcDbEntity
  8
Black
  6
ByLayer
 62
  256
370
   -1
100
AcDbLine
 10
7.52934
 20
7.90602
 11
7.13365
 21
8.23804
  0
LINE
  5
CB
100
AcDbEntity
  8
Black
  6
ByLayer
 62
  256
370
   -1
100
AcDbLine
 10
7.13365
 20
8.23804
 11
6.64827
 21
8.4147
  0
LINE
  5
CC
100
AcDbEntity
  8
Black
  6
ByLayer
 62
  256
370
   -1
100
AcDbLine
 10
6.64827
 20
8.4147
 11
6.13173
 21
8.4147
  0
LINE
  5
CD
100
AcDbEntity
  8
Black
  6
ByLayer
 62
  256
370
   -1
100
AcDbLine
 10
6.13173
 20
8.4147
 11
5.64635
 21
8.23804
  0
LINE
  5
CE
100
AcDbEntity
  8
Black
  6
ByLayer
 62
  256
370
   -1
100
AcDbLine
 10
5.64635
 20
8.23804
 11
5.25066
 21
7.90602
  0
LINE
  5
CF
100
AcDbEntity
  8
Black
  6
ByLayer
 62
  256
370
   -1
100
AcDbLine
 10
5.25066
 20
7.90602
 11
4.9924
 21
7.45869
  0
LINE
  5
D0
100
AcDbEntity
  8
Black
  6
ByLayer
 62
  256
370
   -1
100
AcDbLine
 10
4.9924
 20
7.45869
 11
4.9027
 21
6.95
  0
LINE
  5
D1
100
AcDbEntity
  8
Black
  6
ByLayer
 62
  256
370
   -1
100
AcDbLine
 10
4.9027
 20
6.95
 11
4.9924
 21
6.44131
  0
LINE
  5
D2
100
AcDbEntity
  8
Black
  6
ByLayer
 62
  256
370
   -1
100
AcDbLine
 10
4.9924
 20
6.44131
 11
5.25066
 21
5.99398
  0
LINE
  5
D3
100
AcDbEntity
  8
Black
  6
ByLayer
 62
  256
370
   -1
100
AcDbLine
 10
5.25066
 20
5.99398
 11
5.64635
 21
5.66196
  0
LINE
  5
D4
100
AcDbEntity
  8
Black
  6
ByLayer
 62
  256
370
   -1
100
AcDbLine
 10
5.64635
 20
5.66196
 11
6.13173
 21
5.48529
  0
LINE
  5
D5
100
AcDbEntity
  8
Black
  6
ByLayer
 62
  256
370
   -1
100
AcDbLine
 10
6.13173
 20
5.48529
 11
6.64827
 21
5.48529
  0
LINE
  5
D6
100
AcDbEntity
  8
Black
  6
ByLayer
 62
  256
370
   -1
100
AcDbLine
 10
6.64827
 20
5.48529
 11
7.13365
 21
5.66196
  0
LINE
  5
D7
100
AcDbEntity
  8
Black
  6
ByLayer
 62
  256
370
   -1
100
AcDbLine
 10
7.13365
 20
5.66196
 11
7.52934
 21
5.99398
  0
LINE
  5
D8
100
AcDbEntity
  8
Black
  6
ByLayer
 62
  256
370
   -1
100
AcDbLine
 10
7.52934
 20
5.99398
 11
7.7876
 21
6.44131
  0
LINE
  5
D9
100
AcDbEntity
  8
Black
  6
ByLayer
 62
  256
370
   -1
100
AcDbLine
 10
7.7876
 20
6.44131
 11
7.8773
 21
6.95
  0
LINE
  5
DA
100
AcDbEntity
  8
Black
  6
ByLayer
 62
  256
370
   -1
100
AcDbLine
 10
7.8773
 20
6.95
 11
7.7876
 21
7.45869
  0
LINE
  5
DB
100
AcDbEntity
  8
Black
  6
ByLayer
 62
  256
370
   -1
100
AcDbLine
 10
7.7876
 20
7.45869
 11
7.52934
 21
7.90602
  0
LINE
  5
DC
100
AcDbEntity
  8
Black
  6
ByLayer
 62
  256
370
   -1
100
AcDbLine
 10
119.26
 20
6.02965
 11
118.857
 21
5.69196
  0
LINE
  5
DD
100
AcDbEntity
  8
Black
  6
ByLayer
 62
  256
370
   -1
100
AcDbLine
 10
118.857
 20
5.69196
 11
118.364
 21
5.51228
  0
LINE
  5
DE
100
AcDbEntity
  8
Black
  6
ByLayer
 62
  256
370
   -1
100
AcDbLine
 10
118.364
 20
5.51228
 11
117.838
 21
5.51228
  0
LINE
  5
DF
100
AcDbEntity
  8
Black
  6
ByLayer
 62
  256
370
   -1
100
AcDbLine
 10
117.838
 20
5.51228
 11
117.345
 21
5.69196
  0
LINE
  5
E0
100
AcDbEntity
  8
Black
  6
ByLayer
 62
  256
370
   -1
100
AcDbLine
 10
117.345
 20
5.69196
 11
116.942
 21
6.02965
  0
LINE
  5
E1
100
AcDbEntity
  8
Black
  6
ByLayer
 62
  256
370
   -1
100
AcDbLine
 10
116.942
 20
6.02965
 11
116.68
 21
6.48463
  0
LINE
  5
E2
100
AcDbEntity
  8
Black
  6
ByLayer
 62
  256
370
   -1
100
AcDbLine
 10
116.68
 20
6.48463
 11
116.588
 21
7.002
  0
LINE
  5
E3
100
AcDbEntity
  8
Black
  6
ByLayer
 62
  256
370
   -1
100
AcDbLine
 10
116.588
 20
7.002
 11
116.68
 21
7.51937
  0
LINE
  5
E4
100
AcDbEntity
  8
Black
  6
ByLayer
 62
  256
370
   -1
100
AcDbLine
 10
116.68
 20
7.51937
 11
116.942
 21
7.97434
  0
LINE
  5
E5
100
AcDbEntity
  8
Black
  6
ByLayer
 62
  256
370
   -1
100
AcDbLine
 10
116.942
 20
7.97434
 11
117.345
 21
8.31204
  0
LINE
  5
E6
100
AcDbEntity
  8
Black
  6
ByLayer
 62
  256
370
   -1
100
AcDbLine
 10
117.345
 20
8.31204
 11
117.838
 21
8.491720000000001
  0
LINE
  5
E7
100
AcDbEntity
  8
Black
  6
ByLayer
 62
  256
370
   -1
100
AcDbLine
 10
117.838
 20
8.491720000000001
 11
118.364
 21
8.491720000000001
  0
LINE
  5
E8
100
AcDbEntity
  8
Black
  6
ByLayer
 62
  256
370
   -1
100
AcDbLine
 10
118.364
 20
8.491720000000001
 11
118.857
 21
8.31204
  0
LINE
  5
E9
100
AcDbEntity
  8
Black
  6
ByLayer
 62
  256
370
   -1
100
AcDbLine
 10
118.857
 20
8.31204
 11
119.26
 21
7.97434
  0
LINE
  5
EA
100
AcDbEntity
  8
Black
  6
ByLayer
 62
  256
370
   -1
100
AcDbLine
 10
119.26
 20
7.97434
 11
119.522
 21
7.51937
  0
LINE
  5
EB
100
AcDbEntity
  8
Black
  6
ByLayer
 62
  256
370
   -1
100
AcDbLine
 10
119.522
 20
7.51937
 11
119.614
 21
7.002
  0
LINE
  5
EC
100
AcDbEntity
  8
Black
  6
ByLayer
 62
  256
370
   -1
100
AcDbLine
 10
119.614
 20
7.002
 11
119.522
 21
6.48463
  0
LINE
  5
ED
100
AcDbEntity
  8
Black
  6
ByLayer
 62
  256
370
   -1
100
AcDbLine
 10
119.522
 20
6.48463
 11
119.26
 21
6.02965
  0
LINE
  5
EE
100
AcDbEntity
  8
Black
  6
ByLayer
 62
  256
370
   -1
100
AcDbLine
 10
119.24
 20
7.95802
 11
118.845
 21
8.290039999999999
  0
LINE
  5
EF
100
AcDbEntity
  8
Black
  6
ByLayer
 62
  256
370
   -1
100
AcDbLine
 10
118.845
 20
8.290039999999999
 11
118.359
 21
8.466699999999999
  0
LINE
  5
F0
100
AcDbEntity
  8
Black
  6
ByLayer
 62
  256
370
   -1
100
AcDbLine
 10
118.359
 20
8.466699999999999
 11
117.843
 21
8.466699999999999
  0
LINE
  5
F1
100
AcDbEntity
  8
Black
  6
ByLayer
 62
  256
370
   -1
100
AcDbLine
 10
117.843
 20
8.466699999999999
 11
117.357
 21
8.290039999999999
  0
LINE
  5
F2
100
AcDbEntity
  8
Black
  6
ByLayer
 62
  256
370
   -1
100
AcDbLine
 10
117.357
 20
8.290039999999999
 11
116.962
 21
7.95802
  0
LINE
  5
F3
100
AcDbEntity
  8
Black
  6
ByLayer
 62
  256
370
   -1
100
AcDbLine
 10
116.962
 20
7.95802
 11
116.703
 21
7.51069
  0
LINE
  5
F4
100
AcDbEntity
  8
Black
  6
ByLayer
 62
  256
370
   -1
100
AcDbLine
 10
116.703
 20
7.51069
 11
116.614
 21
7.002
  0
LINE
  5
F5
100
AcDbEntity
  8
Black
  6
ByLayer
 62
  256
370
   -1
100
AcDbLine
 10
116.614
 20
7.002
 11
116.703
 21
6.49331
  0
LINE
  5
F6
100
AcDbEntity
  8
Black
  6
ByLayer
 62
  256
370
   -1
100
AcDbLine
 10
116.703
 20
6.49331
 11
116.962
 21
6.04598
  0
LINE
  5
F7
100
AcDbEntity
  8
Black
  6
ByLayer
 62
  256
370
   -1
100
AcDbLine
 10
116.962
 20
6.04598
 11
117.357
 21
5.71396
  0
LINE
  5
F8
100
AcDbEntity
  8
Black
  6
ByLayer
 62
  256
370
   -1
100
AcDbLine
 10
117.357
 20
5.71396
 11
117.843
 21
5.53729
  0
LINE
  5
F9
100
AcDbEntity
  8
Black
  6
ByLayer
 62
  256
370
   -1
100
AcDbLine
 10
117.843
 20
5.53729
 11
118.359
 21
5.53729
  0
LINE
  5
FA
100
AcDbEntity
  8
Black
  6
ByLayer
 62
  256
370
   -1
100
AcDbLine
 10
118.359
 20
5.53729
 11
118.845
 21
5.71396
  0
LINE
  5
FB
100
AcDbEntity
  8
Black
  6
ByLayer
 62
  256
370
   -1
100
AcDbLine
 10
118.845
 20
5.71396
 11
119.24
 21
6.04598
  0
LINE
  5
FC
100
AcDbEntity
  8
Black
  6
ByLayer
 62
  256
370
   -1
100
AcDbLine
 10
119.24
 20
6.04598
 11
119.499
 21
6.49331
  0
LINE
  5
FD
100
AcDbEntity
  8
Black
  6
ByLayer
 62
  256
370
   -1
100
AcDbLine
 10
119.499
 20
6.49331
 11
119.588
 21
7.002
  0
LINE
  5
FE
100
AcDbEntity
  8
Black
  6
ByLayer
 62
  256
370
   -1
100
AcDbLine
 10
119.588
 20
7.002
 11
119.499
 21
7.51069
  0
LINE
  5
FF
100
AcDbEntity
  8
Black
  6
ByLayer
 62
  256
370
   -1
100
AcDbLine
 10
119.499
 20
7.51069
 11
119.24
 21
7.95802
  0
LINE
  5
100
100
AcDbEntity
  8
Black
  6
ByLayer
 62
  256
370
   -1
100
AcDbLine
 10
119.262
 20
54.4275
 11
118.859
 21
54.0891
  0
LINE
  5
101
100
AcDbEntity
  8
Black
  6
ByLayer
 62
  256
370
   -1
100
AcDbLine
 10
118.859
 20
54.0891
 11
118.364
 21
53.909
  0
LINE
  5
102
100
AcDbEntity
  8
Black
  6
ByLayer
 62
  256
370
   -1
100
AcDbLine
 10
118.364
 20
53.909
 11
117.838
 21
53.909
  0
LINE
  5
103
100
AcDbEntity
  8
Black
  6
ByLayer
 62
  256
370
   -1
100
AcDbLine
 10
117.838
 20
53.909
 11
117.343
 21
54.0891
  0
LINE
  5
104
100
AcDbEntity
  8
Black
  6
ByLayer
 62
  256
370
   -1
100
AcDbLine
 10
117.343
 20
54.0891
 11
116.94
 21
54.4275
  0
LINE
  5
105
100
AcDbEntity
  8
Black
  6
ByLayer
 62
  256
370
   -1
100
AcDbLine
 10
116.94
 20
54.4275
 11
116.676
 21
54.8835
  0
LINE
  5
106
100
AcDbEntity
  8
Black
  6
ByLayer
 62
  256
370
   -1
100
AcDbLine
 10
116.676
 20
54.8835
 11
116.585
 21
55.402
  0
LINE
  5
107
100
AcDbEntity
  8
Black
  6
ByLayer
 62
  256
370
   -1
100
AcDbLine
 10
116.585
 20
55.402
 11
116.676
 21
55.9205
  0
LINE
  5
108
100
AcDbEntity
  8
Black
  6
ByLayer
 62
  256
370
   -1
100
AcDbLine
 10
116.676
 20
55.9205
 11
116.94
 21
56.3765
  0
LINE
  5
109
100
AcDbEntity
  8
Black
  6
ByLayer
 62
  256
370
   -1
100
AcDbLine
 10
116.94
 20
56.3765
 11
117.343
 21
56.7149
  0
LINE
  5
10A
100
AcDbEntity
  8
Black
  6
ByLayer
 62
  256
370
   -1
100
AcDbLine
 10
117.343
 20
56.7149
 11
117.838
 21
56.895
  0
LINE
  5
10B
100
AcDbEntity
  8
Black
  6
ByLayer
 62
  256
370
   -1
100
AcDbLine
 10
117.838
 20
56.895
 11
118.364
 21
56.895
  0
LINE
  5
10C
100
AcDbEntity
  8
Black
  6
ByLayer
 62
  256
370
   -1
100
AcDbLine
 10
118.364
 20
56.895
 11
118.859
 21
56.7149
  0
LINE
  5
10D
100
AcDbEntity
  8
Black
  6
ByLayer
 62
  256
370
   -1
100
AcDbLine
 10
118.859
 20
56.7149
 11
119.262
 21
56.3765
  0
LINE
  5
10E
100
AcDbEntity
  8
Black
  6
ByLayer
 62
  256
370
   -1
100
AcDbLine
 10
119.262
 20
56.3765
 11
119.526
 21
55.9205
  0
LINE
  5
10F
100
AcDbEntity
  8
Black
  6
ByLayer
 62
  256
370
   -1
100
AcDbLine
 10
119.526
 20
55.9205
 11
119.617
 21
55.402
  0
LINE
  5
110
100
AcDbEntity
  8
Black
  6
ByLayer
 62
  256
370
   -1
100
AcDbLine
 10
119.617
 20
55.402
 11
119.526
 21
54.8835
  0
LINE
  5
111
100
AcDbEntity
  8
Black
  6
ByLayer
 62
  256
370
   -1
100
AcDbLine
 10
119.526
 20
54.8835
 11
119.262
 21
54.4275
  0
LINE
  5
112
100
AcDbEntity
  8
Black
  6
ByLayer
 62
  256
370
   -1
100
AcDbLine
 10
119.243
 20
56.3602
 11
118.846
 21
56.6929
  0
LINE
  5
113
100
AcDbEntity
  8
Black
  6
ByLayer
 62
  256
370
   -1
100
AcDbLine
 10
118.846
 20
56.6929
 11
118.36
 21
56.87
  0
LINE
  5
114
100
AcDbEntity
  8
Black
  6
ByLayer
 62
  256
370
   -1
100
AcDbLine
 10
118.36
 20
56.87
 11
117.842
 21
56.87
  0
LINE
  5
115
100
AcDbEntity
  8
Black
  6
ByLayer
 62
  256
370
   -1
100
AcDbLine
 10
117.842
 20
56.87
 11
117.356
 21
56.6929
  0
LINE
  5
116
100
AcDbEntity
  8
Black
  6
ByLayer
 62
  256
370
   -1
100
AcDbLine
 10
117.356
 20
56.6929
 11
116.959
 21
56.3602
  0
LINE
  5
117
100
AcDbEntity
  8
Black
  6
ByLayer
 62
  256
370
   -1
100
AcDbLine
 10
116.959
 20
56.3602
 11
116.7
 21
55.9118
  0
LINE
  5
118
100
AcDbEntity
  8
Black
  6
ByLayer
 62
  256
370
   -1
100
AcDbLine
 10
116.7
 20
55.9118
 11
116.61
 21
55.402
  0
LINE
  5
119
100
AcDbEntity
  8
Black
  6
ByLayer
 62
  256
370
   -1
100
AcDbLine
 10
116.61
 20
55.402
 11
116.7
 21
54.8922
  0
LINE
  5
11A
100
AcDbEntity
  8
Black
  6
ByLayer
 62
  256
370
   -1
100
AcDbLine
 10
116.7
 20
54.8922
 11
116.959
 21
54.4438
  0
LINE
  5
11B
100
AcDbEntity
  8
Black
  6
ByLayer
 62
  256
370
   -1
100
AcDbLine
 10
116.959
 20
54.4438
 11
117.356
 21
54.1111
  0
LINE
  5
11C
100
AcDbEntity
  8
Black
  6
ByLayer
 62
  256
370
   -1
100
AcDbLine
 10
117.356
 20
54.1111
 11
117.842
 21
53.934
  0
LINE
  5
11D
100
AcDbEntity
  8
Black
  6
ByLayer
 62
  256
370
   -1
100
AcDbLine
 10
117.842
 20
53.934
 11
118.36
 21
53.934
  0
LINE
  5
11E
100
AcDbEntity
  8
Black
  6
ByLayer
 62
  256
370
   -1
100
AcDbLine
 10
118.36
 20
53.934
 11
118.846
 21
54.1111
  0
LINE
  5
11F
100
AcDbEntity
  8
Black
  6
ByLayer
 62
  256
370
   -1
100
AcDbLine
 10
118.846
 20
54.1111
 11
119.243
 21
54.4438
  0
LINE
  5
120
100
AcDbEntity
  8
Black
  6
ByLayer
 62
  256
370
   -1
100
AcDbLine
 10
119.243
 20
54.4438
 11
119.502
 21
54.8922
  0
LINE
  5
121
100
AcDbEntity
  8
Black
  6
ByLayer
 62
  256
370
   -1
100
AcDbLine
 10
119.502
 20
54.8922
 11
119.592
 21
55.402
  0
LINE
  5
122
100
AcDbEntity
  8
Black
  6
ByLayer
 62
  256
370
   -1
100
AcDbLine
 10
119.592
 20
55.402
 11
119.502
 21
55.9118
  0
LINE
  5
123
100
AcDbEntity
  8
Black
  6
ByLayer
 62
  256
370
   -1
100
AcDbLine
 10
119.502
 20
55.9118
 11
119.243
 21
56.3602
  0
LINE
  5
124
100
AcDbEntity
  8
Black
  6
ByLayer
 62
  256
370
   -1
100
AcDbLine
 10
7.56235
 20
54.4275
 11
7.15901
 21
54.0891
  0
LINE
  5
125
100
AcDbEntity
  8
Black
  6
ByLayer
 62
  256
370
   -1
100
AcDbLine
 10
7.15901
 20
54.0891
 11
6.66426
 21
53.909
  0
LINE
  5
126
100
AcDbEntity
  8
Black
  6
ByLayer
 62
  256
370
   -1
100
AcDbLine
 10
6.66426
 20
53.909
 11
6.13774
 21
53.909
  0
LINE
  5
127
100
AcDbEntity
  8
Black
  6
ByLayer
 62
  256
370
   -1
100
AcDbLine
 10
6.13774
 20
53.909
 11
5.64298
 21
54.0891
  0
LINE
  5
128
100
AcDbEntity
  8
Black
  6
ByLayer
 62
  256
370
   -1
100
AcDbLine
 10
5.64298
 20
54.0891
 11
5.23965
 21
54.4275
  0
LINE
  5
129
100
AcDbEntity
  8
Black
  6
ByLayer
 62
  256
370
   -1
100
AcDbLine
 10
5.23965
 20
54.4275
 11
4.9764
 21
54.8835
  0
LINE
  5
12A
100
AcDbEntity
  8
Black
  6
ByLayer
 62
  256
370
   -1
100
AcDbLine
 10
4.9764
 20
54.8835
 11
4.88497
 21
55.402
  0
LINE
  5
12B
100
AcDbEntity
  8
Black
  6
ByLayer
 62
  256
370
   -1
100
AcDbLine
 10
4.88497
 20
55.402
 11
4.9764
 21
55.9205
  0
LINE
  5
12C
100
AcDbEntity
  8
Black
  6
ByLayer
 62
  256
370
   -1
100
AcDbLine
 10
4.9764
 20
55.9205
 11
5.23965
 21
56.3765
  0
LINE
  5
12D
100
AcDbEntity
  8
Black
  6
ByLayer
 62
  256
370
   -1
100
AcDbLine
 10
5.23965
 20
56.3765
 11
5.64298
 21
56.7149
  0
LINE
  5
12E
100
AcDbEntity
  8
Black
  6
ByLayer
 62
  256
370
   -1
100
AcDbLine
 10
5.64298
 20
56.7149
 11
6.13774
 21
56.895
  0
LINE
  5
12F
100
AcDbEntity
  8
Black
  6
ByLayer
 62
  256
370
   -1
100
AcDbLine
 10
6.13774
 20
56.895
 11
6.66426
 21
56.895
  0
LINE
  5
130
100
AcDbEntity
  8
Black
  6
ByLayer
 62
  256
370
   -1
100
AcDbLine
 10
6.66426
 20
56.895
 11
7.15901
 21
56.7149
  0
LINE
  5
131
100
AcDbEntity
  8
Black
  6
ByLayer
 62
  256
370
   -1
100
AcDbLine
 10
7.15901
 20
56.7149
 11
7.56235
 21
56.3765
  0
LINE
  5
132
100
AcDbEntity
  8
Black
  6
ByLayer
 62
  256
370
   -1
100
AcDbLine
 10
7.56235
 20
56.3765
 11
7.8256
 21
55.9205
  0
LINE
  5
133
100
AcDbEntity
  8
Black
  6
ByLayer
 62
  256
370
   -1
100
AcDbLine
 10
7.8256
 20
55.9205
 11
7.91703
 21
55.402
  0
LINE
  5
134
100
AcDbEntity
  8
Black
  6
ByLayer
 62
  256
370
   -1
100
AcDbLine
 10
7.91703
 20
55.402
 11
7.8256
 21
54.8835
  0
LINE
  5
135
100
AcDbEntity
  8
Black
  6
ByLayer
 62
  256
370
   -1
100
AcDbLine
 10
7.8256
 20
54.8835
 11
7.56235
 21
54.4275
  0
LINE
  5
136
100
AcDbEntity
  8
Black
  6
ByLayer
 62
  256
370
   -1
100
AcDbLine
 10
7.54289
 20
56.3602
 11
7.14631
 21
56.6929
  0
LINE
  5
137
100
AcDbEntity
  8
Black
  6
ByLayer
 62
  256
370
   -1
100
AcDbLine
 10
7.14631
 20
56.6929
 11
6.65984
 21
56.87
  0
LINE
  5
138
100
AcDbEntity
  8
Black
  6
ByLayer
 62
  256
370
   -1
100
AcDbLine
 10
6.65984
 20
56.87
 11
6.14215
 21
56.87
  0
LINE
  5
139
100
AcDbEntity
  8
Black
  6
ByLayer
 62
  256
370
   -1
100
AcDbLine
 10
6.14215
 20
56.87
 11
5.65569
 21
56.6929
  0
LINE
  5
13A
100
AcDbEntity
  8
Black
  6
ByLayer
 62
  256
370
   -1
100
AcDbLine
 10
5.65569
 20
56.6929
 11
5.25911
 21
56.3602
  0
LINE
  5
13B
100
AcDbEntity
  8
Black
  6
ByLayer
 62
  256
370
   -1
100
AcDbLine
 10
5.25911
 20
56.3602
 11
5.00027
 21
55.9118
  0
LINE
  5
13C
100
AcDbEntity
  8
Black
  6
ByLayer
 62
  256
370
   -1
100
AcDbLine
 10
5.00027
 20
55.9118
 11
4.91037
 21
55.402
  0
LINE
  5
13D
100
AcDbEntity
  8
Black
  6
ByLayer
 62
  256
370
   -1
100
AcDbLine
 10
4.91037
 20
55.402
 11
5.00027
 21
54.8922
  0
LINE
  5
13E
100
AcDbEntity
  8
Black
  6
ByLayer
 62
  256
370
   -1
100
AcDbLine
 10
5.00027
 20
54.8922
 11
5.25911
 21
54.4438
  0
LINE
  5
13F
100
AcDbEntity
  8
Black
  6
ByLayer
 62
  256
370
   -1
100
AcDbLine
 10
5.25911
 20
54.4438
 11
5.65569
 21
54.1111
  0
LINE
  5
140
100
AcDbEntity
  8
Black
  6
ByLayer
 62
  256
370
   -1
100
AcDbLine
 10
5.65569
 20
54.1111
 11
6.14215
 21
53.934
  0
LINE
  5
141
100
AcDbEntity
  8
Black
  6
ByLayer
 62
  256
370
   -1
100
AcDbLine
 10
6.14215
 20
53.934
 11
6.65984
 21
53.934
  0
LINE
  5
142
100
AcDbEntity
  8
Black
  6
ByLayer
 62
  256
370
   -1
100
AcDbLine
 10
6.65984
 20
53.934
 11
7.14631
 21
54.1111
  0
LINE
  5
143
100
AcDbEntity
  8
Black
  6
ByLayer
 62
  256
370
   -1
100
AcDbLine
 10
7.14631
 20
54.1111
 11
7.54289
 21
54.4438
  0
LINE
  5
144
100
AcDbEntity
  8
Black
  6
ByLayer
 62
  256
370
   -1
100
AcDbLine
 10
7.54289
 20
54.4438
 11
7.80173
 21
54.8922
  0
LINE
  5
145
100
AcDbEntity
  8
Black
  6
ByLayer
 62
  256
370
   -1
100
AcDbLine
 10
7.80173
 20
54.8922
 11
7.89163
 21
55.402
  0
LINE
  5
146
100
AcDbEntity
  8
Black
  6
ByLayer
 62
  256
370
   -1
100
AcDbLine
 10
7.89163
 20
55.402
 11
7.80173
 21
55.9118
  0
LINE
  5
147
100
AcDbEntity
  8
Black
  6
ByLayer
 62
  256
370
   -1
100
AcDbLine
 10
7.80173
 20
55.9118
 11
7.54289
 21
56.3602
  0
ENDSEC
  0
SECTION
  2
OBJECTS
  0
DICTIONARY
  5
C
330
0
100
AcDbDictionary
281
    1
  3
ACAD_GROUP
350
D
  0
DICTIONARY
  5
D
330
C
100
AcDbDictionary
281
    1
  0
ENDSEC
  0
EOF
