<?xml version="1.0" standalone="no"?>
 <!DOCTYPE svg PUBLIC "-//W3C//DTD SVG 1.1//EN" 
 "http://www.w3.org/Graphics/SVG/1.1/DTD/svg11.dtd"> 
<svg xmlns="http://www.w3.org/2000/svg" version="1.1" 
    width="29.7002cm" height="21.0007cm" viewBox="0 0 116930 82680 ">
<title>SVG Picture created as bargraph-B.SilkS.svg date 2016/05/11 21:38:26 </title>
  <desc>Picture generated by PCBNEW </desc>
<g style="fill:#000000; fill-opacity:1;stroke:#000000; stroke-opacity:1;
stroke-linecap:round; stroke-linejoin:round; "
 transform="translate(0 0) scale(1 1)">
</g>
<g style="fill:#000000; fill-opacity:0.0; 
stroke:#000000; stroke-width:-0.000393701; stroke-opacity:1; 
stroke-linecap:round; stroke-linejoin:round;">
</g>
<g style="fill:#000000; fill-opacity:0.0; 
stroke:#000000; stroke-width:39.3701; stroke-opacity:1; 
stroke-linecap:round; stroke-linejoin:round;">
</g>
<g style="fill:#000000; fill-opacity:0.0; 
stroke:#000000; stroke-width:59.0551; stroke-opacity:1; 
stroke-linecap:round; stroke-linejoin:round;">
<rect x="69685.9" y="65357.2" width="42519.7" height="12598.4" rx="0" />
</g>
<g style="fill:#000000; fill-opacity:0.0; 
stroke:#000000; stroke-width:39.3701; stroke-opacity:1; 
stroke-linecap:round; stroke-linejoin:round;">
</g>
<g style="fill:#000000; fill-opacity:0.0; 
stroke:#000000; stroke-width:59.0551; stroke-opacity:1; 
stroke-linecap:round; stroke-linejoin:round;">
<rect x="3937.01" y="3937.01" width="109056" height="74806" rx="0" />
</g>
<g style="fill:#000000; fill-opacity:0.0; 
stroke:#000000; stroke-width:39.3701; stroke-opacity:1; 
stroke-linecap:round; stroke-linejoin:round;">
</g>
<g style="fill:#000000; fill-opacity:0.0; 
stroke:#000000; stroke-width:59.0551; stroke-opacity:1; 
stroke-linecap:round; stroke-linejoin:round;">
<rect x="4724.41" y="4724.41" width="107481" height="73231.2" rx="0" />
</g>
<g style="fill:#000000; fill-opacity:0.0; 
stroke:#000000; stroke-width:39.3701; stroke-opacity:1; 
stroke-linecap:round; stroke-linejoin:round;">
</g>
<g style="fill:#000000; fill-opacity:0.0; 
stroke:#000000; stroke-width:59.0551; stroke-opacity:1; 
stroke-linecap:round; stroke-linejoin:round;">
<path d="M23622 4724
L23622 3937
" />
</g>
<g style="fill:#000000; fill-opacity:0.0; 
stroke:#000000; stroke-width:39.3701; stroke-opacity:1; 
stroke-linecap:round; stroke-linejoin:round;">
</g>
<g style="fill:#000000; fill-opacity:0.0; 
stroke:#000000; stroke-width:59.0551; stroke-opacity:1; 
stroke-linecap:round; stroke-linejoin:round;">
<path d="M43307 4724
L43307 3937
" />
</g>
<g style="fill:#000000; fill-opacity:0.0; 
stroke:#000000; stroke-width:39.3701; stroke-opacity:1; 
stroke-linecap:round; stroke-linejoin:round;">
</g>
<g style="fill:#000000; fill-opacity:0.0; 
stroke:#000000; stroke-width:59.0551; stroke-opacity:1; 
stroke-linecap:round; stroke-linejoin:round;">
<path d="M62992 4724
L62992 3937
" />
</g>
<g style="fill:#000000; fill-opacity:0.0; 
stroke:#000000; stroke-width:39.3701; stroke-opacity:1; 
stroke-linecap:round; stroke-linejoin:round;">
</g>
<g style="fill:#000000; fill-opacity:0.0; 
stroke:#000000; stroke-width:59.0551; stroke-opacity:1; 
stroke-linecap:round; stroke-linejoin:round;">
<path d="M82677 4724
L82677 3937
" />
</g>
<g style="fill:#000000; fill-opacity:0.0; 
stroke:#000000; stroke-width:39.3701; stroke-opacity:1; 
stroke-linecap:round; stroke-linejoin:round;">
</g>
<g style="fill:#000000; fill-opacity:0.0; 
stroke:#000000; stroke-width:59.0551; stroke-opacity:1; 
stroke-linecap:round; stroke-linejoin:round;">
<path d="M102362 4724
L102362 3937
" />
</g>
<g style="fill:#000000; fill-opacity:0.0; 
stroke:#000000; stroke-width:39.3701; stroke-opacity:1; 
stroke-linecap:round; stroke-linejoin:round;">
</g>
<g style="fill:#000000; fill-opacity:0.0; 
stroke:#000000; stroke-width:59.0551; stroke-opacity:1; 
stroke-linecap:round; stroke-linejoin:round;">
<path d="M14169 4562
L13877 4562
" />
<path d="M14023 4562
L14023 4050
L13974 4123
L13925 4172
L13877 4196
" />
</g>
<g style="fill:#000000; fill-opacity:0.0; 
stroke:#000000; stroke-width:39.3701; stroke-opacity:1; 
stroke-linecap:round; stroke-linejoin:round;">
</g>
<g style="fill:#000000; fill-opacity:0.0; 
stroke:#000000; stroke-width:59.0551; stroke-opacity:1; 
stroke-linecap:round; stroke-linejoin:round;">
<path d="M33562 4099
L33586 4074
L33635 4050
L33757 4050
L33805 4074
L33830 4099
L33854 4147
L33854 4196
L33830 4269
L33537 4562
L33854 4562
" />
</g>
<g style="fill:#000000; fill-opacity:0.0; 
stroke:#000000; stroke-width:39.3701; stroke-opacity:1; 
stroke-linecap:round; stroke-linejoin:round;">
</g>
<g style="fill:#000000; fill-opacity:0.0; 
stroke:#000000; stroke-width:59.0551; stroke-opacity:1; 
stroke-linecap:round; stroke-linejoin:round;">
<path d="M53222 4050
L53539 4050
L53368 4245
L53442 4245
L53490 4269
L53515 4294
L53539 4342
L53539 4464
L53515 4513
L53490 4537
L53442 4562
L53295 4562
L53247 4537
L53222 4513
" />
</g>
<g style="fill:#000000; fill-opacity:0.0; 
stroke:#000000; stroke-width:39.3701; stroke-opacity:1; 
stroke-linecap:round; stroke-linejoin:round;">
</g>
<g style="fill:#000000; fill-opacity:0.0; 
stroke:#000000; stroke-width:59.0551; stroke-opacity:1; 
stroke-linecap:round; stroke-linejoin:round;">
<path d="M73175 4221
L73175 4562
" />
<path d="M73053 4026
L72932 4391
L73248 4391
" />
</g>
<g style="fill:#000000; fill-opacity:0.0; 
stroke:#000000; stroke-width:39.3701; stroke-opacity:1; 
stroke-linecap:round; stroke-linejoin:round;">
</g>
<g style="fill:#000000; fill-opacity:0.0; 
stroke:#000000; stroke-width:59.0551; stroke-opacity:1; 
stroke-linecap:round; stroke-linejoin:round;">
<path d="M92885 4050
L92641 4050
L92617 4294
L92641 4269
L92690 4245
L92812 4245
L92860 4269
L92885 4294
L92909 4342
L92909 4464
L92885 4513
L92860 4537
L92812 4562
L92690 4562
L92641 4537
L92617 4513
" />
</g>
<g style="fill:#000000; fill-opacity:0.0; 
stroke:#000000; stroke-width:39.3701; stroke-opacity:1; 
stroke-linecap:round; stroke-linejoin:round;">
</g>
<g style="fill:#000000; fill-opacity:0.0; 
stroke:#000000; stroke-width:59.0551; stroke-opacity:1; 
stroke-linecap:round; stroke-linejoin:round;">
<path d="M112545 4050
L112448 4050
L112399 4074
L112375 4099
L112326 4172
L112302 4269
L112302 4464
L112326 4513
L112350 4537
L112399 4562
L112497 4562
L112545 4537
L112570 4513
L112594 4464
L112594 4342
L112570 4294
L112545 4269
L112497 4245
L112399 4245
L112350 4269
L112326 4294
L112302 4342
" />
</g>
<g style="fill:#000000; fill-opacity:0.0; 
stroke:#000000; stroke-width:39.3701; stroke-opacity:1; 
stroke-linecap:round; stroke-linejoin:round;">
</g>
<g style="fill:#000000; fill-opacity:0.0; 
stroke:#000000; stroke-width:59.0551; stroke-opacity:1; 
stroke-linecap:round; stroke-linejoin:round;">
<path d="M23622 77955
L23622 78742
" />
</g>
<g style="fill:#000000; fill-opacity:0.0; 
stroke:#000000; stroke-width:39.3701; stroke-opacity:1; 
stroke-linecap:round; stroke-linejoin:round;">
</g>
<g style="fill:#000000; fill-opacity:0.0; 
stroke:#000000; stroke-width:59.0551; stroke-opacity:1; 
stroke-linecap:round; stroke-linejoin:round;">
<path d="M43307 77955
L43307 78742
" />
</g>
<g style="fill:#000000; fill-opacity:0.0; 
stroke:#000000; stroke-width:39.3701; stroke-opacity:1; 
stroke-linecap:round; stroke-linejoin:round;">
</g>
<g style="fill:#000000; fill-opacity:0.0; 
stroke:#000000; stroke-width:59.0551; stroke-opacity:1; 
stroke-linecap:round; stroke-linejoin:round;">
<path d="M62992 77955
L62992 78742
" />
</g>
<g style="fill:#000000; fill-opacity:0.0; 
stroke:#000000; stroke-width:39.3701; stroke-opacity:1; 
stroke-linecap:round; stroke-linejoin:round;">
</g>
<g style="fill:#000000; fill-opacity:0.0; 
stroke:#000000; stroke-width:59.0551; stroke-opacity:1; 
stroke-linecap:round; stroke-linejoin:round;">
<path d="M82677 77955
L82677 78742
" />
</g>
<g style="fill:#000000; fill-opacity:0.0; 
stroke:#000000; stroke-width:39.3701; stroke-opacity:1; 
stroke-linecap:round; stroke-linejoin:round;">
</g>
<g style="fill:#000000; fill-opacity:0.0; 
stroke:#000000; stroke-width:59.0551; stroke-opacity:1; 
stroke-linecap:round; stroke-linejoin:round;">
<path d="M102362 77955
L102362 78742
" />
</g>
<g style="fill:#000000; fill-opacity:0.0; 
stroke:#000000; stroke-width:39.3701; stroke-opacity:1; 
stroke-linecap:round; stroke-linejoin:round;">
</g>
<g style="fill:#000000; fill-opacity:0.0; 
stroke:#000000; stroke-width:59.0551; stroke-opacity:1; 
stroke-linecap:round; stroke-linejoin:round;">
<path d="M14169 78580
L13877 78580
" />
<path d="M14023 78580
L14023 78069
L13974 78142
L13925 78190
L13877 78215
" />
</g>
<g style="fill:#000000; fill-opacity:0.0; 
stroke:#000000; stroke-width:39.3701; stroke-opacity:1; 
stroke-linecap:round; stroke-linejoin:round;">
</g>
<g style="fill:#000000; fill-opacity:0.0; 
stroke:#000000; stroke-width:59.0551; stroke-opacity:1; 
stroke-linecap:round; stroke-linejoin:round;">
<path d="M33562 78117
L33586 78093
L33635 78069
L33757 78069
L33805 78093
L33830 78117
L33854 78166
L33854 78215
L33830 78288
L33537 78580
L33854 78580
" />
</g>
<g style="fill:#000000; fill-opacity:0.0; 
stroke:#000000; stroke-width:39.3701; stroke-opacity:1; 
stroke-linecap:round; stroke-linejoin:round;">
</g>
<g style="fill:#000000; fill-opacity:0.0; 
stroke:#000000; stroke-width:59.0551; stroke-opacity:1; 
stroke-linecap:round; stroke-linejoin:round;">
<path d="M53222 78069
L53539 78069
L53368 78263
L53442 78263
L53490 78288
L53515 78312
L53539 78361
L53539 78483
L53515 78532
L53490 78556
L53442 78580
L53295 78580
L53247 78556
L53222 78532
" />
</g>
<g style="fill:#000000; fill-opacity:0.0; 
stroke:#000000; stroke-width:39.3701; stroke-opacity:1; 
stroke-linecap:round; stroke-linejoin:round;">
</g>
<g style="fill:#000000; fill-opacity:0.0; 
stroke:#000000; stroke-width:59.0551; stroke-opacity:1; 
stroke-linecap:round; stroke-linejoin:round;">
<path d="M73175 78239
L73175 78580
" />
<path d="M73053 78044
L72932 78410
L73248 78410
" />
</g>
<g style="fill:#000000; fill-opacity:0.0; 
stroke:#000000; stroke-width:39.3701; stroke-opacity:1; 
stroke-linecap:round; stroke-linejoin:round;">
</g>
<g style="fill:#000000; fill-opacity:0.0; 
stroke:#000000; stroke-width:59.0551; stroke-opacity:1; 
stroke-linecap:round; stroke-linejoin:round;">
<path d="M92885 78069
L92641 78069
L92617 78312
L92641 78288
L92690 78263
L92812 78263
L92860 78288
L92885 78312
L92909 78361
L92909 78483
L92885 78532
L92860 78556
L92812 78580
L92690 78580
L92641 78556
L92617 78532
" />
</g>
<g style="fill:#000000; fill-opacity:0.0; 
stroke:#000000; stroke-width:39.3701; stroke-opacity:1; 
stroke-linecap:round; stroke-linejoin:round;">
</g>
<g style="fill:#000000; fill-opacity:0.0; 
stroke:#000000; stroke-width:59.0551; stroke-opacity:1; 
stroke-linecap:round; stroke-linejoin:round;">
<path d="M112545 78069
L112448 78069
L112399 78093
L112375 78117
L112326 78190
L112302 78288
L112302 78483
L112326 78532
L112350 78556
L112399 78580
L112497 78580
L112545 78556
L112570 78532
L112594 78483
L112594 78361
L112570 78312
L112545 78288
L112497 78263
L112399 78263
L112350 78288
L112326 78312
L112302 78361
" />
</g>
<g style="fill:#000000; fill-opacity:0.0; 
stroke:#000000; stroke-width:39.3701; stroke-opacity:1; 
stroke-linecap:round; stroke-linejoin:round;">
</g>
<g style="fill:#000000; fill-opacity:0.0; 
stroke:#000000; stroke-width:59.0551; stroke-opacity:1; 
stroke-linecap:round; stroke-linejoin:round;">
<path d="M3937 23622
L4724 23622
" />
</g>
<g style="fill:#000000; fill-opacity:0.0; 
stroke:#000000; stroke-width:39.3701; stroke-opacity:1; 
stroke-linecap:round; stroke-linejoin:round;">
</g>
<g style="fill:#000000; fill-opacity:0.0; 
stroke:#000000; stroke-width:59.0551; stroke-opacity:1; 
stroke-linecap:round; stroke-linejoin:round;">
<path d="M3937 43307
L4724 43307
" />
</g>
<g style="fill:#000000; fill-opacity:0.0; 
stroke:#000000; stroke-width:39.3701; stroke-opacity:1; 
stroke-linecap:round; stroke-linejoin:round;">
</g>
<g style="fill:#000000; fill-opacity:0.0; 
stroke:#000000; stroke-width:59.0551; stroke-opacity:1; 
stroke-linecap:round; stroke-linejoin:round;">
<path d="M3937 62992
L4724 62992
" />
</g>
<g style="fill:#000000; fill-opacity:0.0; 
stroke:#000000; stroke-width:39.3701; stroke-opacity:1; 
stroke-linecap:round; stroke-linejoin:round;">
</g>
<g style="fill:#000000; fill-opacity:0.0; 
stroke:#000000; stroke-width:59.0551; stroke-opacity:1; 
stroke-linecap:round; stroke-linejoin:round;">
<path d="M4179 13864
L4423 13864
" />
<path d="M4130 14011
L4301 13499
L4471 14011
" />
</g>
<g style="fill:#000000; fill-opacity:0.0; 
stroke:#000000; stroke-width:39.3701; stroke-opacity:1; 
stroke-linecap:round; stroke-linejoin:round;">
</g>
<g style="fill:#000000; fill-opacity:0.0; 
stroke:#000000; stroke-width:59.0551; stroke-opacity:1; 
stroke-linecap:round; stroke-linejoin:round;">
<path d="M4337 33428
L4410 33452
L4435 33476
L4459 33525
L4459 33598
L4435 33647
L4410 33671
L4362 33696
L4167 33696
L4167 33184
L4337 33184
L4386 33208
L4410 33233
L4435 33281
L4435 33330
L4410 33379
L4386 33403
L4337 33428
L4167 33428
" />
</g>
<g style="fill:#000000; fill-opacity:0.0; 
stroke:#000000; stroke-width:39.3701; stroke-opacity:1; 
stroke-linecap:round; stroke-linejoin:round;">
</g>
<g style="fill:#000000; fill-opacity:0.0; 
stroke:#000000; stroke-width:59.0551; stroke-opacity:1; 
stroke-linecap:round; stroke-linejoin:round;">
<path d="M4459 53332
L4435 53356
L4362 53381
L4313 53381
L4240 53356
L4191 53308
L4167 53259
L4142 53161
L4142 53088
L4167 52991
L4191 52942
L4240 52893
L4313 52869
L4362 52869
L4435 52893
L4459 52918
" />
</g>
<g style="fill:#000000; fill-opacity:0.0; 
stroke:#000000; stroke-width:39.3701; stroke-opacity:1; 
stroke-linecap:round; stroke-linejoin:round;">
</g>
<g style="fill:#000000; fill-opacity:0.0; 
stroke:#000000; stroke-width:59.0551; stroke-opacity:1; 
stroke-linecap:round; stroke-linejoin:round;">
<path d="M4167 73066
L4167 72554
L4288 72554
L4362 72578
L4410 72627
L4435 72676
L4459 72773
L4459 72846
L4435 72944
L4410 72993
L4362 73041
L4288 73066
L4167 73066
" />
</g>
<g style="fill:#000000; fill-opacity:0.0; 
stroke:#000000; stroke-width:39.3701; stroke-opacity:1; 
stroke-linecap:round; stroke-linejoin:round;">
</g>
<g style="fill:#000000; fill-opacity:0.0; 
stroke:#000000; stroke-width:59.0551; stroke-opacity:1; 
stroke-linecap:round; stroke-linejoin:round;">
<path d="M112992 23622
L112205 23622
" />
</g>
<g style="fill:#000000; fill-opacity:0.0; 
stroke:#000000; stroke-width:39.3701; stroke-opacity:1; 
stroke-linecap:round; stroke-linejoin:round;">
</g>
<g style="fill:#000000; fill-opacity:0.0; 
stroke:#000000; stroke-width:59.0551; stroke-opacity:1; 
stroke-linecap:round; stroke-linejoin:round;">
<path d="M112992 43307
L112205 43307
" />
</g>
<g style="fill:#000000; fill-opacity:0.0; 
stroke:#000000; stroke-width:39.3701; stroke-opacity:1; 
stroke-linecap:round; stroke-linejoin:round;">
</g>
<g style="fill:#000000; fill-opacity:0.0; 
stroke:#000000; stroke-width:59.0551; stroke-opacity:1; 
stroke-linecap:round; stroke-linejoin:round;">
<path d="M112992 62992
L112205 62992
" />
</g>
<g style="fill:#000000; fill-opacity:0.0; 
stroke:#000000; stroke-width:39.3701; stroke-opacity:1; 
stroke-linecap:round; stroke-linejoin:round;">
</g>
<g style="fill:#000000; fill-opacity:0.0; 
stroke:#000000; stroke-width:59.0551; stroke-opacity:1; 
stroke-linecap:round; stroke-linejoin:round;">
<path d="M112447 13864
L112691 13864
" />
<path d="M112399 14011
L112569 13499
L112740 14011
" />
</g>
<g style="fill:#000000; fill-opacity:0.0; 
stroke:#000000; stroke-width:39.3701; stroke-opacity:1; 
stroke-linecap:round; stroke-linejoin:round;">
</g>
<g style="fill:#000000; fill-opacity:0.0; 
stroke:#000000; stroke-width:59.0551; stroke-opacity:1; 
stroke-linecap:round; stroke-linejoin:round;">
<path d="M112606 33428
L112679 33452
L112703 33476
L112728 33525
L112728 33598
L112703 33647
L112679 33671
L112630 33696
L112435 33696
L112435 33184
L112606 33184
L112655 33208
L112679 33233
L112703 33281
L112703 33330
L112679 33379
L112655 33403
L112606 33428
L112435 33428
" />
</g>
<g style="fill:#000000; fill-opacity:0.0; 
stroke:#000000; stroke-width:39.3701; stroke-opacity:1; 
stroke-linecap:round; stroke-linejoin:round;">
</g>
<g style="fill:#000000; fill-opacity:0.0; 
stroke:#000000; stroke-width:59.0551; stroke-opacity:1; 
stroke-linecap:round; stroke-linejoin:round;">
<path d="M112728 53332
L112703 53356
L112630 53381
L112581 53381
L112508 53356
L112460 53308
L112435 53259
L112411 53161
L112411 53088
L112435 52991
L112460 52942
L112508 52893
L112581 52869
L112630 52869
L112703 52893
L112728 52918
" />
</g>
<g style="fill:#000000; fill-opacity:0.0; 
stroke:#000000; stroke-width:39.3701; stroke-opacity:1; 
stroke-linecap:round; stroke-linejoin:round;">
</g>
<g style="fill:#000000; fill-opacity:0.0; 
stroke:#000000; stroke-width:59.0551; stroke-opacity:1; 
stroke-linecap:round; stroke-linejoin:round;">
<path d="M112435 73066
L112435 72554
L112557 72554
L112630 72578
L112679 72627
L112703 72676
L112728 72773
L112728 72846
L112703 72944
L112679 72993
L112630 73041
L112557 73066
L112435 73066
" />
</g>
<g style="fill:#000000; fill-opacity:0.0; 
stroke:#000000; stroke-width:39.3701; stroke-opacity:1; 
stroke-linecap:round; stroke-linejoin:round;">
</g>
<g style="fill:#000000; fill-opacity:0.0; 
stroke:#000000; stroke-width:59.0551; stroke-opacity:1; 
stroke-linecap:round; stroke-linejoin:round;">
<path d="M78881 76293
L78881 75703
L79022 75703
L79106 75731
L79162 75787
L79190 75843
L79219 75956
L79219 76040
L79190 76153
L79162 76209
L79106 76265
L79022 76293
L78881 76293
" />
<path d="M79725 76293
L79725 75984
L79697 75928
L79640 75899
L79528 75899
L79472 75928
" />
<path d="M79725 76265
L79669 76293
L79528 76293
L79472 76265
L79444 76209
L79444 76153
L79472 76096
L79528 76068
L79669 76068
L79725 76040
" />
<path d="M79922 75899
L80147 75899
" />
<path d="M80006 75703
L80006 76209
L80034 76265
L80090 76293
L80147 76293
" />
<path d="M80568 76265
L80512 76293
L80400 76293
L80343 76265
L80315 76209
L80315 75984
L80343 75928
L80400 75899
L80512 75899
L80568 75928
L80597 75984
L80597 76040
L80315 76096
" />
<path d="M80850 76237
L80878 76265
L80850 76293
L80822 76265
L80850 76237
L80850 76293
" />
<path d="M80850 75928
L80878 75956
L80850 75984
L80822 75956
L80850 75928
L80850 75984
" />
</g>
<g style="fill:#000000; fill-opacity:0.0; 
stroke:#000000; stroke-width:39.3701; stroke-opacity:1; 
stroke-linecap:round; stroke-linejoin:round;">
</g>
<g style="fill:#000000; fill-opacity:0.0; 
stroke:#000000; stroke-width:59.0551; stroke-opacity:1; 
stroke-linecap:round; stroke-linejoin:round;">
<path d="M69685 76577
L112205 76577
" />
</g>
<g style="fill:#000000; fill-opacity:0.0; 
stroke:#000000; stroke-width:39.3701; stroke-opacity:1; 
stroke-linecap:round; stroke-linejoin:round;">
</g>
<g style="fill:#000000; fill-opacity:0.0; 
stroke:#000000; stroke-width:59.0551; stroke-opacity:1; 
stroke-linecap:round; stroke-linejoin:round;">
<path d="M70220 77395
L70220 76805
" />
<path d="M70557 77395
L70304 77058
" />
<path d="M70557 76805
L70220 77142
" />
<path d="M70810 77395
L70810 77002
" />
<path d="M70810 76805
L70782 76833
L70810 76861
L70838 76833
L70810 76805
L70810 76861
" />
<path d="M71429 77339
L71401 77367
L71316 77395
L71260 77395
L71176 77367
L71120 77311
L71091 77255
L71063 77142
L71063 77058
L71091 76946
L71120 76889
L71176 76833
L71260 76805
L71316 76805
L71401 76833
L71429 76861
" />
<path d="M71935 77395
L71935 77086
L71907 77030
L71851 77002
L71738 77002
L71682 77030
" />
<path d="M71935 77367
L71879 77395
L71738 77395
L71682 77367
L71654 77311
L71654 77255
L71682 77199
L71738 77171
L71879 77171
L71935 77142
" />
<path d="M72469 77395
L72469 76805
" />
<path d="M72469 77367
L72413 77395
L72301 77395
L72244 77367
L72216 77339
L72188 77283
L72188 77114
L72216 77058
L72244 77030
L72301 77002
L72413 77002
L72469 77030
" />
<path d="M73201 77086
L73397 77086
" />
<path d="M73482 77395
L73201 77395
L73201 76805
L73482 76805
" />
<path d="M73735 77339
L73763 77367
L73735 77395
L73707 77367
L73735 77339
L73735 77395
" />
<path d="M74016 77395
L74016 76805
L74157 76805
L74241 76833
L74297 76889
L74325 76946
L74354 77058
L74354 77142
L74325 77255
L74297 77311
L74241 77367
L74157 77395
L74016 77395
" />
<path d="M74607 77339
L74635 77367
L74607 77395
L74579 77367
L74607 77339
L74607 77395
" />
<path d="M74860 77227
L75141 77227
" />
<path d="M74804 77395
L75000 76805
L75197 77395
" />
<path d="M75394 77339
L75422 77367
L75394 77395
L75366 77367
L75394 77339
L75394 77395
" />
<path d="M76575 77395
L76575 76805
" />
<path d="M76631 77171
L76800 77395
" />
<path d="M76800 77002
L76575 77227
" />
<path d="M77053 77395
L77053 77002
" />
<path d="M77053 76805
L77025 76833
L77053 76861
L77081 76833
L77053 76805
L77053 76861
" />
<path d="M77588 77367
L77531 77395
L77419 77395
L77363 77367
L77334 77339
L77306 77283
L77306 77114
L77334 77058
L77363 77030
L77419 77002
L77531 77002
L77588 77030
" />
<path d="M78094 77395
L78094 77086
L78066 77030
L78009 77002
L77897 77002
L77841 77030
" />
<path d="M78094 77367
L78037 77395
L77897 77395
L77841 77367
L77813 77311
L77813 77255
L77841 77199
L77897 77171
L78037 77171
L78094 77142
" />
<path d="M78628 77395
L78628 76805
" />
<path d="M78628 77367
L78572 77395
L78459 77395
L78403 77367
L78375 77339
L78347 77283
L78347 77114
L78375 77058
L78403 77030
L78459 77002
L78572 77002
L78628 77030
" />
<path d="M79528 77620
L79500 77592
L79444 77508
L79415 77452
L79387 77367
L79359 77227
L79359 77114
L79387 76974
L79415 76889
L79444 76833
L79500 76749
L79528 76721
" />
<path d="M79725 76861
L79753 76833
L79809 76805
L79950 76805
L80006 76833
L80034 76861
L80062 76917
L80062 76974
L80034 77058
L79697 77395
L80062 77395
" />
<path d="M80428 76805
L80484 76805
L80540 76833
L80568 76861
L80597 76917
L80625 77030
L80625 77171
L80597 77283
L80568 77339
L80540 77367
L80484 77395
L80428 77395
L80372 77367
L80343 77339
L80315 77283
L80287 77171
L80287 77030
L80315 76917
L80343 76861
L80372 76833
L80428 76805
" />
<path d="M81187 77395
L80850 77395
" />
<path d="M81018 77395
L81018 76805
L80962 76889
L80906 76946
L80850 76974
" />
<path d="M81693 76805
L81581 76805
L81525 76833
L81496 76861
L81440 76946
L81412 77058
L81412 77283
L81440 77339
L81468 77367
L81525 77395
L81637 77395
L81693 77367
L81721 77339
L81750 77283
L81750 77142
L81721 77086
L81693 77058
L81637 77030
L81525 77030
L81468 77058
L81440 77086
L81412 77142
" />
<path d="M82003 77171
L82453 77171
" />
<path d="M82846 76805
L82903 76805
L82959 76833
L82987 76861
L83015 76917
L83043 77030
L83043 77171
L83015 77283
L82987 77339
L82959 77367
L82903 77395
L82846 77395
L82790 77367
L82762 77339
L82734 77283
L82706 77171
L82706 77030
L82734 76917
L82762 76861
L82790 76833
L82846 76805
" />
<path d="M83549 77002
L83549 77395
" />
<path d="M83409 76777
L83268 77199
L83634 77199
" />
<path d="M83859 77171
L84309 77171
" />
<path d="M84899 77395
L84562 77395
" />
<path d="M84730 77395
L84730 76805
L84674 76889
L84618 76946
L84562 76974
" />
<path d="M85096 76805
L85490 76805
L85237 77395
" />
<path d="M86361 77086
L86446 77114
L86474 77142
L86502 77199
L86502 77283
L86474 77339
L86446 77367
L86390 77395
L86165 77395
L86165 76805
L86361 76805
L86418 76833
L86446 76861
L86474 76917
L86474 76974
L86446 77030
L86418 77058
L86361 77086
L86165 77086
" />
<path d="M86699 76805
L87093 76805
L86699 77395
L87093 77395
" />
<path d="M87655 77395
L87458 77114
" />
<path d="M87318 77395
L87318 76805
L87543 76805
L87599 76833
L87627 76861
L87655 76917
L87655 77002
L87627 77058
L87599 77086
L87543 77114
L87318 77114
" />
<path d="M88611 76805
L88499 76805
L88442 76833
L88414 76861
L88358 76946
L88330 77058
L88330 77283
L88358 77339
L88386 77367
L88442 77395
L88555 77395
L88611 77367
L88639 77339
L88667 77283
L88667 77142
L88639 77086
L88611 77058
L88555 77030
L88442 77030
L88386 77058
L88358 77086
L88330 77142
" />
<path d="M89174 76805
L89061 76805
L89005 76833
L88977 76861
L88921 76946
L88892 77058
L88892 77283
L88921 77339
L88949 77367
L89005 77395
L89117 77395
L89174 77367
L89202 77339
L89230 77283
L89230 77142
L89202 77086
L89174 77058
L89117 77030
L89005 77030
L88949 77058
L88921 77086
L88892 77142
" />
<path d="M89511 77395
L89624 77395
L89680 77367
L89708 77339
L89764 77255
L89792 77142
L89792 76917
L89764 76861
L89736 76833
L89680 76805
L89567 76805
L89511 76833
L89483 76861
L89455 76917
L89455 77058
L89483 77114
L89511 77142
L89567 77171
L89680 77171
L89736 77142
L89764 77114
L89792 77058
" />
<path d="M89989 76805
L90383 76805
L90130 77395
" />
<path d="M90636 77367
L90636 77395
L90608 77452
L90580 77480
" />
<path d="M91648 76833
L91592 76805
L91508 76805
L91423 76833
L91367 76889
L91339 76946
L91311 77058
L91311 77142
L91339 77255
L91367 77311
L91423 77367
L91508 77395
L91564 77395
L91648 77367
L91676 77339
L91676 77142
L91564 77142
" />
<path d="M91929 77395
L91929 77002
" />
<path d="M91929 76805
L91901 76833
L91929 76861
L91958 76833
L91929 76805
L91929 76861
" />
<path d="M92126 77002
L92351 77002
" />
<path d="M92211 76805
L92211 77311
L92239 77367
L92295 77395
L92351 77395
" />
<path d="M93251 76805
L93139 76805
L93082 76833
L93054 76861
L92998 76946
L92970 77058
L92970 77283
L92998 77339
L93026 77367
L93082 77395
L93195 77395
L93251 77367
L93279 77339
L93307 77283
L93307 77142
L93279 77086
L93251 77058
L93195 77030
L93082 77030
L93026 77058
L92998 77086
L92970 77142
" />
<path d="M93870 77395
L93532 77395
" />
<path d="M93701 77395
L93701 76805
L93645 76889
L93589 76946
L93532 76974
" />
<path d="M94095 76861
L94123 76833
L94179 76805
L94320 76805
L94376 76833
L94404 76861
L94432 76917
L94432 76974
L94404 77058
L94067 77395
L94432 77395
" />
<path d="M94798 76805
L94854 76805
L94910 76833
L94938 76861
L94967 76917
L94995 77030
L94995 77171
L94967 77283
L94938 77339
L94910 77367
L94854 77395
L94798 77395
L94742 77367
L94714 77339
L94685 77283
L94657 77171
L94657 77030
L94685 76917
L94714 76861
L94742 76833
L94798 76805
" />
<path d="M95501 77002
L95501 77395
" />
<path d="M95360 76777
L95220 77199
L95585 77199
" />
<path d="M95754 76805
L96148 76805
L95895 77395
" />
<path d="M96345 76861
L96373 76833
L96429 76805
L96570 76805
L96626 76833
L96654 76861
L96682 76917
L96682 76974
L96654 77058
L96316 77395
L96682 77395
" />
<path d="M96879 77620
L96907 77592
L96963 77508
L96991 77452
L97019 77367
L97048 77227
L97048 77114
L97019 76974
L96991 76889
L96963 76833
L96907 76749
L96879 76721
" />
<path d="M97329 77171
L97779 77171
" />
<path d="M98060 77002
L98060 77592
" />
<path d="M98060 77030
L98116 77002
L98229 77002
L98285 77030
L98313 77058
L98341 77114
L98341 77283
L98313 77339
L98285 77367
L98229 77395
L98116 77395
L98060 77367
" />
<path d="M98594 77395
L98594 77002
" />
<path d="M98594 77114
L98622 77058
L98651 77030
L98707 77002
L98763 77002
" />
<path d="M99044 77395
L98988 77367
L98960 77339
L98932 77283
L98932 77114
L98960 77058
L98988 77030
L99044 77002
L99129 77002
L99185 77030
L99213 77058
L99241 77114
L99241 77283
L99213 77339
L99185 77367
L99129 77395
L99044 77395
" />
<path d="M99747 77395
L99747 76805
" />
<path d="M99747 77367
L99691 77395
L99579 77395
L99522 77367
L99494 77339
L99466 77283
L99466 77114
L99494 77058
L99522 77030
L99579 77002
L99691 77002
L99747 77030
" />
<path d="M100282 77002
L100282 77395
" />
<path d="M100028 77002
L100028 77311
L100057 77367
L100113 77395
L100197 77395
L100253 77367
L100282 77339
" />
<path d="M100816 77367
L100760 77395
L100647 77395
L100591 77367
L100563 77339
L100535 77283
L100535 77114
L100563 77058
L100591 77030
L100647 77002
L100760 77002
L100816 77030
" />
<path d="M100985 77002
L101210 77002
" />
<path d="M101069 76805
L101069 77311
L101097 77367
L101153 77395
L101210 77395
" />
</g>
<g style="fill:#000000; fill-opacity:0.0; 
stroke:#000000; stroke-width:39.3701; stroke-opacity:1; 
stroke-linecap:round; stroke-linejoin:round;">
</g>
<g style="fill:#000000; fill-opacity:0.0; 
stroke:#000000; stroke-width:59.0551; stroke-opacity:1; 
stroke-linecap:round; stroke-linejoin:round;">
<path d="M69685 75396
L112205 75396
" />
</g>
<g style="fill:#000000; fill-opacity:0.0; 
stroke:#000000; stroke-width:39.3701; stroke-opacity:1; 
stroke-linecap:round; stroke-linejoin:round;">
</g>
<g style="fill:#000000; fill-opacity:0.0; 
stroke:#000000; stroke-width:118.11; stroke-opacity:1; 
stroke-linecap:round; stroke-linejoin:round;">
<path d="M104022 76293
L103825 76012
" />
<path d="M103684 76293
L103684 75703
L103909 75703
L103965 75731
L103994 75759
L104022 75815
L104022 75899
L103994 75956
L103965 75984
L103909 76012
L103684 76012
" />
<path d="M104500 76265
L104444 76293
L104331 76293
L104275 76265
L104247 76209
L104247 75984
L104275 75928
L104331 75899
L104444 75899
L104500 75928
L104528 75984
L104528 76040
L104247 76096
" />
<path d="M104725 75899
L104865 76293
L105006 75899
" />
<path d="M105231 76237
L105259 76265
L105231 76293
L105203 76265
L105231 76237
L105231 76293
" />
<path d="M105231 75928
L105259 75956
L105231 75984
L105203 75956
L105231 75928
L105231 75984
" />
</g>
<g style="fill:#000000; fill-opacity:0.0; 
stroke:#000000; stroke-width:39.3701; stroke-opacity:1; 
stroke-linecap:round; stroke-linejoin:round;">
</g>
<g style="fill:#000000; fill-opacity:0.0; 
stroke:#000000; stroke-width:59.0551; stroke-opacity:1; 
stroke-linecap:round; stroke-linejoin:round;">
<path d="M70192 76265
L70276 76293
L70417 76293
L70473 76265
L70501 76237
L70529 76181
L70529 76124
L70501 76068
L70473 76040
L70417 76012
L70304 75984
L70248 75956
L70220 75928
L70192 75871
L70192 75815
L70220 75759
L70248 75731
L70304 75703
L70445 75703
L70529 75731
" />
<path d="M70782 76293
L70782 75899
" />
<path d="M70782 75703
L70754 75731
L70782 75759
L70810 75731
L70782 75703
L70782 75759
" />
<path d="M71007 75899
L71316 75899
L71007 76293
L71316 76293
" />
<path d="M71766 76265
L71710 76293
L71598 76293
L71541 76265
L71513 76209
L71513 75984
L71541 75928
L71598 75899
L71710 75899
L71766 75928
L71795 75984
L71795 76040
L71513 76096
" />
<path d="M72048 76237
L72076 76265
L72048 76293
L72019 76265
L72048 76237
L72048 76293
" />
<path d="M72048 75928
L72076 75956
L72048 75984
L72019 75956
L72048 75928
L72048 75984
" />
<path d="M72751 76124
L73032 76124
" />
<path d="M72694 76293
L72891 75703
L73088 76293
" />
<path d="M73538 75899
L73538 76293
" />
<path d="M73397 75674
L73257 76096
L73622 76096
" />
</g>
<g style="fill:#000000; fill-opacity:0.0; 
stroke:#000000; stroke-width:39.3701; stroke-opacity:1; 
stroke-linecap:round; stroke-linejoin:round;">
</g>
<g style="fill:#000000; fill-opacity:0.0; 
stroke:#000000; stroke-width:59.0551; stroke-opacity:1; 
stroke-linecap:round; stroke-linejoin:round;">
<path d="M103684 77395
L103684 76805
" />
<path d="M104219 77395
L104219 76805
" />
<path d="M104219 77367
L104162 77395
L104050 77395
L103994 77367
L103965 77339
L103937 77283
L103937 77114
L103965 77058
L103994 77030
L104050 77002
L104162 77002
L104219 77030
" />
<path d="M104500 77339
L104528 77367
L104500 77395
L104472 77367
L104500 77339
L104500 77395
" />
<path d="M104500 77030
L104528 77058
L104500 77086
L104472 77058
L104500 77030
L104500 77086
" />
<path d="M105540 77395
L105203 77395
" />
<path d="M105372 77395
L105372 76805
L105315 76889
L105259 76946
L105203 76974
" />
<path d="M106215 76777
L105709 77536
" />
<path d="M106721 77395
L106384 77395
" />
<path d="M106553 77395
L106553 76805
L106496 76889
L106440 76946
L106384 76974
" />
</g>
<g style="fill:#000000; fill-opacity:0.0; 
stroke:#000000; stroke-width:39.3701; stroke-opacity:1; 
stroke-linecap:round; stroke-linejoin:round;">
</g>
<g style="fill:#000000; fill-opacity:0.0; 
stroke:#000000; stroke-width:59.0551; stroke-opacity:1; 
stroke-linecap:round; stroke-linejoin:round;">
<path d="M69685 73821
L112205 73821
" />
</g>
<g style="fill:#000000; fill-opacity:0.0; 
stroke:#000000; stroke-width:39.3701; stroke-opacity:1; 
stroke-linecap:round; stroke-linejoin:round;">
</g>
<g style="fill:#000000; fill-opacity:0.0; 
stroke:#000000; stroke-width:157.48; stroke-opacity:1; 
stroke-linecap:round; stroke-linejoin:round;">
<path d="M70257 74099
L70707 74099
" />
<path d="M70384 74886
L70482 74099
" />
<path d="M70871 74886
L70937 74361
" />
<path d="M70970 74099
L70927 74136
L70960 74174
L71002 74136
L70970 74099
L70960 74174
" />
<path d="M71199 74361
L71499 74361
" />
<path d="M71345 74099
L71260 74774
L71288 74849
L71359 74886
L71434 74886
" />
<path d="M71809 74886
L71738 74849
L71710 74774
L71795 74099
" />
<path d="M72413 74849
L72334 74886
L72184 74886
L72113 74849
L72085 74774
L72123 74474
L72169 74399
L72249 74361
L72399 74361
L72469 74399
L72498 74474
L72488 74549
L72104 74624
" />
<path d="M72793 74811
L72826 74849
L72783 74886
L72751 74849
L72793 74811
L72783 74886
" />
<path d="M72844 74399
L72877 74436
L72835 74474
L72802 74436
L72844 74399
L72835 74474
" />
</g>
<g style="fill:#000000; fill-opacity:0.0; 
stroke:#000000; stroke-width:39.3701; stroke-opacity:1; 
stroke-linecap:round; stroke-linejoin:round;">
</g>
<g style="fill:#000000; fill-opacity:0.0; 
stroke:#000000; stroke-width:59.0551; stroke-opacity:1; 
stroke-linecap:round; stroke-linejoin:round;">
<path d="M70417 73070
L70220 73070
" />
<path d="M70220 73380
L70220 72789
L70501 72789
" />
<path d="M70726 73380
L70726 72986
" />
<path d="M70726 72789
L70698 72817
L70726 72845
L70754 72817
L70726 72789
L70726 72845
" />
<path d="M71091 73380
L71035 73352
L71007 73295
L71007 72789
" />
<path d="M71541 73352
L71485 73380
L71373 73380
L71316 73352
L71288 73295
L71288 73070
L71316 73014
L71373 72986
L71485 72986
L71541 73014
L71570 73070
L71570 73127
L71288 73183
" />
<path d="M71823 73323
L71851 73352
L71823 73380
L71795 73352
L71823 73323
L71823 73380
" />
<path d="M71823 73014
L71851 73042
L71823 73070
L71795 73042
L71823 73014
L71823 73070
" />
<path d="M72554 73380
L72554 72789
" />
<path d="M72554 73014
L72610 72986
L72723 72986
L72779 73014
L72807 73042
L72835 73099
L72835 73267
L72807 73323
L72779 73352
L72723 73380
L72610 73380
L72554 73352
" />
<path d="M73341 73380
L73341 73070
L73313 73014
L73257 72986
L73144 72986
L73088 73014
" />
<path d="M73341 73352
L73285 73380
L73144 73380
L73088 73352
L73060 73295
L73060 73239
L73088 73183
L73144 73155
L73285 73155
L73341 73127
" />
<path d="M73622 73380
L73622 72986
" />
<path d="M73622 73099
L73651 73042
L73679 73014
L73735 72986
L73791 72986
" />
<path d="M74241 72986
L74241 73464
L74213 73520
L74185 73548
L74129 73577
L74044 73577
L73988 73548
" />
<path d="M74241 73352
L74185 73380
L74072 73380
L74016 73352
L73988 73323
L73960 73267
L73960 73099
L73988 73042
L74016 73014
L74072 72986
L74185 72986
L74241 73014
" />
<path d="M74522 73380
L74522 72986
" />
<path d="M74522 73099
L74550 73042
L74579 73014
L74635 72986
L74691 72986
" />
<path d="M75141 73380
L75141 73070
L75113 73014
L75057 72986
L74944 72986
L74888 73014
" />
<path d="M75141 73352
L75085 73380
L74944 73380
L74888 73352
L74860 73295
L74860 73239
L74888 73183
L74944 73155
L75085 73155
L75141 73127
" />
<path d="M75422 72986
L75422 73577
" />
<path d="M75422 73014
L75478 72986
L75591 72986
L75647 73014
L75675 73042
L75703 73099
L75703 73267
L75675 73323
L75647 73352
L75591 73380
L75478 73380
L75422 73352
" />
<path d="M75956 73380
L75956 72789
" />
<path d="M76210 73380
L76210 73070
L76181 73014
L76125 72986
L76041 72986
L75985 73014
L75956 73042
" />
<path d="M76491 73323
L76519 73352
L76491 73380
L76463 73352
L76491 73323
L76491 73380
" />
<path d="M76772 73380
L76772 72789
" />
<path d="M76828 73155
L76997 73380
" />
<path d="M76997 72986
L76772 73211
" />
<path d="M77250 73380
L77250 72986
" />
<path d="M77250 72789
L77222 72817
L77250 72845
L77278 72817
L77250 72789
L77250 72845
" />
<path d="M77784 73352
L77728 73380
L77616 73380
L77559 73352
L77531 73323
L77503 73267
L77503 73099
L77531 73042
L77559 73014
L77616 72986
L77728 72986
L77784 73014
" />
<path d="M78291 73380
L78291 73070
L78262 73014
L78206 72986
L78094 72986
L78037 73014
" />
<path d="M78291 73352
L78234 73380
L78094 73380
L78037 73352
L78009 73295
L78009 73239
L78037 73183
L78094 73155
L78234 73155
L78291 73127
" />
<path d="M78825 73380
L78825 72789
" />
<path d="M78825 73352
L78769 73380
L78656 73380
L78600 73352
L78572 73323
L78544 73267
L78544 73099
L78572 73042
L78600 73014
L78656 72986
L78769 72986
L78825 73014
" />
<path d="M78965 73436
L79415 73436
" />
<path d="M79556 72986
L79556 73577
" />
<path d="M79556 73014
L79612 72986
L79725 72986
L79781 73014
L79809 73042
L79837 73099
L79837 73267
L79809 73323
L79781 73352
L79725 73380
L79612 73380
L79556 73352
" />
<path d="M80343 73352
L80287 73380
L80175 73380
L80118 73352
L80090 73323
L80062 73267
L80062 73099
L80090 73042
L80118 73014
L80175 72986
L80287 72986
L80343 73014
" />
<path d="M80597 73380
L80597 72789
" />
<path d="M80597 73014
L80653 72986
L80765 72986
L80822 73014
L80850 73042
L80878 73099
L80878 73267
L80850 73323
L80822 73352
L80765 73380
L80653 73380
L80597 73352
" />
</g>
<g style="fill:#000000; fill-opacity:0.0; 
stroke:#000000; stroke-width:39.3701; stroke-opacity:1; 
stroke-linecap:round; stroke-linejoin:round;">
</g>
<g style="fill:#000000; fill-opacity:0.0; 
stroke:#000000; stroke-width:59.0551; stroke-opacity:1; 
stroke-linecap:round; stroke-linejoin:round;">
<path d="M69685 71459
L112205 71459
" />
</g>
<g style="fill:#000000; fill-opacity:0.0; 
stroke:#000000; stroke-width:39.3701; stroke-opacity:1; 
stroke-linecap:round; stroke-linejoin:round;">
</g>
<g style="fill:#000000; fill-opacity:0.0; 
stroke:#000000; stroke-width:59.0551; stroke-opacity:1; 
stroke-linecap:round; stroke-linejoin:round;">
<path d="M70192 72289
L70276 72317
L70417 72317
L70473 72289
L70501 72260
L70529 72204
L70529 72148
L70501 72092
L70473 72064
L70417 72036
L70304 72007
L70248 71979
L70220 71951
L70192 71895
L70192 71839
L70220 71782
L70248 71754
L70304 71726
L70445 71726
L70529 71754
" />
<path d="M70782 72317
L70782 71726
" />
<path d="M71035 72317
L71035 72007
L71007 71951
L70951 71923
L70867 71923
L70810 71951
L70782 71979
" />
<path d="M71541 72289
L71485 72317
L71373 72317
L71316 72289
L71288 72232
L71288 72007
L71316 71951
L71373 71923
L71485 71923
L71541 71951
L71570 72007
L71570 72064
L71288 72120
" />
<path d="M72048 72289
L71991 72317
L71879 72317
L71823 72289
L71795 72232
L71795 72007
L71823 71951
L71879 71923
L71991 71923
L72048 71951
L72076 72007
L72076 72064
L71795 72120
" />
<path d="M72244 71923
L72469 71923
" />
<path d="M72329 71726
L72329 72232
L72357 72289
L72413 72317
L72469 72317
" />
<path d="M72666 72260
L72694 72289
L72666 72317
L72638 72289
L72666 72260
L72666 72317
" />
<path d="M72666 71951
L72694 71979
L72666 72007
L72638 71979
L72666 71951
L72666 72007
" />
</g>
<g style="fill:#000000; fill-opacity:0.0; 
stroke:#000000; stroke-width:39.3701; stroke-opacity:1; 
stroke-linecap:round; stroke-linejoin:round;">
</g>
<g style="fill:#000000; fill-opacity:0.0; 
stroke:#000000; stroke-width:59.0551; stroke-opacity:1; 
stroke-linecap:round; stroke-linejoin:round;">
<path d="M77559 75396
L77559 76577
" />
</g>
<g style="fill:#000000; fill-opacity:0.0; 
stroke:#000000; stroke-width:39.3701; stroke-opacity:1; 
stroke-linecap:round; stroke-linejoin:round;">
</g>
<g style="fill:#000000; fill-opacity:0.0; 
stroke:#000000; stroke-width:59.0551; stroke-opacity:1; 
stroke-linecap:round; stroke-linejoin:round;">
<path d="M102756 75396
L102756 77955
" />
</g>
<g style="fill:#000000; fill-opacity:0.0; 
stroke:#000000; stroke-width:78.7402; stroke-opacity:1; 
stroke-linecap:round; stroke-linejoin:round;">
<path d="M28059 60464
L67429 60464
" />
<path d="M28059 37214
L67429 37214
" />
<circle cx="69017.3" cy="11765.9" r="656.168" /> 
<path d="M68033 11765
L70001 11765
" />
<path d="M69017 10781
L69017 12750
" />
<circle cx="69017.3" cy="31515.9" r="656.168" /> 
<path d="M68033 31515
L70001 31515
" />
<path d="M69017 30531
L69017 32500
" />
<circle cx="25517.3" cy="31515.9" r="656.168" /> 
<path d="M24533 31515
L26501 31515
" />
<path d="M25517 30531
L25517 32500
" />
<circle cx="25267.3" cy="12015.9" r="656.168" /> 
<path d="M24283 12015
L26251 12015
" />
<path d="M25267 11031
L25267 13000
" />
</g>
<g style="fill:#000000; fill-opacity:0.0; 
stroke:#000000; stroke-width:59.0551; stroke-opacity:1; 
stroke-linecap:round; stroke-linejoin:round;">
<path d="M28510 48029
L28117 48029
L28117 48179
L28135 48216
L28154 48235
L28192 48254
L28248 48254
L28285 48235
L28304 48216
L28323 48179
L28323 48029
" />
<path d="M28510 48629
L28510 48404
" />
<path d="M28510 48516
L28117 48516
L28173 48479
L28210 48441
L28229 48404
" />
<path d="M29350 43689
L29350 44008
L29331 44046
L29312 44064
L29275 44083
L29200 44083
L29162 44064
L29143 44046
L29125 44008
L29125 43689
" />
<path d="M28731 44083
L28956 44083
" />
<path d="M28843 44083
L28843 43689
L28881 43746
L28918 43783
L28956 43802
" />
<path d="M72296 48098
L72577 48098
L72633 48079
L72671 48041
L72689 47985
L72689 47948
" />
<path d="M72689 48491
L72689 48266
" />
<path d="M72689 48379
L72296 48379
L72352 48341
L72389 48304
L72408 48266
" />
<path d="M87240 69274
L87221 69236
L87184 69199
L87127 69142
L87109 69105
L87109 69067
" />
<path d="M87202 69086
L87184 69049
L87146 69011
L87071 68992
L86940 68992
L86865 69011
L86827 69049
L86809 69086
L86809 69161
L86827 69199
L86865 69236
L86940 69255
L87071 69255
L87146 69236
L87184 69199
L87202 69161
L87202 69086
" />
<path d="M86846 69405
L86827 69424
L86809 69461
L86809 69555
L86827 69592
L86846 69611
L86884 69630
L86921 69630
L86977 69611
L87202 69386
L87202 69630
" />
<path d="M41062 11871
L41193 11683
" />
<path d="M41287 11871
L41287 11477
L41137 11477
L41100 11496
L41081 11514
L41062 11552
L41062 11608
L41081 11646
L41100 11664
L41137 11683
L41287 11683
" />
<path d="M40725 11608
L40725 11871
" />
<path d="M40819 11458
L40912 11739
L40669 11739
" />
<path d="M40462 11646
L40500 11627
L40519 11608
L40537 11571
L40537 11552
L40519 11514
L40500 11496
L40462 11477
L40387 11477
L40350 11496
L40331 11514
L40312 11552
L40312 11571
L40331 11608
L40350 11627
L40387 11646
L40462 11646
L40500 11664
L40519 11683
L40537 11721
L40537 11796
L40519 11833
L40500 11852
L40462 11871
L40387 11871
L40350 11852
L40331 11833
L40312 11796
L40312 11721
L40331 11683
L40350 11664
L40387 11646
" />
<path d="M49254 29308
L49067 29177
" />
<path d="M49254 29083
L48861 29083
L48861 29233
L48879 29271
L48898 29289
L48936 29308
L48992 29308
L49029 29289
L49048 29271
L49067 29233
L49067 29083
" />
<path d="M48992 29645
L49254 29645
" />
<path d="M48842 29552
L49123 29458
L49123 29702
" />
<path d="M48861 29814
L48861 30077
L49254 29908
" />
<path d="M38851 15708
L38663 15577
" />
<path d="M38851 15483
L38457 15483
L38457 15633
L38476 15671
L38495 15689
L38532 15708
L38588 15708
L38626 15689
L38645 15671
L38663 15633
L38663 15483
" />
<path d="M38495 15858
L38476 15877
L38457 15914
L38457 16008
L38476 16045
L38495 16064
L38532 16083
L38570 16083
L38626 16064
L38851 15839
L38851 16083
" />
<path d="M38851 16458
L38851 16233
" />
<path d="M38851 16345
L38457 16345
L38513 16308
L38551 16270
L38570 16233
" />
<path d="M37851 15708
L37663 15577
" />
<path d="M37851 15483
L37457 15483
L37457 15633
L37476 15671
L37495 15689
L37532 15708
L37588 15708
L37626 15689
L37645 15671
L37663 15633
L37663 15483
" />
<path d="M37495 15858
L37476 15877
L37457 15914
L37457 16008
L37476 16045
L37495 16064
L37532 16083
L37570 16083
L37626 16064
L37851 15839
L37851 16083
" />
<path d="M37457 16327
L37457 16364
L37476 16402
L37495 16420
L37532 16439
L37607 16458
L37701 16458
L37776 16439
L37813 16420
L37832 16402
L37851 16364
L37851 16327
L37832 16289
L37813 16270
L37776 16252
L37701 16233
L37607 16233
L37532 16252
L37495 16270
L37476 16289
L37457 16327
" />
<path d="M36851 15708
L36663 15577
" />
<path d="M36851 15483
L36457 15483
L36457 15633
L36476 15671
L36495 15689
L36532 15708
L36588 15708
L36626 15689
L36645 15671
L36663 15633
L36663 15483
" />
<path d="M36851 16083
L36851 15858
" />
<path d="M36851 15970
L36457 15970
L36513 15933
L36551 15895
L36570 15858
" />
<path d="M36851 16270
L36851 16345
L36832 16383
L36813 16402
L36757 16439
L36682 16458
L36532 16458
L36495 16439
L36476 16420
L36457 16383
L36457 16308
L36476 16270
L36495 16252
L36532 16233
L36626 16233
L36663 16252
L36682 16270
L36701 16308
L36701 16383
L36682 16420
L36663 16439
L36626 16458
" />
<path d="M35851 15708
L35663 15577
" />
<path d="M35851 15483
L35457 15483
L35457 15633
L35476 15671
L35495 15689
L35532 15708
L35588 15708
L35626 15689
L35645 15671
L35663 15633
L35663 15483
" />
<path d="M35851 16083
L35851 15858
" />
<path d="M35851 15970
L35457 15970
L35513 15933
L35551 15895
L35570 15858
" />
<path d="M35626 16308
L35607 16270
L35588 16252
L35551 16233
L35532 16233
L35495 16252
L35476 16270
L35457 16308
L35457 16383
L35476 16420
L35495 16439
L35532 16458
L35551 16458
L35588 16439
L35607 16420
L35626 16383
L35626 16308
L35645 16270
L35663 16252
L35701 16233
L35776 16233
L35813 16252
L35832 16270
L35851 16308
L35851 16383
L35832 16420
L35813 16439
L35776 16458
L35701 16458
L35663 16439
L35645 16420
L35626 16383
" />
<path d="M34851 15708
L34663 15577
" />
<path d="M34851 15483
L34457 15483
L34457 15633
L34476 15671
L34495 15689
L34532 15708
L34588 15708
L34626 15689
L34645 15671
L34663 15633
L34663 15483
" />
<path d="M34851 16083
L34851 15858
" />
<path d="M34851 15970
L34457 15970
L34513 15933
L34551 15895
L34570 15858
" />
<path d="M34457 16214
L34457 16477
L34851 16308
" />
<path d="M33851 15708
L33663 15577
" />
<path d="M33851 15483
L33457 15483
L33457 15633
L33476 15671
L33495 15689
L33532 15708
L33588 15708
L33626 15689
L33645 15671
L33663 15633
L33663 15483
" />
<path d="M33851 16083
L33851 15858
" />
<path d="M33851 15970
L33457 15970
L33513 15933
L33551 15895
L33570 15858
" />
<path d="M33457 16420
L33457 16345
L33476 16308
L33495 16289
L33551 16252
L33626 16233
L33776 16233
L33813 16252
L33832 16270
L33851 16308
L33851 16383
L33832 16420
L33813 16439
L33776 16458
L33682 16458
L33645 16439
L33626 16420
L33607 16383
L33607 16308
L33626 16270
L33645 16252
L33682 16233
" />
<path d="M32851 15708
L32663 15577
" />
<path d="M32851 15483
L32457 15483
L32457 15633
L32476 15671
L32495 15689
L32532 15708
L32588 15708
L32626 15689
L32645 15671
L32663 15633
L32663 15483
" />
<path d="M32851 16083
L32851 15858
" />
<path d="M32851 15970
L32457 15970
L32513 15933
L32551 15895
L32570 15858
" />
<path d="M32457 16439
L32457 16252
L32645 16233
L32626 16252
L32607 16289
L32607 16383
L32626 16420
L32645 16439
L32682 16458
L32776 16458
L32813 16439
L32832 16420
L32851 16383
L32851 16289
L32832 16252
L32813 16233
" />
<path d="M31851 15708
L31663 15577
" />
<path d="M31851 15483
L31457 15483
L31457 15633
L31476 15671
L31495 15689
L31532 15708
L31588 15708
L31626 15689
L31645 15671
L31663 15633
L31663 15483
" />
<path d="M31851 16083
L31851 15858
" />
<path d="M31851 15970
L31457 15970
L31513 15933
L31551 15895
L31570 15858
" />
<path d="M31588 16420
L31851 16420
" />
<path d="M31438 16327
L31720 16233
L31720 16477
" />
<path d="M30851 15708
L30663 15577
" />
<path d="M30851 15483
L30457 15483
L30457 15633
L30476 15671
L30495 15689
L30532 15708
L30588 15708
L30626 15689
L30645 15671
L30663 15633
L30663 15483
" />
<path d="M30851 16083
L30851 15858
" />
<path d="M30851 15970
L30457 15970
L30513 15933
L30551 15895
L30570 15858
" />
<path d="M30457 16214
L30457 16458
L30607 16327
L30607 16383
L30626 16420
L30645 16439
L30682 16458
L30776 16458
L30813 16439
L30832 16420
L30851 16383
L30851 16270
L30832 16233
L30813 16214
" />
<path d="M50851 15708
L50663 15577
" />
<path d="M50851 15483
L50457 15483
L50457 15633
L50476 15671
L50495 15689
L50532 15708
L50588 15708
L50626 15689
L50645 15671
L50663 15633
L50663 15483
" />
<path d="M50457 15839
L50457 16083
L50607 15952
L50607 16008
L50626 16045
L50645 16064
L50682 16083
L50776 16083
L50813 16064
L50832 16045
L50851 16008
L50851 15895
L50832 15858
L50813 15839
" />
<path d="M50495 16233
L50476 16252
L50457 16289
L50457 16383
L50476 16420
L50495 16439
L50532 16458
L50570 16458
L50626 16439
L50851 16214
L50851 16458
" />
<path d="M43851 19808
L43663 19677
" />
<path d="M43851 19583
L43457 19583
L43457 19733
L43476 19771
L43495 19789
L43532 19808
L43588 19808
L43626 19789
L43645 19771
L43663 19733
L43663 19583
" />
<path d="M43588 20145
L43851 20145
" />
<path d="M43438 20052
L43720 19958
L43720 20202
" />
<path d="M43457 20520
L43457 20445
L43476 20408
L43495 20389
L43551 20352
L43626 20333
L43776 20333
L43813 20352
L43832 20370
L43851 20408
L43851 20483
L43832 20520
L43813 20539
L43776 20558
L43682 20558
L43645 20539
L43626 20520
L43607 20483
L43607 20408
L43626 20370
L43645 20352
L43682 20333
" />
<path d="M44783 19800
L44595 19669
" />
<path d="M44783 19575
L44389 19575
L44389 19725
L44408 19762
L44426 19781
L44464 19800
L44520 19800
L44558 19781
L44576 19762
L44595 19725
L44595 19575
" />
<path d="M44520 20137
L44783 20137
" />
<path d="M44370 20043
L44651 19950
L44651 20193
" />
<path d="M44520 20512
L44783 20512
" />
<path d="M44370 20418
L44651 20325
L44651 20568
" />
<path d="M45254 29358
L45067 29227
" />
<path d="M45254 29133
L44861 29133
L44861 29283
L44879 29321
L44898 29339
L44936 29358
L44992 29358
L45029 29339
L45048 29321
L45067 29283
L45067 29133
" />
<path d="M44992 29695
L45254 29695
" />
<path d="M44842 29602
L45123 29508
L45123 29752
" />
<path d="M44861 29864
L44861 30108
L45011 29977
L45011 30033
L45029 30070
L45048 30089
L45086 30108
L45179 30108
L45217 30089
L45236 30070
L45254 30033
L45254 29920
L45236 29883
L45217 29864
" />
<path d="M46304 29368
L46117 29237
" />
<path d="M46304 29143
L45911 29143
L45911 29293
L45929 29331
L45948 29349
L45986 29368
L46042 29368
L46079 29349
L46098 29331
L46117 29293
L46117 29143
" />
<path d="M46042 29705
L46304 29705
" />
<path d="M45892 29612
L46173 29518
L46173 29762
" />
<path d="M45948 29893
L45929 29912
L45911 29949
L45911 30043
L45929 30080
L45948 30099
L45986 30118
L46023 30118
L46079 30099
L46304 29874
L46304 30118
" />
<path d="M48254 29308
L48067 29177
" />
<path d="M48254 29083
L47861 29083
L47861 29233
L47879 29271
L47898 29289
L47936 29308
L47992 29308
L48029 29289
L48048 29271
L48067 29233
L48067 29083
" />
<path d="M47992 29645
L48254 29645
" />
<path d="M47842 29552
L48123 29458
L48123 29702
" />
<path d="M48254 30058
L48254 29833
" />
<path d="M48254 29945
L47861 29945
L47917 29908
L47954 29870
L47973 29833
" />
<path d="M52851 15708
L52663 15577
" />
<path d="M52851 15483
L52457 15483
L52457 15633
L52476 15671
L52495 15689
L52532 15708
L52588 15708
L52626 15689
L52645 15671
L52663 15633
L52663 15483
" />
<path d="M52457 15839
L52457 16083
L52607 15952
L52607 16008
L52626 16045
L52645 16064
L52682 16083
L52776 16083
L52813 16064
L52832 16045
L52851 16008
L52851 15895
L52832 15858
L52813 15839
" />
<path d="M52457 16214
L52457 16458
L52607 16327
L52607 16383
L52626 16420
L52645 16439
L52682 16458
L52776 16458
L52813 16439
L52832 16420
L52851 16383
L52851 16270
L52832 16233
L52813 16214
" />
<path d="M39851 15708
L39663 15577
" />
<path d="M39851 15483
L39457 15483
L39457 15633
L39476 15671
L39495 15689
L39532 15708
L39588 15708
L39626 15689
L39645 15671
L39663 15633
L39663 15483
" />
<path d="M39495 15858
L39476 15877
L39457 15914
L39457 16008
L39476 16045
L39495 16064
L39532 16083
L39570 16083
L39626 16064
L39851 15839
L39851 16083
" />
<path d="M39495 16233
L39476 16252
L39457 16289
L39457 16383
L39476 16420
L39495 16439
L39532 16458
L39570 16458
L39626 16439
L39851 16214
L39851 16458
" />
<path d="M49851 15708
L49663 15577
" />
<path d="M49851 15483
L49457 15483
L49457 15633
L49476 15671
L49495 15689
L49532 15708
L49588 15708
L49626 15689
L49645 15671
L49663 15633
L49663 15483
" />
<path d="M49457 15839
L49457 16083
L49607 15952
L49607 16008
L49626 16045
L49645 16064
L49682 16083
L49776 16083
L49813 16064
L49832 16045
L49851 16008
L49851 15895
L49832 15858
L49813 15839
" />
<path d="M49851 16458
L49851 16233
" />
<path d="M49851 16345
L49457 16345
L49513 16308
L49551 16270
L49570 16233
" />
<path d="M47851 15708
L47663 15577
" />
<path d="M47851 15483
L47457 15483
L47457 15633
L47476 15671
L47495 15689
L47532 15708
L47588 15708
L47626 15689
L47645 15671
L47663 15633
L47663 15483
" />
<path d="M47495 15858
L47476 15877
L47457 15914
L47457 16008
L47476 16045
L47495 16064
L47532 16083
L47570 16083
L47626 16064
L47851 15839
L47851 16083
" />
<path d="M47851 16270
L47851 16345
L47832 16383
L47813 16402
L47757 16439
L47682 16458
L47532 16458
L47495 16439
L47476 16420
L47457 16383
L47457 16308
L47476 16270
L47495 16252
L47532 16233
L47626 16233
L47663 16252
L47682 16270
L47701 16308
L47701 16383
L47682 16420
L47663 16439
L47626 16458
" />
<path d="M46851 15708
L46663 15577
" />
<path d="M46851 15483
L46457 15483
L46457 15633
L46476 15671
L46495 15689
L46532 15708
L46588 15708
L46626 15689
L46645 15671
L46663 15633
L46663 15483
" />
<path d="M46495 15858
L46476 15877
L46457 15914
L46457 16008
L46476 16045
L46495 16064
L46532 16083
L46570 16083
L46626 16064
L46851 15839
L46851 16083
" />
<path d="M46626 16308
L46607 16270
L46588 16252
L46551 16233
L46532 16233
L46495 16252
L46476 16270
L46457 16308
L46457 16383
L46476 16420
L46495 16439
L46532 16458
L46551 16458
L46588 16439
L46607 16420
L46626 16383
L46626 16308
L46645 16270
L46663 16252
L46701 16233
L46776 16233
L46813 16252
L46832 16270
L46851 16308
L46851 16383
L46832 16420
L46813 16439
L46776 16458
L46701 16458
L46663 16439
L46645 16420
L46626 16383
" />
<path d="M45851 15708
L45663 15577
" />
<path d="M45851 15483
L45457 15483
L45457 15633
L45476 15671
L45495 15689
L45532 15708
L45588 15708
L45626 15689
L45645 15671
L45663 15633
L45663 15483
" />
<path d="M45495 15858
L45476 15877
L45457 15914
L45457 16008
L45476 16045
L45495 16064
L45532 16083
L45570 16083
L45626 16064
L45851 15839
L45851 16083
" />
<path d="M45457 16214
L45457 16477
L45851 16308
" />
<path d="M44851 15708
L44663 15577
" />
<path d="M44851 15483
L44457 15483
L44457 15633
L44476 15671
L44495 15689
L44532 15708
L44588 15708
L44626 15689
L44645 15671
L44663 15633
L44663 15483
" />
<path d="M44495 15858
L44476 15877
L44457 15914
L44457 16008
L44476 16045
L44495 16064
L44532 16083
L44570 16083
L44626 16064
L44851 15839
L44851 16083
" />
<path d="M44457 16420
L44457 16345
L44476 16308
L44495 16289
L44551 16252
L44626 16233
L44776 16233
L44813 16252
L44832 16270
L44851 16308
L44851 16383
L44832 16420
L44813 16439
L44776 16458
L44682 16458
L44645 16439
L44626 16420
L44607 16383
L44607 16308
L44626 16270
L44645 16252
L44682 16233
" />
<path d="M43851 15708
L43663 15577
" />
<path d="M43851 15483
L43457 15483
L43457 15633
L43476 15671
L43495 15689
L43532 15708
L43588 15708
L43626 15689
L43645 15671
L43663 15633
L43663 15483
" />
<path d="M43495 15858
L43476 15877
L43457 15914
L43457 16008
L43476 16045
L43495 16064
L43532 16083
L43570 16083
L43626 16064
L43851 15839
L43851 16083
" />
<path d="M43457 16439
L43457 16252
L43645 16233
L43626 16252
L43607 16289
L43607 16383
L43626 16420
L43645 16439
L43682 16458
L43776 16458
L43813 16439
L43832 16420
L43851 16383
L43851 16289
L43832 16252
L43813 16233
" />
<path d="M42851 15708
L42663 15577
" />
<path d="M42851 15483
L42457 15483
L42457 15633
L42476 15671
L42495 15689
L42532 15708
L42588 15708
L42626 15689
L42645 15671
L42663 15633
L42663 15483
" />
<path d="M42495 15858
L42476 15877
L42457 15914
L42457 16008
L42476 16045
L42495 16064
L42532 16083
L42570 16083
L42626 16064
L42851 15839
L42851 16083
" />
<path d="M42588 16420
L42851 16420
" />
<path d="M42438 16327
L42720 16233
L42720 16477
" />
<path d="M41851 15708
L41663 15577
" />
<path d="M41851 15483
L41457 15483
L41457 15633
L41476 15671
L41495 15689
L41532 15708
L41588 15708
L41626 15689
L41645 15671
L41663 15633
L41663 15483
" />
<path d="M41495 15858
L41476 15877
L41457 15914
L41457 16008
L41476 16045
L41495 16064
L41532 16083
L41570 16083
L41626 16064
L41851 15839
L41851 16083
" />
<path d="M41457 16214
L41457 16458
L41607 16327
L41607 16383
L41626 16420
L41645 16439
L41682 16458
L41776 16458
L41813 16439
L41832 16420
L41851 16383
L41851 16270
L41832 16233
L41813 16214
" />
<path d="M48851 15708
L48663 15577
" />
<path d="M48851 15483
L48457 15483
L48457 15633
L48476 15671
L48495 15689
L48532 15708
L48588 15708
L48626 15689
L48645 15671
L48663 15633
L48663 15483
" />
<path d="M48457 15839
L48457 16083
L48607 15952
L48607 16008
L48626 16045
L48645 16064
L48682 16083
L48776 16083
L48813 16064
L48832 16045
L48851 16008
L48851 15895
L48832 15858
L48813 15839
" />
<path d="M48457 16327
L48457 16364
L48476 16402
L48495 16420
L48532 16439
L48607 16458
L48701 16458
L48776 16439
L48813 16420
L48832 16402
L48851 16364
L48851 16327
L48832 16289
L48813 16270
L48776 16252
L48701 16233
L48607 16233
L48532 16252
L48495 16270
L48476 16289
L48457 16327
" />
<path d="M47951 19808
L47763 19677
" />
<path d="M47951 19583
L47557 19583
L47557 19733
L47576 19771
L47595 19789
L47632 19808
L47688 19808
L47726 19789
L47745 19771
L47763 19733
L47763 19583
" />
<path d="M47557 19939
L47557 20183
L47707 20052
L47707 20108
L47726 20145
L47745 20164
L47782 20183
L47876 20183
L47913 20164
L47932 20145
L47951 20108
L47951 19995
L47932 19958
L47913 19939
" />
<path d="M47951 20370
L47951 20445
L47932 20483
L47913 20502
L47857 20539
L47782 20558
L47632 20558
L47595 20539
L47576 20520
L47557 20483
L47557 20408
L47576 20370
L47595 20352
L47632 20333
L47726 20333
L47763 20352
L47782 20370
L47801 20408
L47801 20483
L47782 20520
L47763 20539
L47726 20558
" />
<path d="M46951 19808
L46763 19677
" />
<path d="M46951 19583
L46557 19583
L46557 19733
L46576 19771
L46595 19789
L46632 19808
L46688 19808
L46726 19789
L46745 19771
L46763 19733
L46763 19583
" />
<path d="M46557 19939
L46557 20183
L46707 20052
L46707 20108
L46726 20145
L46745 20164
L46782 20183
L46876 20183
L46913 20164
L46932 20145
L46951 20108
L46951 19995
L46932 19958
L46913 19939
" />
<path d="M46557 20314
L46557 20577
L46951 20408
" />
<path d="M54851 15708
L54663 15577
" />
<path d="M54851 15483
L54457 15483
L54457 15633
L54476 15671
L54495 15689
L54532 15708
L54588 15708
L54626 15689
L54645 15671
L54663 15633
L54663 15483
" />
<path d="M54457 15839
L54457 16083
L54607 15952
L54607 16008
L54626 16045
L54645 16064
L54682 16083
L54776 16083
L54813 16064
L54832 16045
L54851 16008
L54851 15895
L54832 15858
L54813 15839
" />
<path d="M54457 16439
L54457 16252
L54645 16233
L54626 16252
L54607 16289
L54607 16383
L54626 16420
L54645 16439
L54682 16458
L54776 16458
L54813 16439
L54832 16420
L54851 16383
L54851 16289
L54832 16252
L54813 16233
" />
<path d="M53851 15708
L53663 15577
" />
<path d="M53851 15483
L53457 15483
L53457 15633
L53476 15671
L53495 15689
L53532 15708
L53588 15708
L53626 15689
L53645 15671
L53663 15633
L53663 15483
" />
<path d="M53457 15839
L53457 16083
L53607 15952
L53607 16008
L53626 16045
L53645 16064
L53682 16083
L53776 16083
L53813 16064
L53832 16045
L53851 16008
L53851 15895
L53832 15858
L53813 15839
" />
<path d="M53588 16420
L53851 16420
" />
<path d="M53438 16327
L53720 16233
L53720 16477
" />
<path d="M55851 15708
L55663 15577
" />
<path d="M55851 15483
L55457 15483
L55457 15633
L55476 15671
L55495 15689
L55532 15708
L55588 15708
L55626 15689
L55645 15671
L55663 15633
L55663 15483
" />
<path d="M55457 15839
L55457 16083
L55607 15952
L55607 16008
L55626 16045
L55645 16064
L55682 16083
L55776 16083
L55813 16064
L55832 16045
L55851 16008
L55851 15895
L55832 15858
L55813 15839
" />
<path d="M55457 16420
L55457 16345
L55476 16308
L55495 16289
L55551 16252
L55626 16233
L55776 16233
L55813 16252
L55832 16270
L55851 16308
L55851 16383
L55832 16420
L55813 16439
L55776 16458
L55682 16458
L55645 16439
L55626 16420
L55607 16383
L55607 16308
L55626 16270
L55645 16252
L55682 16233
" />
<path d="M24860 49342
L24860 46192
" />
<path d="M27742 49342
L27742 46192
" />
<path d="M27742 46192
L24860 46192
" />
<path d="M25104 46192
L25104 49342
" />
<path d="M24860 49342
L27742 49342
" />
<path d="M29828 44269
L29828 44311
" />
<path d="M28194 44269
L28194 44311
" />
<path d="M28194 48265
L28194 48224
" />
<path d="M29828 48265
L29828 48224
" />
<path d="M29828 44269
L28194 44269
" />
<path d="M29828 48265
L28194 48265
" />
<path d="M29828 44311
L30370 44311
" />
<path d="M67611 55117
L67611 42317
" />
<path d="M67611 42317
L74611 42317
" />
<path d="M74611 42317
L74611 55117
" />
<path d="M74611 55117
L67611 55117
" />
<path d="M74611 52317
L71611 52317
" />
<path d="M71611 52317
L71611 45117
" />
<path d="M71611 45117
L74611 45117
" />
<path d="M74611 51717
L78011 51717
" />
<path d="M78011 51717
L78011 45717
" />
<path d="M78011 45717
L74611 45717
" />
<path d="M84780.7 69019.3 A946.521 946.521 0.0 0 0 85057.5 69211.3 " />
<path d="M85057.5 67488.7 A946.521 946.521 0.0 0 0 84780.7 67680.7 " />
<path d="M84780 69019
L84780 67680
" />
<path d="M85841 69210.2 A944.882 944.882 0.0 0 0 86394.9 68350 " />
<path d="M86394.9 68350 A944.882 944.882 0.0 0 0 85841 67489.8 " />
<path d="M40535 12864
L41007 12864
" />
<path d="M41007 12175
L40535 12175
" />
<path d="M47905 29363
L47905 29836
" />
<path d="M48594 29836
L48594 29363
" />
<path d="M39844 16236
L39844 15763
" />
<path d="M39155 15763
L39155 16236
" />
<path d="M38844 16236
L38844 15763
" />
<path d="M38155 15763
L38155 16236
" />
<path d="M37844 16236
L37844 15763
" />
<path d="M37155 15763
L37155 16236
" />
<path d="M36844 16236
L36844 15763
" />
<path d="M36155 15763
L36155 16236
" />
<path d="M35844 16236
L35844 15763
" />
<path d="M35155 15763
L35155 16236
" />
<path d="M34844 16236
L34844 15763
" />
<path d="M34155 15763
L34155 16236
" />
<path d="M33844 16236
L33844 15763
" />
<path d="M33155 15763
L33155 16236
" />
<path d="M32844 16236
L32844 15763
" />
<path d="M32155 15763
L32155 16236
" />
<path d="M31844 16236
L31844 15763
" />
<path d="M31155 15763
L31155 16236
" />
<path d="M51844 16236
L51844 15763
" />
<path d="M51155 15763
L51155 16236
" />
<path d="M44844 20336
L44844 19863
" />
<path d="M44155 19863
L44155 20336
" />
<path d="M45776 20327
L45776 19855
" />
<path d="M45087 19855
L45087 20327
" />
<path d="M43905 29413
L43905 29886
" />
<path d="M44594 29886
L44594 29413
" />
<path d="M44955 29423
L44955 29896
" />
<path d="M45644 29896
L45644 29423
" />
<path d="M46905 29363
L46905 29836
" />
<path d="M47594 29836
L47594 29363
" />
<path d="M53844 16236
L53844 15763
" />
<path d="M53155 15763
L53155 16236
" />
<path d="M40844 16236
L40844 15763
" />
<path d="M40155 15763
L40155 16236
" />
<path d="M50844 16236
L50844 15763
" />
<path d="M50155 15763
L50155 16236
" />
<path d="M48844 16236
L48844 15763
" />
<path d="M48155 15763
L48155 16236
" />
<path d="M47844 16236
L47844 15763
" />
<path d="M47155 15763
L47155 16236
" />
<path d="M46844 16236
L46844 15763
" />
<path d="M46155 15763
L46155 16236
" />
<path d="M45844 16236
L45844 15763
" />
<path d="M45155 15763
L45155 16236
" />
<path d="M44844 16236
L44844 15763
" />
<path d="M44155 15763
L44155 16236
" />
<path d="M43844 16236
L43844 15763
" />
<path d="M43155 15763
L43155 16236
" />
<path d="M42844 16236
L42844 15763
" />
<path d="M42155 15763
L42155 16236
" />
<path d="M49844 16236
L49844 15763
" />
<path d="M49155 15763
L49155 16236
" />
<path d="M48944 20336
L48944 19863
" />
<path d="M48255 19863
L48255 20336
" />
<path d="M47944 20336
L47944 19863
" />
<path d="M47255 19863
L47255 20336
" />
<path d="M55844 16236
L55844 15763
" />
<path d="M55155 15763
L55155 16236
" />
<path d="M54844 16236
L54844 15763
" />
<path d="M54155 15763
L54155 16236
" />
<path d="M56844 16236
L56844 15763
" />
<path d="M56155 15763
L56155 16236
" />
</g>
<g style="fill:#000000; fill-opacity:0.0; 
stroke:#000000; stroke-width:433.071; stroke-opacity:1; 
stroke-linecap:round; stroke-linejoin:round;">
<path d="M27072 48722
L27230 48722
" />
<path d="M27072 46812
L27230 46812
" />
</g>
<g style="fill:#000000; fill-opacity:0.0; 
stroke:#000000; stroke-width:472.441; stroke-opacity:1; 
stroke-linecap:round; stroke-linejoin:round;">
<path d="M25872 48840
L26068 48840
" />
<path d="M25872 46694
L26068 46694
" />
</g>
<g style="fill:#000000; fill-opacity:1.0; 
stroke:#000000; stroke-width:0; stroke-opacity:1; 
stroke-linecap:round; stroke-linejoin:round;">
<circle cx="69011.8" cy="43717.7" r="750" /> 
</g>
<g style="fill:#000000; fill-opacity:1.0; 
stroke:#000000; stroke-width:39.3701; stroke-opacity:1; 
stroke-linecap:round; stroke-linejoin:round;">
</g>
<g style="fill:#000000; fill-opacity:1.0; 
stroke:#000000; stroke-width:0; stroke-opacity:1; 
stroke-linecap:round; stroke-linejoin:round;">
<circle cx="69011.8" cy="53717.7" r="750" /> 
</g>
<g style="fill:#000000; fill-opacity:1.0; 
stroke:#000000; stroke-width:39.3701; stroke-opacity:1; 
stroke-linecap:round; stroke-linejoin:round;">
</g>
<g style="fill:#000000; fill-opacity:1.0; 
stroke:#000000; stroke-width:0; stroke-opacity:1; 
stroke-linecap:round; stroke-linejoin:round;">
<polyline style="fill-rule:evenodd;"
points="68311,51217
67711,51217
67711,50617
68311,50617
68311,51217
" /> 
<circle cx="68011.8" cy="49817.7" r="300" /> 
</g>
<g style="fill:#000000; fill-opacity:1.0; 
stroke:#000000; stroke-width:39.3701; stroke-opacity:1; 
stroke-linecap:round; stroke-linejoin:round;">
</g>
<g style="fill:#000000; fill-opacity:1.0; 
stroke:#000000; stroke-width:0; stroke-opacity:1; 
stroke-linecap:round; stroke-linejoin:round;">
<circle cx="68011.8" cy="48767.7" r="300" /> 
</g>
<g style="fill:#000000; fill-opacity:1.0; 
stroke:#000000; stroke-width:39.3701; stroke-opacity:1; 
stroke-linecap:round; stroke-linejoin:round;">
</g>
<g style="fill:#000000; fill-opacity:1.0; 
stroke:#000000; stroke-width:0; stroke-opacity:1; 
stroke-linecap:round; stroke-linejoin:round;">
<circle cx="68011.8" cy="47667.7" r="300" /> 
</g>
<g style="fill:#000000; fill-opacity:1.0; 
stroke:#000000; stroke-width:39.3701; stroke-opacity:1; 
stroke-linecap:round; stroke-linejoin:round;">
</g>
<g style="fill:#000000; fill-opacity:1.0; 
stroke:#000000; stroke-width:0; stroke-opacity:1; 
stroke-linecap:round; stroke-linejoin:round;">
<circle cx="68011.8" cy="46567.7" r="300" /> 
</g>
<g style="fill:#000000; fill-opacity:1.0; 
stroke:#000000; stroke-width:39.3701; stroke-opacity:1; 
stroke-linecap:round; stroke-linejoin:round;">
</g>
<g style="fill:#000000; fill-opacity:1.0; 
stroke:#000000; stroke-width:0; stroke-opacity:1; 
stroke-linecap:round; stroke-linejoin:round;">
<circle cx="69011.8" cy="50367.7" r="300" /> 
</g>
<g style="fill:#000000; fill-opacity:1.0; 
stroke:#000000; stroke-width:39.3701; stroke-opacity:1; 
stroke-linecap:round; stroke-linejoin:round;">
</g>
<g style="fill:#000000; fill-opacity:1.0; 
stroke:#000000; stroke-width:0; stroke-opacity:1; 
stroke-linecap:round; stroke-linejoin:round;">
<circle cx="69011.8" cy="49267.7" r="300" /> 
</g>
<g style="fill:#000000; fill-opacity:1.0; 
stroke:#000000; stroke-width:39.3701; stroke-opacity:1; 
stroke-linecap:round; stroke-linejoin:round;">
</g>
<g style="fill:#000000; fill-opacity:1.0; 
stroke:#000000; stroke-width:0; stroke-opacity:1; 
stroke-linecap:round; stroke-linejoin:round;">
<circle cx="69011.8" cy="48217.7" r="300" /> 
</g>
<g style="fill:#000000; fill-opacity:1.0; 
stroke:#000000; stroke-width:39.3701; stroke-opacity:1; 
stroke-linecap:round; stroke-linejoin:round;">
</g>
<g style="fill:#000000; fill-opacity:1.0; 
stroke:#000000; stroke-width:0; stroke-opacity:1; 
stroke-linecap:round; stroke-linejoin:round;">
<circle cx="69011.8" cy="47117.7" r="300" /> 
</g>
<g style="fill:#000000; fill-opacity:1.0; 
stroke:#000000; stroke-width:39.3701; stroke-opacity:1; 
stroke-linecap:round; stroke-linejoin:round;">
</g>
<g style="fill:#000000; fill-opacity:1.0; 
stroke:#000000; stroke-width:0; stroke-opacity:1; 
stroke-linecap:round; stroke-linejoin:round;">
<circle cx="85450" cy="68350" r="300" /> 
</g>
<g style="fill:#000000; fill-opacity:1.0; 
stroke:#000000; stroke-width:39.3701; stroke-opacity:1; 
stroke-linecap:round; stroke-linejoin:round;">
</g>
<g style="fill:#000000; fill-opacity:1.0; 
stroke:#000000; stroke-width:0; stroke-opacity:1; 
stroke-linecap:round; stroke-linejoin:round;">
<circle cx="85450" cy="67350" r="300" /> 
</g>
<g style="fill:#000000; fill-opacity:1.0; 
stroke:#000000; stroke-width:39.3701; stroke-opacity:1; 
stroke-linecap:round; stroke-linejoin:round;">
</g>
<g style="fill:#000000; fill-opacity:1.0; 
stroke:#000000; stroke-width:0; stroke-opacity:1; 
stroke-linecap:round; stroke-linejoin:round;">
<circle cx="85450" cy="69350" r="300" /> 
</g>
<g style="fill:#000000; fill-opacity:1.0; 
stroke:#000000; stroke-width:39.3701; stroke-opacity:1; 
stroke-linecap:round; stroke-linejoin:round;">
</g> 
</svg>
