<?xml version="1.0" standalone="no"?>
 <!DOCTYPE svg PUBLIC "-//W3C//DTD SVG 1.1//EN" 
 "http://www.w3.org/Graphics/SVG/1.1/DTD/svg11.dtd"> 
<svg xmlns="http://www.w3.org/2000/svg" version="1.1" 
    width="12.3927cm" height="12.888cm" viewBox="0 0 48790 50740 ">
<title>SVG Picture created as bargraph-F.SilkS.svg date 2016/06/05 20:56:18 </title>
  <desc>Picture generated by PCBNEW </desc>
<g style="fill:#000000; fill-opacity:1;stroke:#000000; stroke-opacity:1;
stroke-linecap:round; stroke-linejoin:round; "
 transform="translate(0 0) scale(1 1)">
</g>
<g style="fill:#000000; fill-opacity:0.0; 
stroke:#000000; stroke-width:-0.000393701; stroke-opacity:1; 
stroke-linecap:round; stroke-linejoin:round;">
</g>
<g style="fill:#000000; fill-opacity:0.0; 
stroke:#000000; stroke-width:59.0551; stroke-opacity:1; 
stroke-linecap:round; stroke-linejoin:round;">
<path d="M26524 30264
L26393 30076
" />
<path d="M26299 30264
L26299 29870
L26449 29870
L26487 29889
L26506 29907
L26524 29945
L26524 30001
L26506 30039
L26487 30057
L26449 30076
L26299 30076
" />
<path d="M26862 30001
L26862 30264
" />
<path d="M26768 29851
L26674 30132
L26918 30132
" />
<path d="M27255 29870
L27068 29870
L27049 30057
L27068 30039
L27105 30020
L27199 30020
L27237 30039
L27255 30057
L27274 30095
L27274 30189
L27255 30226
L27237 30245
L27199 30264
L27105 30264
L27068 30245
L27049 30226
" />
<path d="M33704 40444
L33572 40256
" />
<path d="M33479 40444
L33479 40050
L33629 40050
L33666 40069
L33685 40088
L33704 40125
L33704 40181
L33685 40219
L33666 40237
L33629 40256
L33479 40256
" />
<path d="M34041 40050
L33966 40050
L33929 40069
L33910 40088
L33872 40144
L33854 40219
L33854 40369
L33872 40406
L33891 40425
L33929 40444
L34004 40444
L34041 40425
L34060 40406
L34079 40369
L34079 40275
L34060 40237
L34041 40219
L34004 40200
L33929 40200
L33891 40219
L33872 40237
L33854 40275
" />
<path d="M9175 12396
L9194 12415
L9212 12471
L9212 12509
L9194 12565
L9156 12603
L9119 12621
L9044 12640
L8987 12640
L8912 12621
L8875 12603
L8837 12565
L8819 12509
L8819 12471
L8837 12415
L8856 12396
" />
<path d="M9212 12021
L9212 12246
" />
<path d="M9212 12134
L8819 12134
L8875 12171
L8912 12209
L8931 12246
" />
<path d="M39466 32194
L39335 32006
" />
<path d="M39241 32194
L39241 31800
L39391 31800
L39429 31819
L39447 31838
L39466 31875
L39466 31931
L39447 31969
L39429 31987
L39391 32006
L39241 32006
" />
<path d="M39597 31800
L39841 31800
L39710 31950
L39766 31950
L39804 31969
L39822 31987
L39841 32025
L39841 32119
L39822 32156
L39804 32175
L39766 32194
L39654 32194
L39616 32175
L39597 32156
" />
<path d="M40066 31969
L40029 31950
L40010 31931
L39991 31894
L39991 31875
L40010 31838
L40029 31819
L40066 31800
L40141 31800
L40179 31819
L40197 31838
L40216 31875
L40216 31894
L40197 31931
L40179 31950
L40141 31969
L40066 31969
L40029 31987
L40010 32006
L39991 32044
L39991 32119
L40010 32156
L40029 32175
L40066 32194
L40141 32194
L40179 32175
L40197 32156
L40216 32119
L40216 32044
L40197 32006
L40179 31987
L40141 31969
" />
<path d="M20494 48531
L20100 48531
" />
<path d="M20287 48531
L20287 48306
" />
<path d="M20494 48306
L20100 48306
" />
<path d="M20494 47912
L20494 48137
" />
<path d="M20494 48025
L20100 48025
L20156 48062
L20194 48100
L20212 48137
" />
<path d="M38932 18638
L38932 18956
L38951 18994
L38969 19013
L39007 19031
L39082 19031
L39119 19013
L39138 18994
L39157 18956
L39157 18638
" />
<path d="M39513 18638
L39438 18638
L39401 18656
L39382 18675
L39344 18731
L39326 18806
L39326 18956
L39344 18994
L39363 19013
L39401 19031
L39476 19031
L39513 19013
L39532 18994
L39550 18956
L39550 18863
L39532 18825
L39513 18806
L39476 18788
L39401 18788
L39363 18806
L39344 18825
L39326 18863
" />
<path d="M9652 7656
L9652 7974
L9671 8012
L9689 8031
L9727 8049
L9802 8049
L9839 8031
L9858 8012
L9877 7974
L9877 7656
" />
<path d="M10233 7787
L10233 8049
" />
<path d="M10139 7637
L10046 7918
L10289 7918
" />
<path d="M14852 7656
L14852 7974
L14871 8012
L14889 8031
L14927 8049
L15002 8049
L15039 8031
L15058 8012
L15077 7974
L15077 7656
" />
<path d="M15452 7656
L15264 7656
L15246 7843
L15264 7824
L15302 7806
L15396 7806
L15433 7824
L15452 7843
L15471 7881
L15471 7974
L15452 8012
L15433 8031
L15396 8049
L15302 8049
L15264 8031
L15246 8012
" />
<path d="M33064 18638
L33064 18956
L33082 18994
L33101 19013
L33139 19031
L33214 19031
L33251 19013
L33270 18994
L33289 18956
L33289 18638
" />
<path d="M33439 18638
L33701 18638
L33532 19031
" />
<path d="M11379 8564
L10986 8564
" />
<path d="M11136 8564
L11117 8527
L11117 8452
L11136 8414
L11154 8395
L11192 8377
L11304 8377
L11342 8395
L11360 8414
L11379 8452
L11379 8527
L11360 8564
" />
<path d="M11379 8039
L11173 8039
L11136 8058
L11117 8095
L11117 8170
L11136 8208
" />
<path d="M11360 8039
L11379 8077
L11379 8170
L11360 8208
L11323 8227
L11285 8227
L11248 8208
L11229 8170
L11229 8077
L11211 8039
" />
<path d="M11379 7852
L11117 7852
" />
<path d="M11192 7852
L11154 7833
L11136 7814
L11117 7777
L11117 7739
" />
<path d="M11417 7702
L11417 7402
" />
<path d="M11117 7139
L11435 7139
L11473 7158
L11492 7177
L11510 7214
L11510 7271
L11492 7308
" />
<path d="M11360 7139
L11379 7177
L11379 7252
L11360 7289
L11342 7308
L11304 7327
L11192 7327
L11154 7308
L11136 7289
L11117 7252
L11117 7177
L11136 7139
" />
<path d="M11379 6952
L11117 6952
" />
<path d="M11192 6952
L11154 6933
L11136 6914
L11117 6877
L11117 6839
" />
<path d="M11360 6558
L11379 6596
L11379 6671
L11360 6708
L11323 6727
L11173 6727
L11136 6708
L11117 6671
L11117 6596
L11136 6558
L11173 6539
L11211 6539
L11248 6727
" />
<path d="M11360 6221
L11379 6258
L11379 6333
L11360 6371
L11323 6389
L11173 6389
L11136 6371
L11117 6333
L11117 6258
L11136 6221
L11173 6202
L11211 6202
L11248 6389
" />
<path d="M11117 6033
L11379 6033
" />
<path d="M11154 6033
L11136 6014
L11117 5977
L11117 5921
L11136 5883
L11173 5864
L11379 5864
" />
<path d="M11379 5471
L11379 5696
" />
<path d="M11379 5583
L10986 5583
L11042 5621
L11079 5658
L11098 5696
" />
<path d="M21413 8246
L21020 8246
" />
<path d="M21170 8246
L21151 8208
L21151 8133
L21170 8096
L21188 8077
L21226 8058
L21338 8058
L21376 8077
L21394 8096
L21413 8133
L21413 8208
L21394 8246
" />
<path d="M21413 7721
L21207 7721
L21170 7740
L21151 7777
L21151 7852
L21170 7890
" />
<path d="M21394 7721
L21413 7759
L21413 7852
L21394 7890
L21357 7908
L21319 7908
L21282 7890
L21263 7852
L21263 7759
L21245 7721
" />
<path d="M21413 7534
L21151 7534
" />
<path d="M21226 7534
L21188 7515
L21170 7496
L21151 7459
L21151 7421
" />
<path d="M21451 7384
L21451 7084
" />
<path d="M21151 7027
L21413 6934
" />
<path d="M21151 6840
L21413 6934
L21507 6971
L21526 6990
L21544 7027
" />
<path d="M21413 6634
L21394 6671
L21357 6690
L21020 6690
" />
<path d="M21151 6521
L21413 6446
L21226 6371
L21413 6296
L21151 6221
" />
<path d="M21413 5865
L21413 6090
" />
<path d="M21413 5977
L21020 5977
L21076 6015
L21113 6052
L21132 6090
" />
<path d="M31379 8217
L30986 8217
" />
<path d="M31136 8217
L31117 8180
L31117 8105
L31136 8067
L31154 8049
L31192 8030
L31304 8030
L31342 8049
L31360 8067
L31379 8105
L31379 8180
L31360 8217
" />
<path d="M31379 7692
L31173 7692
L31136 7711
L31117 7749
L31117 7824
L31136 7861
" />
<path d="M31360 7692
L31379 7730
L31379 7824
L31360 7861
L31323 7880
L31285 7880
L31248 7861
L31229 7824
L31229 7730
L31211 7692
" />
<path d="M31379 7505
L31117 7505
" />
<path d="M31192 7505
L31154 7486
L31136 7467
L31117 7430
L31117 7392
" />
<path d="M31417 7355
L31417 7055
" />
<path d="M31379 6961
L31117 6961
" />
<path d="M31192 6961
L31154 6942
L31136 6924
L31117 6886
L31117 6849
" />
<path d="M31360 6568
L31379 6605
L31379 6680
L31360 6718
L31323 6736
L31173 6736
L31136 6718
L31117 6680
L31117 6605
L31136 6568
L31173 6549
L31211 6549
L31248 6736
" />
<path d="M31379 6211
L30986 6211
" />
<path d="M31360 6211
L31379 6249
L31379 6324
L31360 6361
L31342 6380
L31304 6399
L31192 6399
L31154 6380
L31136 6361
L31117 6324
L31117 6249
L31136 6211
" />
<path d="M31379 5818
L31379 6043
" />
<path d="M31379 5930
L30986 5930
L31042 5968
L31079 6005
L31098 6043
" />
<path d="M21715 22787
L21903 22787
" />
<path d="M21678 22899
L21809 22505
L21940 22899
" />
<path d="M22203 22693
L22071 22693
" />
<path d="M22071 22899
L22071 22505
L22259 22505
" />
<path d="M22540 22693
L22409 22693
" />
<path d="M22409 22899
L22409 22505
L22596 22505
" />
<path d="M22952 22899
L22727 22899
" />
<path d="M22840 22899
L22840 22505
L22802 22562
L22765 22599
L22727 22618
" />
<path d="M28074 3705
L28074 3311
L28168 3311
L28224 3330
L28261 3367
L28280 3405
L28299 3480
L28299 3536
L28280 3611
L28261 3648
L28224 3686
L28168 3705
L28074 3705
" />
<path d="M28674 3705
L28449 3705
" />
<path d="M28561 3705
L28561 3311
L28524 3367
L28486 3405
L28449 3423
" />
<path d="M28805 3311
L29049 3311
L28917 3461
L28974 3461
L29011 3480
L29030 3498
L29049 3536
L29049 3630
L29030 3667
L29011 3686
L28974 3705
L28861 3705
L28824 3686
L28805 3667
" />
<path d="M27099 2855
L27099 2461
" />
<path d="M27324 2855
L27155 2630
" />
<path d="M27324 2461
L27099 2686
" />
<path d="M23074 3705
L23074 3311
L23168 3311
L23224 3330
L23261 3367
L23280 3405
L23299 3480
L23299 3536
L23280 3611
L23261 3648
L23224 3686
L23168 3705
L23074 3705
" />
<path d="M23674 3705
L23449 3705
" />
<path d="M23561 3705
L23561 3311
L23524 3367
L23486 3405
L23449 3423
" />
<path d="M23805 3311
L24067 3311
L23899 3705
" />
<path d="M22099 2855
L22099 2461
" />
<path d="M22324 2855
L22155 2630
" />
<path d="M22324 2461
L22099 2686
" />
<path d="M25574 3705
L25574 3311
L25668 3311
L25724 3330
L25761 3367
L25780 3405
L25799 3480
L25799 3536
L25780 3611
L25761 3648
L25724 3686
L25668 3705
L25574 3705
" />
<path d="M26174 3705
L25949 3705
" />
<path d="M26061 3705
L26061 3311
L26024 3367
L25986 3405
L25949 3423
" />
<path d="M26530 3311
L26342 3311
L26324 3498
L26342 3480
L26380 3461
L26474 3461
L26511 3480
L26530 3498
L26549 3536
L26549 3630
L26530 3667
L26511 3686
L26474 3705
L26380 3705
L26342 3686
L26324 3667
" />
<path d="M24599 2855
L24599 2461
" />
<path d="M24824 2855
L24655 2630
" />
<path d="M24824 2461
L24599 2686
" />
<path d="M20574 3705
L20574 3311
L20668 3311
L20724 3330
L20761 3367
L20780 3405
L20799 3480
L20799 3536
L20780 3611
L20761 3648
L20724 3686
L20668 3705
L20574 3705
" />
<path d="M21174 3705
L20949 3705
" />
<path d="M21061 3705
L21061 3311
L21024 3367
L20986 3405
L20949 3423
" />
<path d="M21511 3442
L21511 3705
" />
<path d="M21417 3292
L21324 3573
L21567 3573
" />
<path d="M19599 2855
L19599 2461
" />
<path d="M19824 2855
L19655 2630
" />
<path d="M19824 2461
L19599 2686
" />
<path d="M44446 33638
L44446 33919
L44428 33976
L44390 34013
L44334 34032
L44296 34032
" />
<path d="M44840 34032
L44615 34032
" />
<path d="M44728 34032
L44728 33638
L44690 33694
L44653 33732
L44615 33751
" />
<path d="M31746 45283
L32065 45283
L32102 45264
L32121 45245
L32140 45208
L32140 45133
L32121 45095
L32102 45077
L32065 45058
L31746 45058
" />
<path d="M31783 44889
L31765 44870
L31746 44833
L31746 44739
L31765 44702
L31783 44683
L31821 44664
L31858 44664
L31915 44683
L32140 44908
L32140 44664
" />
<path d="M44275 30678
L44275 30284
L44425 30284
L44463 30303
L44482 30321
L44500 30359
L44500 30415
L44482 30453
L44463 30471
L44425 30490
L44275 30490
" />
<path d="M44838 30284
L44763 30284
L44725 30303
L44707 30321
L44669 30378
L44650 30453
L44650 30603
L44669 30640
L44688 30659
L44725 30678
L44800 30678
L44838 30659
L44856 30640
L44875 30603
L44875 30509
L44856 30471
L44838 30453
L44800 30434
L44725 30434
L44688 30453
L44669 30471
L44650 30509
" />
<path d="M26580 28914
L27052 28914
" />
<path d="M27052 29603
L26580 29603
" />
<path d="M34044 41437
L33571 41437
" />
<path d="M33571 40748
L34044 40748
" />
<path d="M8542 12489
L8542 12096
" />
<path d="M7873 12096
L7873 12489
" />
<path d="M39994 33187
L39521 33187
" />
<path d="M39521 32498
L39994 32498
" />
<path d="M17808 48692
L8808 48692
" />
<path d="M8808 48692
L8808 47692
" />
<path d="M8808 47692
L17808 47692
" />
<path d="M18918 48803
L18308 48803
" />
<path d="M17808 48692
L17808 47692
" />
<path d="M18308 47582
L18918 47582
" />
<path d="M18918 47582
L18918 48803
" />
<path d="M39217 17702
L39217 17202
" />
<path d="M36323 17702
L36323 17202
" />
<path d="M36323 8895
L36323 9395
" />
<path d="M39217 8895
L39217 9395
" />
<path d="M39217 17702
L36323 17702
" />
<path d="M39217 8895
L36323 8895
" />
<path d="M39217 17202
L39585 17202
" />
<path d="M10043 9023
L10043 9523
" />
<path d="M12937 9023
L12937 9523
" />
<path d="M12937 17830
L12937 17330
" />
<path d="M10043 17830
L10043 17330
" />
<path d="M10043 9023
L12937 9023
" />
<path d="M10043 17830
L12937 17830
" />
<path d="M10043 9523
L9675 9523
" />
<path d="M15243 9023
L15243 9523
" />
<path d="M18137 9023
L18137 9523
" />
<path d="M18137 17830
L18137 17330
" />
<path d="M15243 17830
L15243 17330
" />
<path d="M15243 9023
L18137 9023
" />
<path d="M15243 17830
L18137 17830
" />
<path d="M15243 9523
L14875 9523
" />
<path d="M33349 17702
L33349 17202
" />
<path d="M30455 17702
L30455 17202
" />
<path d="M30455 8895
L30455 9395
" />
<path d="M33349 8895
L33349 9395
" />
<path d="M33349 17702
L30455 17702
" />
<path d="M33349 8895
L30455 8895
" />
<path d="M33349 17202
L33717 17202
" />
<path d="M12353 6935
L12853 6935
" />
<path d="M12353 4042
L12853 4042
" />
<path d="M23160 4042
L22660 4042
" />
<path d="M23160 6935
L22660 6935
" />
<path d="M12353 6935
L12353 4042
" />
<path d="M23160 6935
L23160 4042
" />
<path d="M12853 6935
L12853 7303
" />
<path d="M22387 6973
L22887 6973
" />
<path d="M22387 4080
L22887 4080
" />
<path d="M33194 4080
L32694 4080
" />
<path d="M33194 6973
L32694 6973
" />
<path d="M22387 6973
L22387 4080
" />
<path d="M33194 6973
L33194 4080
" />
<path d="M22887 6973
L22887 7341
" />
<path d="M32353 6935
L32853 6935
" />
<path d="M32353 4042
L32853 4042
" />
<path d="M43160 4042
L42660 4042
" />
<path d="M43160 6935
L42660 6935
" />
<path d="M32353 6935
L32353 4042
" />
<path d="M43160 6935
L43160 4042
" />
<path d="M32853 6935
L32853 7303
" />
<circle cx="26782.5" cy="19248.6" r="455.912" /> 
<path d="M24211 18654
L21546 18764
" />
<path d="M25199 15244
L24628 18654
" />
<path d="M25199 14913
L22471 14847
" />
<path d="M26211 11264
L25550 14693
" />
<path d="M23306 10890
L26187 10843
" />
<path d="M22140 14606
L22912 10933
" />
<path d="M21282 18831
L22073 15004
" />
<path d="M28985 8187
L19517 8187
" />
<path d="M28985 21624
L19517 21624
" />
<path d="M28985 8187
L28985 21587
" />
<path d="M19485 8187
L19485 21587
" />
<path d="M28990 21626
L28990 8226
" />
<path d="M19490 21626
L19490 8226
" />
<path d="M19490 8189
L28959 8189
" />
<path d="M19490 21626
L28959 21626
" />
<path d="M27512.4 2527.32 A1147.83 1147.83 0.0 1 0 27506.5 1336.42 " />
<path d="M27506 2517
L27506 1336
" />
<circle cx="28490.7" cy="1926.97" r="991.313" /> 
<path d="M22512.4 2527.32 A1147.83 1147.83 0.0 1 0 22506.5 1336.42 " />
<path d="M22506 2517
L22506 1336
" />
<circle cx="23490.7" cy="1926.97" r="991.313" /> 
<path d="M25012.4 2527.32 A1147.83 1147.83 0.0 1 0 25006.5 1336.42 " />
<path d="M25006 2517
L25006 1336
" />
<circle cx="25990.7" cy="1926.97" r="991.313" /> 
<path d="M20012.4 2527.32 A1147.83 1147.83 0.0 1 0 20006.5 1336.42 " />
<path d="M20006 2517
L20006 1336
" />
<circle cx="20990.7" cy="1926.97" r="991.313" /> 
<path d="M46116 35362
L46116 40362
" />
<path d="M46116 40362
L44116 40362
" />
<path d="M44116 40362
L44116 36362
" />
<path d="M46116 35362
L45116 35362
" />
<path d="M44616 35251
L44006 35251
" />
<path d="M45116 35362
L45116 36362
" />
<path d="M45116 36362
L44116 36362
" />
<path d="M44006 35251
L44006 35862
" />
<path d="M39508 46042
L40058 46042
" />
<path d="M39508 45042
L40058 45042
" />
<path d="M39508 44042
L40058 44042
" />
<circle cx="34358.1" cy="45042.9" r="989.95" /> 
<path d="M36158 42942
L33008 42942
" />
<path d="M33008 42942
L33008 47142
" />
<path d="M33008 47142
L36158 47142
" />
<path d="M39508 42942
L36158 42942
" />
<path d="M36158 42942
L36158 47142
" />
<path d="M36158 47142
L39508 47142
" />
<path d="M39508 45042
L39508 47142
" />
<path d="M39508 45042
L39508 42942
" />
<path d="M43994 33118
L44604 33118
" />
<path d="M46104 33007
L45104 33007
" />
<path d="M45104 33007
L45104 32007
" />
<path d="M44604 31897
L43994 31897
" />
<path d="M43994 31897
L43994 33118
" />
<path d="M45104 32007
L46104 32007
" />
<path d="M46104 32007
L46104 33007
" />
</g>
<g style="fill:#000000; fill-opacity:0.0; 
stroke:#000000; stroke-width:0; stroke-opacity:1; 
stroke-linecap:round; stroke-linejoin:round;">
</g>
<g style="fill:#000000; fill-opacity:1.0; 
stroke:#000000; stroke-width:0; stroke-opacity:1; 
stroke-linecap:round; stroke-linejoin:round;">
<polyline style="fill-rule:evenodd;"
points="17968,47792
18648,47792
18648,48592
17968,48592
17968,47792
" /> 
</g>
<g style="fill:#000000; fill-opacity:1.0; 
stroke:#000000; stroke-width:680; stroke-opacity:1; 
stroke-linecap:round; stroke-linejoin:round;">
</g>
<g style="fill:#000000; fill-opacity:0.0; 
stroke:#000000; stroke-width:680; stroke-opacity:1; 
stroke-linecap:round; stroke-linejoin:round;">
<path d="M17308 48132
L17308 48252
" />
<path d="M16308 48132
L16308 48252
" />
<path d="M15308 48132
L15308 48252
" />
<path d="M14308 48132
L14308 48252
" />
<path d="M13308 48132
L13308 48252
" />
<path d="M12308 48132
L12308 48252
" />
<path d="M11308 48132
L11308 48252
" />
<path d="M10308 48132
L10308 48252
" />
<path d="M9308 48132
L9308 48252
" />
</g>
<g style="fill:#000000; fill-opacity:0.0; 
stroke:#000000; stroke-width:629.921; stroke-opacity:1; 
stroke-linecap:round; stroke-linejoin:round;">
<path d="M39270 16798
L39270 16798
" />
<path d="M39270 15798
L39270 15798
" />
<path d="M39270 14798
L39270 14798
" />
<path d="M39270 13798
L39270 13798
" />
<path d="M39270 12798
L39270 12798
" />
<path d="M39270 11798
L39270 11798
" />
<path d="M39270 10798
L39270 10798
" />
<path d="M39270 9798
L39270 9798
" />
<path d="M36270 9798
L36270 9798
" />
<path d="M36270 10798
L36270 10798
" />
<path d="M36270 11798
L36270 11798
" />
<path d="M36270 12798
L36270 12798
" />
<path d="M36270 13798
L36270 13798
" />
<path d="M36270 14798
L36270 14798
" />
<path d="M36270 15798
L36270 15798
" />
<path d="M36270 16798
L36270 16798
" />
<path d="M9990 9926
L9990 9926
" />
<path d="M9990 10926
L9990 10926
" />
<path d="M9990 11926
L9990 11926
" />
<path d="M9990 12926
L9990 12926
" />
<path d="M9990 13926
L9990 13926
" />
<path d="M9990 14926
L9990 14926
" />
<path d="M9990 15926
L9990 15926
" />
<path d="M9990 16926
L9990 16926
" />
<path d="M12990 16926
L12990 16926
" />
<path d="M12990 15926
L12990 15926
" />
<path d="M12990 14926
L12990 14926
" />
<path d="M12990 13926
L12990 13926
" />
<path d="M12990 12926
L12990 12926
" />
<path d="M12990 11926
L12990 11926
" />
<path d="M12990 10926
L12990 10926
" />
<path d="M12990 9926
L12990 9926
" />
<path d="M15190 9926
L15190 9926
" />
<path d="M15190 10926
L15190 10926
" />
<path d="M15190 11926
L15190 11926
" />
<path d="M15190 12926
L15190 12926
" />
<path d="M15190 13926
L15190 13926
" />
<path d="M15190 14926
L15190 14926
" />
<path d="M15190 15926
L15190 15926
" />
<path d="M15190 16926
L15190 16926
" />
<path d="M18190 16926
L18190 16926
" />
<path d="M18190 15926
L18190 15926
" />
<path d="M18190 14926
L18190 14926
" />
<path d="M18190 13926
L18190 13926
" />
<path d="M18190 12926
L18190 12926
" />
<path d="M18190 11926
L18190 11926
" />
<path d="M18190 10926
L18190 10926
" />
<path d="M18190 9926
L18190 9926
" />
<path d="M33402 16798
L33402 16798
" />
<path d="M33402 15798
L33402 15798
" />
<path d="M33402 14798
L33402 14798
" />
<path d="M33402 13798
L33402 13798
" />
<path d="M33402 12798
L33402 12798
" />
<path d="M33402 11798
L33402 11798
" />
<path d="M33402 10798
L33402 10798
" />
<path d="M33402 9798
L33402 9798
" />
<path d="M30402 9798
L30402 9798
" />
<path d="M30402 10798
L30402 10798
" />
<path d="M30402 11798
L30402 11798
" />
<path d="M30402 12798
L30402 12798
" />
<path d="M30402 13798
L30402 13798
" />
<path d="M30402 14798
L30402 14798
" />
<path d="M30402 15798
L30402 15798
" />
<path d="M30402 16798
L30402 16798
" />
<path d="M13256 6988
L13256 6988
" />
<path d="M14256 6988
L14256 6988
" />
<path d="M15256 6988
L15256 6988
" />
<path d="M16256 6988
L16256 6988
" />
<path d="M17256 6988
L17256 6988
" />
<path d="M18256 6988
L18256 6988
" />
<path d="M19256 6988
L19256 6988
" />
<path d="M20256 6988
L20256 6988
" />
<path d="M21256 6988
L21256 6988
" />
<path d="M22256 6988
L22256 6988
" />
<path d="M22256 3988
L22256 3988
" />
<path d="M21256 3988
L21256 3988
" />
<path d="M20256 3988
L20256 3988
" />
<path d="M19256 3988
L19256 3988
" />
<path d="M18256 3988
L18256 3988
" />
<path d="M17256 3988
L17256 3988
" />
<path d="M16256 3988
L16256 3988
" />
<path d="M15256 3988
L15256 3988
" />
<path d="M14256 3988
L14256 3988
" />
<path d="M13256 3988
L13256 3988
" />
<path d="M23290 7026
L23290 7026
" />
<path d="M24290 7026
L24290 7026
" />
<path d="M25290 7026
L25290 7026
" />
<path d="M26290 7026
L26290 7026
" />
<path d="M27290 7026
L27290 7026
" />
<path d="M28290 7026
L28290 7026
" />
<path d="M29290 7026
L29290 7026
" />
<path d="M30290 7026
L30290 7026
" />
<path d="M31290 7026
L31290 7026
" />
<path d="M32290 7026
L32290 7026
" />
<path d="M32290 4026
L32290 4026
" />
<path d="M31290 4026
L31290 4026
" />
<path d="M30290 4026
L30290 4026
" />
<path d="M29290 4026
L29290 4026
" />
<path d="M28290 4026
L28290 4026
" />
<path d="M27290 4026
L27290 4026
" />
<path d="M26290 4026
L26290 4026
" />
<path d="M25290 4026
L25290 4026
" />
<path d="M24290 4026
L24290 4026
" />
<path d="M23290 4026
L23290 4026
" />
<path d="M33256 6988
L33256 6988
" />
<path d="M34256 6988
L34256 6988
" />
<path d="M35256 6988
L35256 6988
" />
<path d="M36256 6988
L36256 6988
" />
<path d="M37256 6988
L37256 6988
" />
<path d="M38256 6988
L38256 6988
" />
<path d="M39256 6988
L39256 6988
" />
<path d="M40256 6988
L40256 6988
" />
<path d="M41256 6988
L41256 6988
" />
<path d="M42256 6988
L42256 6988
" />
<path d="M42256 3988
L42256 3988
" />
<path d="M41256 3988
L41256 3988
" />
<path d="M40256 3988
L40256 3988
" />
<path d="M39256 3988
L39256 3988
" />
<path d="M38256 3988
L38256 3988
" />
<path d="M37256 3988
L37256 3988
" />
<path d="M36256 3988
L36256 3988
" />
<path d="M35256 3988
L35256 3988
" />
<path d="M34256 3988
L34256 3988
" />
<path d="M33256 3988
L33256 3988
" />
</g>
<g style="fill:#000000; fill-opacity:1.0; 
stroke:#000000; stroke-width:0; stroke-opacity:1; 
stroke-linecap:round; stroke-linejoin:round;">
<circle cx="22335.6" cy="8837.2" r="300" /> 
</g>
<g style="fill:#000000; fill-opacity:1.0; 
stroke:#000000; stroke-width:19.685; stroke-opacity:1; 
stroke-linecap:round; stroke-linejoin:round;">
</g>
<g style="fill:#000000; fill-opacity:1.0; 
stroke:#000000; stroke-width:0; stroke-opacity:1; 
stroke-linecap:round; stroke-linejoin:round;">
<circle cx="23335.6" cy="8837.2" r="300" /> 
</g>
<g style="fill:#000000; fill-opacity:1.0; 
stroke:#000000; stroke-width:19.685; stroke-opacity:1; 
stroke-linecap:round; stroke-linejoin:round;">
</g>
<g style="fill:#000000; fill-opacity:1.0; 
stroke:#000000; stroke-width:0; stroke-opacity:1; 
stroke-linecap:round; stroke-linejoin:round;">
<circle cx="24335.6" cy="8837.2" r="300" /> 
</g>
<g style="fill:#000000; fill-opacity:1.0; 
stroke:#000000; stroke-width:19.685; stroke-opacity:1; 
stroke-linecap:round; stroke-linejoin:round;">
</g>
<g style="fill:#000000; fill-opacity:1.0; 
stroke:#000000; stroke-width:0; stroke-opacity:1; 
stroke-linecap:round; stroke-linejoin:round;">
<circle cx="25335.6" cy="8837.2" r="300" /> 
</g>
<g style="fill:#000000; fill-opacity:1.0; 
stroke:#000000; stroke-width:19.685; stroke-opacity:1; 
stroke-linecap:round; stroke-linejoin:round;">
</g>
<g style="fill:#000000; fill-opacity:1.0; 
stroke:#000000; stroke-width:0; stroke-opacity:1; 
stroke-linecap:round; stroke-linejoin:round;">
<circle cx="26336" cy="8836.81" r="300" /> 
</g>
<g style="fill:#000000; fill-opacity:1.0; 
stroke:#000000; stroke-width:19.685; stroke-opacity:1; 
stroke-linecap:round; stroke-linejoin:round;">
</g>
<g style="fill:#000000; fill-opacity:1.0; 
stroke:#000000; stroke-width:0; stroke-opacity:1; 
stroke-linecap:round; stroke-linejoin:round;">
<circle cx="22140.4" cy="20977.4" r="300" /> 
</g>
<g style="fill:#000000; fill-opacity:1.0; 
stroke:#000000; stroke-width:19.685; stroke-opacity:1; 
stroke-linecap:round; stroke-linejoin:round;">
</g>
<g style="fill:#000000; fill-opacity:1.0; 
stroke:#000000; stroke-width:0; stroke-opacity:1; 
stroke-linecap:round; stroke-linejoin:round;">
<circle cx="23140.7" cy="20977" r="300" /> 
</g>
<g style="fill:#000000; fill-opacity:1.0; 
stroke:#000000; stroke-width:19.685; stroke-opacity:1; 
stroke-linecap:round; stroke-linejoin:round;">
</g>
<g style="fill:#000000; fill-opacity:1.0; 
stroke:#000000; stroke-width:0; stroke-opacity:1; 
stroke-linecap:round; stroke-linejoin:round;">
<circle cx="24140.7" cy="20977" r="300" /> 
</g>
<g style="fill:#000000; fill-opacity:1.0; 
stroke:#000000; stroke-width:19.685; stroke-opacity:1; 
stroke-linecap:round; stroke-linejoin:round;">
</g>
<g style="fill:#000000; fill-opacity:1.0; 
stroke:#000000; stroke-width:0; stroke-opacity:1; 
stroke-linecap:round; stroke-linejoin:round;">
<circle cx="25140.7" cy="20977" r="300" /> 
</g>
<g style="fill:#000000; fill-opacity:1.0; 
stroke:#000000; stroke-width:19.685; stroke-opacity:1; 
stroke-linecap:round; stroke-linejoin:round;">
</g>
<g style="fill:#000000; fill-opacity:1.0; 
stroke:#000000; stroke-width:0; stroke-opacity:1; 
stroke-linecap:round; stroke-linejoin:round;">
<circle cx="26140.7" cy="20977" r="300" /> 
</g>
<g style="fill:#000000; fill-opacity:1.0; 
stroke:#000000; stroke-width:19.685; stroke-opacity:1; 
stroke-linecap:round; stroke-linejoin:round;">
</g>
<g style="fill:#000000; fill-opacity:1.0; 
stroke:#000000; stroke-width:0; stroke-opacity:1; 
stroke-linecap:round; stroke-linejoin:round;">
<polyline style="fill-rule:evenodd;"
points="28364,2320
27616,2320
27616,1533
28364,1533
28364,2320
" /> 
<circle cx="28990.7" cy="1926.97" r="374.016" /> 
</g>
<g style="fill:#000000; fill-opacity:1.0; 
stroke:#000000; stroke-width:19.685; stroke-opacity:1; 
stroke-linecap:round; stroke-linejoin:round;">
</g>
<g style="fill:#000000; fill-opacity:1.0; 
stroke:#000000; stroke-width:0; stroke-opacity:1; 
stroke-linecap:round; stroke-linejoin:round;">
<polyline style="fill-rule:evenodd;"
points="23364,2320
22616,2320
22616,1533
23364,1533
23364,2320
" /> 
<circle cx="23990.7" cy="1926.97" r="374.016" /> 
</g>
<g style="fill:#000000; fill-opacity:1.0; 
stroke:#000000; stroke-width:19.685; stroke-opacity:1; 
stroke-linecap:round; stroke-linejoin:round;">
</g>
<g style="fill:#000000; fill-opacity:1.0; 
stroke:#000000; stroke-width:0; stroke-opacity:1; 
stroke-linecap:round; stroke-linejoin:round;">
<polyline style="fill-rule:evenodd;"
points="25864,2320
25116,2320
25116,1533
25864,1533
25864,2320
" /> 
<circle cx="26490.7" cy="1926.97" r="374.016" /> 
</g>
<g style="fill:#000000; fill-opacity:1.0; 
stroke:#000000; stroke-width:19.685; stroke-opacity:1; 
stroke-linecap:round; stroke-linejoin:round;">
</g>
<g style="fill:#000000; fill-opacity:1.0; 
stroke:#000000; stroke-width:0; stroke-opacity:1; 
stroke-linecap:round; stroke-linejoin:round;">
<polyline style="fill-rule:evenodd;"
points="20864,2320
20116,2320
20116,1533
20864,1533
20864,2320
" /> 
<circle cx="21490.7" cy="1926.97" r="374.016" /> 
</g>
<g style="fill:#000000; fill-opacity:1.0; 
stroke:#000000; stroke-width:19.685; stroke-opacity:1; 
stroke-linecap:round; stroke-linejoin:round;">
</g>
<g style="fill:#000000; fill-opacity:1.0; 
stroke:#000000; stroke-width:0; stroke-opacity:1; 
stroke-linecap:round; stroke-linejoin:round;">
<polyline style="fill-rule:evenodd;"
points="44276,36202
44276,35522
44956,35522
44956,36202
44276,36202
" /> 
</g>
<g style="fill:#000000; fill-opacity:1.0; 
stroke:#000000; stroke-width:680; stroke-opacity:1; 
stroke-linecap:round; stroke-linejoin:round;">
</g>
<g style="fill:#000000; fill-opacity:0.0; 
stroke:#000000; stroke-width:680; stroke-opacity:1; 
stroke-linecap:round; stroke-linejoin:round;">
<path d="M45616 35862
L45616 35862
" />
<path d="M44616 36862
L44616 36862
" />
<path d="M45616 36862
L45616 36862
" />
<path d="M44616 37862
L44616 37862
" />
<path d="M45616 37862
L45616 37862
" />
<path d="M44616 38862
L44616 38862
" />
<path d="M45616 38862
L45616 38862
" />
<path d="M44616 39862
L44616 39862
" />
<path d="M45616 39862
L45616 39862
" />
</g>
<g style="fill:#000000; fill-opacity:0.0; 
stroke:#000000; stroke-width:669; stroke-opacity:1; 
stroke-linecap:round; stroke-linejoin:round;">
<path d="M41312 45042
L40603 45042
" />
<path d="M41312 46042
L40603 46042
" />
<path d="M41312 44042
L40603 44042
" />
</g>
<g style="fill:#000000; fill-opacity:1.0; 
stroke:#000000; stroke-width:0; stroke-opacity:1; 
stroke-linecap:round; stroke-linejoin:round;">
<circle cx="34358.1" cy="45042.9" r="748" /> 
</g>
<g style="fill:#000000; fill-opacity:1.0; 
stroke:#000000; stroke-width:19.685; stroke-opacity:1; 
stroke-linecap:round; stroke-linejoin:round;">
</g>
<g style="fill:#000000; fill-opacity:1.0; 
stroke:#000000; stroke-width:0; stroke-opacity:1; 
stroke-linecap:round; stroke-linejoin:round;">
<polyline style="fill-rule:evenodd;"
points="44204,32907
44204,32107
45004,32107
45004,32907
44204,32907
" /> 
</g>
<g style="fill:#000000; fill-opacity:1.0; 
stroke:#000000; stroke-width:800; stroke-opacity:1; 
stroke-linecap:round; stroke-linejoin:round;">
</g>
<g style="fill:#000000; fill-opacity:0.0; 
stroke:#000000; stroke-width:800; stroke-opacity:1; 
stroke-linecap:round; stroke-linejoin:round;">
<path d="M45604 32507
L45604 32507
" />
</g> 
</svg>
