<?xml version="1.0" standalone="no"?>
 <!DOCTYPE svg PUBLIC "-//W3C//DTD SVG 1.1//EN" 
 "http://www.w3.org/Graphics/SVG/1.1/DTD/svg11.dtd"> 
<svg xmlns="http://www.w3.org/2000/svg" version="1.1" 
    width="29.7002cm" height="21.0007cm" viewBox="0 0 116930 82680 ">
<title>SVG Picture created as bargraph-F.Mask.svg date 2016/05/11 21:38:27 </title>
  <desc>Picture generated by PCBNEW </desc>
<g style="fill:#000000; fill-opacity:1;stroke:#000000; stroke-opacity:1;
stroke-linecap:round; stroke-linejoin:round; "
 transform="translate(0 0) scale(1 1)">
</g>
<g style="fill:#000000; fill-opacity:0.0; 
stroke:#000000; stroke-width:-0.000393701; stroke-opacity:1; 
stroke-linecap:round; stroke-linejoin:round;">
</g>
<g style="fill:#000000; fill-opacity:0.0; 
stroke:#000000; stroke-width:39.3701; stroke-opacity:1; 
stroke-linecap:round; stroke-linejoin:round;">
</g>
<g style="fill:#000000; fill-opacity:0.0; 
stroke:#000000; stroke-width:59.0551; stroke-opacity:1; 
stroke-linecap:round; stroke-linejoin:round;">
<rect x="69685.9" y="65357.2" width="42519.7" height="12598.4" rx="0" />
</g>
<g style="fill:#000000; fill-opacity:0.0; 
stroke:#000000; stroke-width:39.3701; stroke-opacity:1; 
stroke-linecap:round; stroke-linejoin:round;">
</g>
<g style="fill:#000000; fill-opacity:0.0; 
stroke:#000000; stroke-width:59.0551; stroke-opacity:1; 
stroke-linecap:round; stroke-linejoin:round;">
<rect x="3937.01" y="3937.01" width="109056" height="74806" rx="0" />
</g>
<g style="fill:#000000; fill-opacity:0.0; 
stroke:#000000; stroke-width:39.3701; stroke-opacity:1; 
stroke-linecap:round; stroke-linejoin:round;">
</g>
<g style="fill:#000000; fill-opacity:0.0; 
stroke:#000000; stroke-width:59.0551; stroke-opacity:1; 
stroke-linecap:round; stroke-linejoin:round;">
<rect x="4724.41" y="4724.41" width="107481" height="73231.2" rx="0" />
</g>
<g style="fill:#000000; fill-opacity:0.0; 
stroke:#000000; stroke-width:39.3701; stroke-opacity:1; 
stroke-linecap:round; stroke-linejoin:round;">
</g>
<g style="fill:#000000; fill-opacity:0.0; 
stroke:#000000; stroke-width:59.0551; stroke-opacity:1; 
stroke-linecap:round; stroke-linejoin:round;">
<path d="M23622 4724
L23622 3937
" />
</g>
<g style="fill:#000000; fill-opacity:0.0; 
stroke:#000000; stroke-width:39.3701; stroke-opacity:1; 
stroke-linecap:round; stroke-linejoin:round;">
</g>
<g style="fill:#000000; fill-opacity:0.0; 
stroke:#000000; stroke-width:59.0551; stroke-opacity:1; 
stroke-linecap:round; stroke-linejoin:round;">
<path d="M43307 4724
L43307 3937
" />
</g>
<g style="fill:#000000; fill-opacity:0.0; 
stroke:#000000; stroke-width:39.3701; stroke-opacity:1; 
stroke-linecap:round; stroke-linejoin:round;">
</g>
<g style="fill:#000000; fill-opacity:0.0; 
stroke:#000000; stroke-width:59.0551; stroke-opacity:1; 
stroke-linecap:round; stroke-linejoin:round;">
<path d="M62992 4724
L62992 3937
" />
</g>
<g style="fill:#000000; fill-opacity:0.0; 
stroke:#000000; stroke-width:39.3701; stroke-opacity:1; 
stroke-linecap:round; stroke-linejoin:round;">
</g>
<g style="fill:#000000; fill-opacity:0.0; 
stroke:#000000; stroke-width:59.0551; stroke-opacity:1; 
stroke-linecap:round; stroke-linejoin:round;">
<path d="M82677 4724
L82677 3937
" />
</g>
<g style="fill:#000000; fill-opacity:0.0; 
stroke:#000000; stroke-width:39.3701; stroke-opacity:1; 
stroke-linecap:round; stroke-linejoin:round;">
</g>
<g style="fill:#000000; fill-opacity:0.0; 
stroke:#000000; stroke-width:59.0551; stroke-opacity:1; 
stroke-linecap:round; stroke-linejoin:round;">
<path d="M102362 4724
L102362 3937
" />
</g>
<g style="fill:#000000; fill-opacity:0.0; 
stroke:#000000; stroke-width:39.3701; stroke-opacity:1; 
stroke-linecap:round; stroke-linejoin:round;">
</g>
<g style="fill:#000000; fill-opacity:0.0; 
stroke:#000000; stroke-width:59.0551; stroke-opacity:1; 
stroke-linecap:round; stroke-linejoin:round;">
<path d="M14169 4562
L13877 4562
" />
<path d="M14023 4562
L14023 4050
L13974 4123
L13925 4172
L13877 4196
" />
</g>
<g style="fill:#000000; fill-opacity:0.0; 
stroke:#000000; stroke-width:39.3701; stroke-opacity:1; 
stroke-linecap:round; stroke-linejoin:round;">
</g>
<g style="fill:#000000; fill-opacity:0.0; 
stroke:#000000; stroke-width:59.0551; stroke-opacity:1; 
stroke-linecap:round; stroke-linejoin:round;">
<path d="M33562 4099
L33586 4074
L33635 4050
L33757 4050
L33805 4074
L33830 4099
L33854 4147
L33854 4196
L33830 4269
L33537 4562
L33854 4562
" />
</g>
<g style="fill:#000000; fill-opacity:0.0; 
stroke:#000000; stroke-width:39.3701; stroke-opacity:1; 
stroke-linecap:round; stroke-linejoin:round;">
</g>
<g style="fill:#000000; fill-opacity:0.0; 
stroke:#000000; stroke-width:59.0551; stroke-opacity:1; 
stroke-linecap:round; stroke-linejoin:round;">
<path d="M53222 4050
L53539 4050
L53368 4245
L53442 4245
L53490 4269
L53515 4294
L53539 4342
L53539 4464
L53515 4513
L53490 4537
L53442 4562
L53295 4562
L53247 4537
L53222 4513
" />
</g>
<g style="fill:#000000; fill-opacity:0.0; 
stroke:#000000; stroke-width:39.3701; stroke-opacity:1; 
stroke-linecap:round; stroke-linejoin:round;">
</g>
<g style="fill:#000000; fill-opacity:0.0; 
stroke:#000000; stroke-width:59.0551; stroke-opacity:1; 
stroke-linecap:round; stroke-linejoin:round;">
<path d="M73175 4221
L73175 4562
" />
<path d="M73053 4026
L72932 4391
L73248 4391
" />
</g>
<g style="fill:#000000; fill-opacity:0.0; 
stroke:#000000; stroke-width:39.3701; stroke-opacity:1; 
stroke-linecap:round; stroke-linejoin:round;">
</g>
<g style="fill:#000000; fill-opacity:0.0; 
stroke:#000000; stroke-width:59.0551; stroke-opacity:1; 
stroke-linecap:round; stroke-linejoin:round;">
<path d="M92885 4050
L92641 4050
L92617 4294
L92641 4269
L92690 4245
L92812 4245
L92860 4269
L92885 4294
L92909 4342
L92909 4464
L92885 4513
L92860 4537
L92812 4562
L92690 4562
L92641 4537
L92617 4513
" />
</g>
<g style="fill:#000000; fill-opacity:0.0; 
stroke:#000000; stroke-width:39.3701; stroke-opacity:1; 
stroke-linecap:round; stroke-linejoin:round;">
</g>
<g style="fill:#000000; fill-opacity:0.0; 
stroke:#000000; stroke-width:59.0551; stroke-opacity:1; 
stroke-linecap:round; stroke-linejoin:round;">
<path d="M112545 4050
L112448 4050
L112399 4074
L112375 4099
L112326 4172
L112302 4269
L112302 4464
L112326 4513
L112350 4537
L112399 4562
L112497 4562
L112545 4537
L112570 4513
L112594 4464
L112594 4342
L112570 4294
L112545 4269
L112497 4245
L112399 4245
L112350 4269
L112326 4294
L112302 4342
" />
</g>
<g style="fill:#000000; fill-opacity:0.0; 
stroke:#000000; stroke-width:39.3701; stroke-opacity:1; 
stroke-linecap:round; stroke-linejoin:round;">
</g>
<g style="fill:#000000; fill-opacity:0.0; 
stroke:#000000; stroke-width:59.0551; stroke-opacity:1; 
stroke-linecap:round; stroke-linejoin:round;">
<path d="M23622 77955
L23622 78742
" />
</g>
<g style="fill:#000000; fill-opacity:0.0; 
stroke:#000000; stroke-width:39.3701; stroke-opacity:1; 
stroke-linecap:round; stroke-linejoin:round;">
</g>
<g style="fill:#000000; fill-opacity:0.0; 
stroke:#000000; stroke-width:59.0551; stroke-opacity:1; 
stroke-linecap:round; stroke-linejoin:round;">
<path d="M43307 77955
L43307 78742
" />
</g>
<g style="fill:#000000; fill-opacity:0.0; 
stroke:#000000; stroke-width:39.3701; stroke-opacity:1; 
stroke-linecap:round; stroke-linejoin:round;">
</g>
<g style="fill:#000000; fill-opacity:0.0; 
stroke:#000000; stroke-width:59.0551; stroke-opacity:1; 
stroke-linecap:round; stroke-linejoin:round;">
<path d="M62992 77955
L62992 78742
" />
</g>
<g style="fill:#000000; fill-opacity:0.0; 
stroke:#000000; stroke-width:39.3701; stroke-opacity:1; 
stroke-linecap:round; stroke-linejoin:round;">
</g>
<g style="fill:#000000; fill-opacity:0.0; 
stroke:#000000; stroke-width:59.0551; stroke-opacity:1; 
stroke-linecap:round; stroke-linejoin:round;">
<path d="M82677 77955
L82677 78742
" />
</g>
<g style="fill:#000000; fill-opacity:0.0; 
stroke:#000000; stroke-width:39.3701; stroke-opacity:1; 
stroke-linecap:round; stroke-linejoin:round;">
</g>
<g style="fill:#000000; fill-opacity:0.0; 
stroke:#000000; stroke-width:59.0551; stroke-opacity:1; 
stroke-linecap:round; stroke-linejoin:round;">
<path d="M102362 77955
L102362 78742
" />
</g>
<g style="fill:#000000; fill-opacity:0.0; 
stroke:#000000; stroke-width:39.3701; stroke-opacity:1; 
stroke-linecap:round; stroke-linejoin:round;">
</g>
<g style="fill:#000000; fill-opacity:0.0; 
stroke:#000000; stroke-width:59.0551; stroke-opacity:1; 
stroke-linecap:round; stroke-linejoin:round;">
<path d="M14169 78580
L13877 78580
" />
<path d="M14023 78580
L14023 78069
L13974 78142
L13925 78190
L13877 78215
" />
</g>
<g style="fill:#000000; fill-opacity:0.0; 
stroke:#000000; stroke-width:39.3701; stroke-opacity:1; 
stroke-linecap:round; stroke-linejoin:round;">
</g>
<g style="fill:#000000; fill-opacity:0.0; 
stroke:#000000; stroke-width:59.0551; stroke-opacity:1; 
stroke-linecap:round; stroke-linejoin:round;">
<path d="M33562 78117
L33586 78093
L33635 78069
L33757 78069
L33805 78093
L33830 78117
L33854 78166
L33854 78215
L33830 78288
L33537 78580
L33854 78580
" />
</g>
<g style="fill:#000000; fill-opacity:0.0; 
stroke:#000000; stroke-width:39.3701; stroke-opacity:1; 
stroke-linecap:round; stroke-linejoin:round;">
</g>
<g style="fill:#000000; fill-opacity:0.0; 
stroke:#000000; stroke-width:59.0551; stroke-opacity:1; 
stroke-linecap:round; stroke-linejoin:round;">
<path d="M53222 78069
L53539 78069
L53368 78263
L53442 78263
L53490 78288
L53515 78312
L53539 78361
L53539 78483
L53515 78532
L53490 78556
L53442 78580
L53295 78580
L53247 78556
L53222 78532
" />
</g>
<g style="fill:#000000; fill-opacity:0.0; 
stroke:#000000; stroke-width:39.3701; stroke-opacity:1; 
stroke-linecap:round; stroke-linejoin:round;">
</g>
<g style="fill:#000000; fill-opacity:0.0; 
stroke:#000000; stroke-width:59.0551; stroke-opacity:1; 
stroke-linecap:round; stroke-linejoin:round;">
<path d="M73175 78239
L73175 78580
" />
<path d="M73053 78044
L72932 78410
L73248 78410
" />
</g>
<g style="fill:#000000; fill-opacity:0.0; 
stroke:#000000; stroke-width:39.3701; stroke-opacity:1; 
stroke-linecap:round; stroke-linejoin:round;">
</g>
<g style="fill:#000000; fill-opacity:0.0; 
stroke:#000000; stroke-width:59.0551; stroke-opacity:1; 
stroke-linecap:round; stroke-linejoin:round;">
<path d="M92885 78069
L92641 78069
L92617 78312
L92641 78288
L92690 78263
L92812 78263
L92860 78288
L92885 78312
L92909 78361
L92909 78483
L92885 78532
L92860 78556
L92812 78580
L92690 78580
L92641 78556
L92617 78532
" />
</g>
<g style="fill:#000000; fill-opacity:0.0; 
stroke:#000000; stroke-width:39.3701; stroke-opacity:1; 
stroke-linecap:round; stroke-linejoin:round;">
</g>
<g style="fill:#000000; fill-opacity:0.0; 
stroke:#000000; stroke-width:59.0551; stroke-opacity:1; 
stroke-linecap:round; stroke-linejoin:round;">
<path d="M112545 78069
L112448 78069
L112399 78093
L112375 78117
L112326 78190
L112302 78288
L112302 78483
L112326 78532
L112350 78556
L112399 78580
L112497 78580
L112545 78556
L112570 78532
L112594 78483
L112594 78361
L112570 78312
L112545 78288
L112497 78263
L112399 78263
L112350 78288
L112326 78312
L112302 78361
" />
</g>
<g style="fill:#000000; fill-opacity:0.0; 
stroke:#000000; stroke-width:39.3701; stroke-opacity:1; 
stroke-linecap:round; stroke-linejoin:round;">
</g>
<g style="fill:#000000; fill-opacity:0.0; 
stroke:#000000; stroke-width:59.0551; stroke-opacity:1; 
stroke-linecap:round; stroke-linejoin:round;">
<path d="M3937 23622
L4724 23622
" />
</g>
<g style="fill:#000000; fill-opacity:0.0; 
stroke:#000000; stroke-width:39.3701; stroke-opacity:1; 
stroke-linecap:round; stroke-linejoin:round;">
</g>
<g style="fill:#000000; fill-opacity:0.0; 
stroke:#000000; stroke-width:59.0551; stroke-opacity:1; 
stroke-linecap:round; stroke-linejoin:round;">
<path d="M3937 43307
L4724 43307
" />
</g>
<g style="fill:#000000; fill-opacity:0.0; 
stroke:#000000; stroke-width:39.3701; stroke-opacity:1; 
stroke-linecap:round; stroke-linejoin:round;">
</g>
<g style="fill:#000000; fill-opacity:0.0; 
stroke:#000000; stroke-width:59.0551; stroke-opacity:1; 
stroke-linecap:round; stroke-linejoin:round;">
<path d="M3937 62992
L4724 62992
" />
</g>
<g style="fill:#000000; fill-opacity:0.0; 
stroke:#000000; stroke-width:39.3701; stroke-opacity:1; 
stroke-linecap:round; stroke-linejoin:round;">
</g>
<g style="fill:#000000; fill-opacity:0.0; 
stroke:#000000; stroke-width:59.0551; stroke-opacity:1; 
stroke-linecap:round; stroke-linejoin:round;">
<path d="M4179 13864
L4423 13864
" />
<path d="M4130 14011
L4301 13499
L4471 14011
" />
</g>
<g style="fill:#000000; fill-opacity:0.0; 
stroke:#000000; stroke-width:39.3701; stroke-opacity:1; 
stroke-linecap:round; stroke-linejoin:round;">
</g>
<g style="fill:#000000; fill-opacity:0.0; 
stroke:#000000; stroke-width:59.0551; stroke-opacity:1; 
stroke-linecap:round; stroke-linejoin:round;">
<path d="M4337 33428
L4410 33452
L4435 33476
L4459 33525
L4459 33598
L4435 33647
L4410 33671
L4362 33696
L4167 33696
L4167 33184
L4337 33184
L4386 33208
L4410 33233
L4435 33281
L4435 33330
L4410 33379
L4386 33403
L4337 33428
L4167 33428
" />
</g>
<g style="fill:#000000; fill-opacity:0.0; 
stroke:#000000; stroke-width:39.3701; stroke-opacity:1; 
stroke-linecap:round; stroke-linejoin:round;">
</g>
<g style="fill:#000000; fill-opacity:0.0; 
stroke:#000000; stroke-width:59.0551; stroke-opacity:1; 
stroke-linecap:round; stroke-linejoin:round;">
<path d="M4459 53332
L4435 53356
L4362 53381
L4313 53381
L4240 53356
L4191 53308
L4167 53259
L4142 53161
L4142 53088
L4167 52991
L4191 52942
L4240 52893
L4313 52869
L4362 52869
L4435 52893
L4459 52918
" />
</g>
<g style="fill:#000000; fill-opacity:0.0; 
stroke:#000000; stroke-width:39.3701; stroke-opacity:1; 
stroke-linecap:round; stroke-linejoin:round;">
</g>
<g style="fill:#000000; fill-opacity:0.0; 
stroke:#000000; stroke-width:59.0551; stroke-opacity:1; 
stroke-linecap:round; stroke-linejoin:round;">
<path d="M4167 73066
L4167 72554
L4288 72554
L4362 72578
L4410 72627
L4435 72676
L4459 72773
L4459 72846
L4435 72944
L4410 72993
L4362 73041
L4288 73066
L4167 73066
" />
</g>
<g style="fill:#000000; fill-opacity:0.0; 
stroke:#000000; stroke-width:39.3701; stroke-opacity:1; 
stroke-linecap:round; stroke-linejoin:round;">
</g>
<g style="fill:#000000; fill-opacity:0.0; 
stroke:#000000; stroke-width:59.0551; stroke-opacity:1; 
stroke-linecap:round; stroke-linejoin:round;">
<path d="M112992 23622
L112205 23622
" />
</g>
<g style="fill:#000000; fill-opacity:0.0; 
stroke:#000000; stroke-width:39.3701; stroke-opacity:1; 
stroke-linecap:round; stroke-linejoin:round;">
</g>
<g style="fill:#000000; fill-opacity:0.0; 
stroke:#000000; stroke-width:59.0551; stroke-opacity:1; 
stroke-linecap:round; stroke-linejoin:round;">
<path d="M112992 43307
L112205 43307
" />
</g>
<g style="fill:#000000; fill-opacity:0.0; 
stroke:#000000; stroke-width:39.3701; stroke-opacity:1; 
stroke-linecap:round; stroke-linejoin:round;">
</g>
<g style="fill:#000000; fill-opacity:0.0; 
stroke:#000000; stroke-width:59.0551; stroke-opacity:1; 
stroke-linecap:round; stroke-linejoin:round;">
<path d="M112992 62992
L112205 62992
" />
</g>
<g style="fill:#000000; fill-opacity:0.0; 
stroke:#000000; stroke-width:39.3701; stroke-opacity:1; 
stroke-linecap:round; stroke-linejoin:round;">
</g>
<g style="fill:#000000; fill-opacity:0.0; 
stroke:#000000; stroke-width:59.0551; stroke-opacity:1; 
stroke-linecap:round; stroke-linejoin:round;">
<path d="M112447 13864
L112691 13864
" />
<path d="M112399 14011
L112569 13499
L112740 14011
" />
</g>
<g style="fill:#000000; fill-opacity:0.0; 
stroke:#000000; stroke-width:39.3701; stroke-opacity:1; 
stroke-linecap:round; stroke-linejoin:round;">
</g>
<g style="fill:#000000; fill-opacity:0.0; 
stroke:#000000; stroke-width:59.0551; stroke-opacity:1; 
stroke-linecap:round; stroke-linejoin:round;">
<path d="M112606 33428
L112679 33452
L112703 33476
L112728 33525
L112728 33598
L112703 33647
L112679 33671
L112630 33696
L112435 33696
L112435 33184
L112606 33184
L112655 33208
L112679 33233
L112703 33281
L112703 33330
L112679 33379
L112655 33403
L112606 33428
L112435 33428
" />
</g>
<g style="fill:#000000; fill-opacity:0.0; 
stroke:#000000; stroke-width:39.3701; stroke-opacity:1; 
stroke-linecap:round; stroke-linejoin:round;">
</g>
<g style="fill:#000000; fill-opacity:0.0; 
stroke:#000000; stroke-width:59.0551; stroke-opacity:1; 
stroke-linecap:round; stroke-linejoin:round;">
<path d="M112728 53332
L112703 53356
L112630 53381
L112581 53381
L112508 53356
L112460 53308
L112435 53259
L112411 53161
L112411 53088
L112435 52991
L112460 52942
L112508 52893
L112581 52869
L112630 52869
L112703 52893
L112728 52918
" />
</g>
<g style="fill:#000000; fill-opacity:0.0; 
stroke:#000000; stroke-width:39.3701; stroke-opacity:1; 
stroke-linecap:round; stroke-linejoin:round;">
</g>
<g style="fill:#000000; fill-opacity:0.0; 
stroke:#000000; stroke-width:59.0551; stroke-opacity:1; 
stroke-linecap:round; stroke-linejoin:round;">
<path d="M112435 73066
L112435 72554
L112557 72554
L112630 72578
L112679 72627
L112703 72676
L112728 72773
L112728 72846
L112703 72944
L112679 72993
L112630 73041
L112557 73066
L112435 73066
" />
</g>
<g style="fill:#000000; fill-opacity:0.0; 
stroke:#000000; stroke-width:39.3701; stroke-opacity:1; 
stroke-linecap:round; stroke-linejoin:round;">
</g>
<g style="fill:#000000; fill-opacity:0.0; 
stroke:#000000; stroke-width:59.0551; stroke-opacity:1; 
stroke-linecap:round; stroke-linejoin:round;">
<path d="M78881 76293
L78881 75703
L79022 75703
L79106 75731
L79162 75787
L79190 75843
L79219 75956
L79219 76040
L79190 76153
L79162 76209
L79106 76265
L79022 76293
L78881 76293
" />
<path d="M79725 76293
L79725 75984
L79697 75928
L79640 75899
L79528 75899
L79472 75928
" />
<path d="M79725 76265
L79669 76293
L79528 76293
L79472 76265
L79444 76209
L79444 76153
L79472 76096
L79528 76068
L79669 76068
L79725 76040
" />
<path d="M79922 75899
L80147 75899
" />
<path d="M80006 75703
L80006 76209
L80034 76265
L80090 76293
L80147 76293
" />
<path d="M80568 76265
L80512 76293
L80400 76293
L80343 76265
L80315 76209
L80315 75984
L80343 75928
L80400 75899
L80512 75899
L80568 75928
L80597 75984
L80597 76040
L80315 76096
" />
<path d="M80850 76237
L80878 76265
L80850 76293
L80822 76265
L80850 76237
L80850 76293
" />
<path d="M80850 75928
L80878 75956
L80850 75984
L80822 75956
L80850 75928
L80850 75984
" />
</g>
<g style="fill:#000000; fill-opacity:0.0; 
stroke:#000000; stroke-width:39.3701; stroke-opacity:1; 
stroke-linecap:round; stroke-linejoin:round;">
</g>
<g style="fill:#000000; fill-opacity:0.0; 
stroke:#000000; stroke-width:59.0551; stroke-opacity:1; 
stroke-linecap:round; stroke-linejoin:round;">
<path d="M69685 76577
L112205 76577
" />
</g>
<g style="fill:#000000; fill-opacity:0.0; 
stroke:#000000; stroke-width:39.3701; stroke-opacity:1; 
stroke-linecap:round; stroke-linejoin:round;">
</g>
<g style="fill:#000000; fill-opacity:0.0; 
stroke:#000000; stroke-width:59.0551; stroke-opacity:1; 
stroke-linecap:round; stroke-linejoin:round;">
<path d="M70220 77395
L70220 76805
" />
<path d="M70557 77395
L70304 77058
" />
<path d="M70557 76805
L70220 77142
" />
<path d="M70810 77395
L70810 77002
" />
<path d="M70810 76805
L70782 76833
L70810 76861
L70838 76833
L70810 76805
L70810 76861
" />
<path d="M71429 77339
L71401 77367
L71316 77395
L71260 77395
L71176 77367
L71120 77311
L71091 77255
L71063 77142
L71063 77058
L71091 76946
L71120 76889
L71176 76833
L71260 76805
L71316 76805
L71401 76833
L71429 76861
" />
<path d="M71935 77395
L71935 77086
L71907 77030
L71851 77002
L71738 77002
L71682 77030
" />
<path d="M71935 77367
L71879 77395
L71738 77395
L71682 77367
L71654 77311
L71654 77255
L71682 77199
L71738 77171
L71879 77171
L71935 77142
" />
<path d="M72469 77395
L72469 76805
" />
<path d="M72469 77367
L72413 77395
L72301 77395
L72244 77367
L72216 77339
L72188 77283
L72188 77114
L72216 77058
L72244 77030
L72301 77002
L72413 77002
L72469 77030
" />
<path d="M73201 77086
L73397 77086
" />
<path d="M73482 77395
L73201 77395
L73201 76805
L73482 76805
" />
<path d="M73735 77339
L73763 77367
L73735 77395
L73707 77367
L73735 77339
L73735 77395
" />
<path d="M74016 77395
L74016 76805
L74157 76805
L74241 76833
L74297 76889
L74325 76946
L74354 77058
L74354 77142
L74325 77255
L74297 77311
L74241 77367
L74157 77395
L74016 77395
" />
<path d="M74607 77339
L74635 77367
L74607 77395
L74579 77367
L74607 77339
L74607 77395
" />
<path d="M74860 77227
L75141 77227
" />
<path d="M74804 77395
L75000 76805
L75197 77395
" />
<path d="M75394 77339
L75422 77367
L75394 77395
L75366 77367
L75394 77339
L75394 77395
" />
<path d="M76575 77395
L76575 76805
" />
<path d="M76631 77171
L76800 77395
" />
<path d="M76800 77002
L76575 77227
" />
<path d="M77053 77395
L77053 77002
" />
<path d="M77053 76805
L77025 76833
L77053 76861
L77081 76833
L77053 76805
L77053 76861
" />
<path d="M77588 77367
L77531 77395
L77419 77395
L77363 77367
L77334 77339
L77306 77283
L77306 77114
L77334 77058
L77363 77030
L77419 77002
L77531 77002
L77588 77030
" />
<path d="M78094 77395
L78094 77086
L78066 77030
L78009 77002
L77897 77002
L77841 77030
" />
<path d="M78094 77367
L78037 77395
L77897 77395
L77841 77367
L77813 77311
L77813 77255
L77841 77199
L77897 77171
L78037 77171
L78094 77142
" />
<path d="M78628 77395
L78628 76805
" />
<path d="M78628 77367
L78572 77395
L78459 77395
L78403 77367
L78375 77339
L78347 77283
L78347 77114
L78375 77058
L78403 77030
L78459 77002
L78572 77002
L78628 77030
" />
<path d="M79528 77620
L79500 77592
L79444 77508
L79415 77452
L79387 77367
L79359 77227
L79359 77114
L79387 76974
L79415 76889
L79444 76833
L79500 76749
L79528 76721
" />
<path d="M79725 76861
L79753 76833
L79809 76805
L79950 76805
L80006 76833
L80034 76861
L80062 76917
L80062 76974
L80034 77058
L79697 77395
L80062 77395
" />
<path d="M80428 76805
L80484 76805
L80540 76833
L80568 76861
L80597 76917
L80625 77030
L80625 77171
L80597 77283
L80568 77339
L80540 77367
L80484 77395
L80428 77395
L80372 77367
L80343 77339
L80315 77283
L80287 77171
L80287 77030
L80315 76917
L80343 76861
L80372 76833
L80428 76805
" />
<path d="M81187 77395
L80850 77395
" />
<path d="M81018 77395
L81018 76805
L80962 76889
L80906 76946
L80850 76974
" />
<path d="M81693 76805
L81581 76805
L81525 76833
L81496 76861
L81440 76946
L81412 77058
L81412 77283
L81440 77339
L81468 77367
L81525 77395
L81637 77395
L81693 77367
L81721 77339
L81750 77283
L81750 77142
L81721 77086
L81693 77058
L81637 77030
L81525 77030
L81468 77058
L81440 77086
L81412 77142
" />
<path d="M82003 77171
L82453 77171
" />
<path d="M82846 76805
L82903 76805
L82959 76833
L82987 76861
L83015 76917
L83043 77030
L83043 77171
L83015 77283
L82987 77339
L82959 77367
L82903 77395
L82846 77395
L82790 77367
L82762 77339
L82734 77283
L82706 77171
L82706 77030
L82734 76917
L82762 76861
L82790 76833
L82846 76805
" />
<path d="M83549 77002
L83549 77395
" />
<path d="M83409 76777
L83268 77199
L83634 77199
" />
<path d="M83859 77171
L84309 77171
" />
<path d="M84899 77395
L84562 77395
" />
<path d="M84730 77395
L84730 76805
L84674 76889
L84618 76946
L84562 76974
" />
<path d="M85096 76805
L85490 76805
L85237 77395
" />
<path d="M86361 77086
L86446 77114
L86474 77142
L86502 77199
L86502 77283
L86474 77339
L86446 77367
L86390 77395
L86165 77395
L86165 76805
L86361 76805
L86418 76833
L86446 76861
L86474 76917
L86474 76974
L86446 77030
L86418 77058
L86361 77086
L86165 77086
" />
<path d="M86699 76805
L87093 76805
L86699 77395
L87093 77395
" />
<path d="M87655 77395
L87458 77114
" />
<path d="M87318 77395
L87318 76805
L87543 76805
L87599 76833
L87627 76861
L87655 76917
L87655 77002
L87627 77058
L87599 77086
L87543 77114
L87318 77114
" />
<path d="M88611 76805
L88499 76805
L88442 76833
L88414 76861
L88358 76946
L88330 77058
L88330 77283
L88358 77339
L88386 77367
L88442 77395
L88555 77395
L88611 77367
L88639 77339
L88667 77283
L88667 77142
L88639 77086
L88611 77058
L88555 77030
L88442 77030
L88386 77058
L88358 77086
L88330 77142
" />
<path d="M89174 76805
L89061 76805
L89005 76833
L88977 76861
L88921 76946
L88892 77058
L88892 77283
L88921 77339
L88949 77367
L89005 77395
L89117 77395
L89174 77367
L89202 77339
L89230 77283
L89230 77142
L89202 77086
L89174 77058
L89117 77030
L89005 77030
L88949 77058
L88921 77086
L88892 77142
" />
<path d="M89511 77395
L89624 77395
L89680 77367
L89708 77339
L89764 77255
L89792 77142
L89792 76917
L89764 76861
L89736 76833
L89680 76805
L89567 76805
L89511 76833
L89483 76861
L89455 76917
L89455 77058
L89483 77114
L89511 77142
L89567 77171
L89680 77171
L89736 77142
L89764 77114
L89792 77058
" />
<path d="M89989 76805
L90383 76805
L90130 77395
" />
<path d="M90636 77367
L90636 77395
L90608 77452
L90580 77480
" />
<path d="M91648 76833
L91592 76805
L91508 76805
L91423 76833
L91367 76889
L91339 76946
L91311 77058
L91311 77142
L91339 77255
L91367 77311
L91423 77367
L91508 77395
L91564 77395
L91648 77367
L91676 77339
L91676 77142
L91564 77142
" />
<path d="M91929 77395
L91929 77002
" />
<path d="M91929 76805
L91901 76833
L91929 76861
L91958 76833
L91929 76805
L91929 76861
" />
<path d="M92126 77002
L92351 77002
" />
<path d="M92211 76805
L92211 77311
L92239 77367
L92295 77395
L92351 77395
" />
<path d="M93251 76805
L93139 76805
L93082 76833
L93054 76861
L92998 76946
L92970 77058
L92970 77283
L92998 77339
L93026 77367
L93082 77395
L93195 77395
L93251 77367
L93279 77339
L93307 77283
L93307 77142
L93279 77086
L93251 77058
L93195 77030
L93082 77030
L93026 77058
L92998 77086
L92970 77142
" />
<path d="M93870 77395
L93532 77395
" />
<path d="M93701 77395
L93701 76805
L93645 76889
L93589 76946
L93532 76974
" />
<path d="M94095 76861
L94123 76833
L94179 76805
L94320 76805
L94376 76833
L94404 76861
L94432 76917
L94432 76974
L94404 77058
L94067 77395
L94432 77395
" />
<path d="M94798 76805
L94854 76805
L94910 76833
L94938 76861
L94967 76917
L94995 77030
L94995 77171
L94967 77283
L94938 77339
L94910 77367
L94854 77395
L94798 77395
L94742 77367
L94714 77339
L94685 77283
L94657 77171
L94657 77030
L94685 76917
L94714 76861
L94742 76833
L94798 76805
" />
<path d="M95501 77002
L95501 77395
" />
<path d="M95360 76777
L95220 77199
L95585 77199
" />
<path d="M95754 76805
L96148 76805
L95895 77395
" />
<path d="M96345 76861
L96373 76833
L96429 76805
L96570 76805
L96626 76833
L96654 76861
L96682 76917
L96682 76974
L96654 77058
L96316 77395
L96682 77395
" />
<path d="M96879 77620
L96907 77592
L96963 77508
L96991 77452
L97019 77367
L97048 77227
L97048 77114
L97019 76974
L96991 76889
L96963 76833
L96907 76749
L96879 76721
" />
<path d="M97329 77171
L97779 77171
" />
<path d="M98060 77002
L98060 77592
" />
<path d="M98060 77030
L98116 77002
L98229 77002
L98285 77030
L98313 77058
L98341 77114
L98341 77283
L98313 77339
L98285 77367
L98229 77395
L98116 77395
L98060 77367
" />
<path d="M98594 77395
L98594 77002
" />
<path d="M98594 77114
L98622 77058
L98651 77030
L98707 77002
L98763 77002
" />
<path d="M99044 77395
L98988 77367
L98960 77339
L98932 77283
L98932 77114
L98960 77058
L98988 77030
L99044 77002
L99129 77002
L99185 77030
L99213 77058
L99241 77114
L99241 77283
L99213 77339
L99185 77367
L99129 77395
L99044 77395
" />
<path d="M99747 77395
L99747 76805
" />
<path d="M99747 77367
L99691 77395
L99579 77395
L99522 77367
L99494 77339
L99466 77283
L99466 77114
L99494 77058
L99522 77030
L99579 77002
L99691 77002
L99747 77030
" />
<path d="M100282 77002
L100282 77395
" />
<path d="M100028 77002
L100028 77311
L100057 77367
L100113 77395
L100197 77395
L100253 77367
L100282 77339
" />
<path d="M100816 77367
L100760 77395
L100647 77395
L100591 77367
L100563 77339
L100535 77283
L100535 77114
L100563 77058
L100591 77030
L100647 77002
L100760 77002
L100816 77030
" />
<path d="M100985 77002
L101210 77002
" />
<path d="M101069 76805
L101069 77311
L101097 77367
L101153 77395
L101210 77395
" />
</g>
<g style="fill:#000000; fill-opacity:0.0; 
stroke:#000000; stroke-width:39.3701; stroke-opacity:1; 
stroke-linecap:round; stroke-linejoin:round;">
</g>
<g style="fill:#000000; fill-opacity:0.0; 
stroke:#000000; stroke-width:59.0551; stroke-opacity:1; 
stroke-linecap:round; stroke-linejoin:round;">
<path d="M69685 75396
L112205 75396
" />
</g>
<g style="fill:#000000; fill-opacity:0.0; 
stroke:#000000; stroke-width:39.3701; stroke-opacity:1; 
stroke-linecap:round; stroke-linejoin:round;">
</g>
<g style="fill:#000000; fill-opacity:0.0; 
stroke:#000000; stroke-width:118.11; stroke-opacity:1; 
stroke-linecap:round; stroke-linejoin:round;">
<path d="M104022 76293
L103825 76012
" />
<path d="M103684 76293
L103684 75703
L103909 75703
L103965 75731
L103994 75759
L104022 75815
L104022 75899
L103994 75956
L103965 75984
L103909 76012
L103684 76012
" />
<path d="M104500 76265
L104444 76293
L104331 76293
L104275 76265
L104247 76209
L104247 75984
L104275 75928
L104331 75899
L104444 75899
L104500 75928
L104528 75984
L104528 76040
L104247 76096
" />
<path d="M104725 75899
L104865 76293
L105006 75899
" />
<path d="M105231 76237
L105259 76265
L105231 76293
L105203 76265
L105231 76237
L105231 76293
" />
<path d="M105231 75928
L105259 75956
L105231 75984
L105203 75956
L105231 75928
L105231 75984
" />
</g>
<g style="fill:#000000; fill-opacity:0.0; 
stroke:#000000; stroke-width:39.3701; stroke-opacity:1; 
stroke-linecap:round; stroke-linejoin:round;">
</g>
<g style="fill:#000000; fill-opacity:0.0; 
stroke:#000000; stroke-width:59.0551; stroke-opacity:1; 
stroke-linecap:round; stroke-linejoin:round;">
<path d="M70192 76265
L70276 76293
L70417 76293
L70473 76265
L70501 76237
L70529 76181
L70529 76124
L70501 76068
L70473 76040
L70417 76012
L70304 75984
L70248 75956
L70220 75928
L70192 75871
L70192 75815
L70220 75759
L70248 75731
L70304 75703
L70445 75703
L70529 75731
" />
<path d="M70782 76293
L70782 75899
" />
<path d="M70782 75703
L70754 75731
L70782 75759
L70810 75731
L70782 75703
L70782 75759
" />
<path d="M71007 75899
L71316 75899
L71007 76293
L71316 76293
" />
<path d="M71766 76265
L71710 76293
L71598 76293
L71541 76265
L71513 76209
L71513 75984
L71541 75928
L71598 75899
L71710 75899
L71766 75928
L71795 75984
L71795 76040
L71513 76096
" />
<path d="M72048 76237
L72076 76265
L72048 76293
L72019 76265
L72048 76237
L72048 76293
" />
<path d="M72048 75928
L72076 75956
L72048 75984
L72019 75956
L72048 75928
L72048 75984
" />
<path d="M72751 76124
L73032 76124
" />
<path d="M72694 76293
L72891 75703
L73088 76293
" />
<path d="M73538 75899
L73538 76293
" />
<path d="M73397 75674
L73257 76096
L73622 76096
" />
</g>
<g style="fill:#000000; fill-opacity:0.0; 
stroke:#000000; stroke-width:39.3701; stroke-opacity:1; 
stroke-linecap:round; stroke-linejoin:round;">
</g>
<g style="fill:#000000; fill-opacity:0.0; 
stroke:#000000; stroke-width:59.0551; stroke-opacity:1; 
stroke-linecap:round; stroke-linejoin:round;">
<path d="M103684 77395
L103684 76805
" />
<path d="M104219 77395
L104219 76805
" />
<path d="M104219 77367
L104162 77395
L104050 77395
L103994 77367
L103965 77339
L103937 77283
L103937 77114
L103965 77058
L103994 77030
L104050 77002
L104162 77002
L104219 77030
" />
<path d="M104500 77339
L104528 77367
L104500 77395
L104472 77367
L104500 77339
L104500 77395
" />
<path d="M104500 77030
L104528 77058
L104500 77086
L104472 77058
L104500 77030
L104500 77086
" />
<path d="M105540 77395
L105203 77395
" />
<path d="M105372 77395
L105372 76805
L105315 76889
L105259 76946
L105203 76974
" />
<path d="M106215 76777
L105709 77536
" />
<path d="M106721 77395
L106384 77395
" />
<path d="M106553 77395
L106553 76805
L106496 76889
L106440 76946
L106384 76974
" />
</g>
<g style="fill:#000000; fill-opacity:0.0; 
stroke:#000000; stroke-width:39.3701; stroke-opacity:1; 
stroke-linecap:round; stroke-linejoin:round;">
</g>
<g style="fill:#000000; fill-opacity:0.0; 
stroke:#000000; stroke-width:59.0551; stroke-opacity:1; 
stroke-linecap:round; stroke-linejoin:round;">
<path d="M69685 73821
L112205 73821
" />
</g>
<g style="fill:#000000; fill-opacity:0.0; 
stroke:#000000; stroke-width:39.3701; stroke-opacity:1; 
stroke-linecap:round; stroke-linejoin:round;">
</g>
<g style="fill:#000000; fill-opacity:0.0; 
stroke:#000000; stroke-width:157.48; stroke-opacity:1; 
stroke-linecap:round; stroke-linejoin:round;">
<path d="M70257 74099
L70707 74099
" />
<path d="M70384 74886
L70482 74099
" />
<path d="M70871 74886
L70937 74361
" />
<path d="M70970 74099
L70927 74136
L70960 74174
L71002 74136
L70970 74099
L70960 74174
" />
<path d="M71199 74361
L71499 74361
" />
<path d="M71345 74099
L71260 74774
L71288 74849
L71359 74886
L71434 74886
" />
<path d="M71809 74886
L71738 74849
L71710 74774
L71795 74099
" />
<path d="M72413 74849
L72334 74886
L72184 74886
L72113 74849
L72085 74774
L72123 74474
L72169 74399
L72249 74361
L72399 74361
L72469 74399
L72498 74474
L72488 74549
L72104 74624
" />
<path d="M72793 74811
L72826 74849
L72783 74886
L72751 74849
L72793 74811
L72783 74886
" />
<path d="M72844 74399
L72877 74436
L72835 74474
L72802 74436
L72844 74399
L72835 74474
" />
</g>
<g style="fill:#000000; fill-opacity:0.0; 
stroke:#000000; stroke-width:39.3701; stroke-opacity:1; 
stroke-linecap:round; stroke-linejoin:round;">
</g>
<g style="fill:#000000; fill-opacity:0.0; 
stroke:#000000; stroke-width:59.0551; stroke-opacity:1; 
stroke-linecap:round; stroke-linejoin:round;">
<path d="M70417 73070
L70220 73070
" />
<path d="M70220 73380
L70220 72789
L70501 72789
" />
<path d="M70726 73380
L70726 72986
" />
<path d="M70726 72789
L70698 72817
L70726 72845
L70754 72817
L70726 72789
L70726 72845
" />
<path d="M71091 73380
L71035 73352
L71007 73295
L71007 72789
" />
<path d="M71541 73352
L71485 73380
L71373 73380
L71316 73352
L71288 73295
L71288 73070
L71316 73014
L71373 72986
L71485 72986
L71541 73014
L71570 73070
L71570 73127
L71288 73183
" />
<path d="M71823 73323
L71851 73352
L71823 73380
L71795 73352
L71823 73323
L71823 73380
" />
<path d="M71823 73014
L71851 73042
L71823 73070
L71795 73042
L71823 73014
L71823 73070
" />
<path d="M72554 73380
L72554 72789
" />
<path d="M72554 73014
L72610 72986
L72723 72986
L72779 73014
L72807 73042
L72835 73099
L72835 73267
L72807 73323
L72779 73352
L72723 73380
L72610 73380
L72554 73352
" />
<path d="M73341 73380
L73341 73070
L73313 73014
L73257 72986
L73144 72986
L73088 73014
" />
<path d="M73341 73352
L73285 73380
L73144 73380
L73088 73352
L73060 73295
L73060 73239
L73088 73183
L73144 73155
L73285 73155
L73341 73127
" />
<path d="M73622 73380
L73622 72986
" />
<path d="M73622 73099
L73651 73042
L73679 73014
L73735 72986
L73791 72986
" />
<path d="M74241 72986
L74241 73464
L74213 73520
L74185 73548
L74129 73577
L74044 73577
L73988 73548
" />
<path d="M74241 73352
L74185 73380
L74072 73380
L74016 73352
L73988 73323
L73960 73267
L73960 73099
L73988 73042
L74016 73014
L74072 72986
L74185 72986
L74241 73014
" />
<path d="M74522 73380
L74522 72986
" />
<path d="M74522 73099
L74550 73042
L74579 73014
L74635 72986
L74691 72986
" />
<path d="M75141 73380
L75141 73070
L75113 73014
L75057 72986
L74944 72986
L74888 73014
" />
<path d="M75141 73352
L75085 73380
L74944 73380
L74888 73352
L74860 73295
L74860 73239
L74888 73183
L74944 73155
L75085 73155
L75141 73127
" />
<path d="M75422 72986
L75422 73577
" />
<path d="M75422 73014
L75478 72986
L75591 72986
L75647 73014
L75675 73042
L75703 73099
L75703 73267
L75675 73323
L75647 73352
L75591 73380
L75478 73380
L75422 73352
" />
<path d="M75956 73380
L75956 72789
" />
<path d="M76210 73380
L76210 73070
L76181 73014
L76125 72986
L76041 72986
L75985 73014
L75956 73042
" />
<path d="M76491 73323
L76519 73352
L76491 73380
L76463 73352
L76491 73323
L76491 73380
" />
<path d="M76772 73380
L76772 72789
" />
<path d="M76828 73155
L76997 73380
" />
<path d="M76997 72986
L76772 73211
" />
<path d="M77250 73380
L77250 72986
" />
<path d="M77250 72789
L77222 72817
L77250 72845
L77278 72817
L77250 72789
L77250 72845
" />
<path d="M77784 73352
L77728 73380
L77616 73380
L77559 73352
L77531 73323
L77503 73267
L77503 73099
L77531 73042
L77559 73014
L77616 72986
L77728 72986
L77784 73014
" />
<path d="M78291 73380
L78291 73070
L78262 73014
L78206 72986
L78094 72986
L78037 73014
" />
<path d="M78291 73352
L78234 73380
L78094 73380
L78037 73352
L78009 73295
L78009 73239
L78037 73183
L78094 73155
L78234 73155
L78291 73127
" />
<path d="M78825 73380
L78825 72789
" />
<path d="M78825 73352
L78769 73380
L78656 73380
L78600 73352
L78572 73323
L78544 73267
L78544 73099
L78572 73042
L78600 73014
L78656 72986
L78769 72986
L78825 73014
" />
<path d="M78965 73436
L79415 73436
" />
<path d="M79556 72986
L79556 73577
" />
<path d="M79556 73014
L79612 72986
L79725 72986
L79781 73014
L79809 73042
L79837 73099
L79837 73267
L79809 73323
L79781 73352
L79725 73380
L79612 73380
L79556 73352
" />
<path d="M80343 73352
L80287 73380
L80175 73380
L80118 73352
L80090 73323
L80062 73267
L80062 73099
L80090 73042
L80118 73014
L80175 72986
L80287 72986
L80343 73014
" />
<path d="M80597 73380
L80597 72789
" />
<path d="M80597 73014
L80653 72986
L80765 72986
L80822 73014
L80850 73042
L80878 73099
L80878 73267
L80850 73323
L80822 73352
L80765 73380
L80653 73380
L80597 73352
" />
</g>
<g style="fill:#000000; fill-opacity:0.0; 
stroke:#000000; stroke-width:39.3701; stroke-opacity:1; 
stroke-linecap:round; stroke-linejoin:round;">
</g>
<g style="fill:#000000; fill-opacity:0.0; 
stroke:#000000; stroke-width:59.0551; stroke-opacity:1; 
stroke-linecap:round; stroke-linejoin:round;">
<path d="M69685 71459
L112205 71459
" />
</g>
<g style="fill:#000000; fill-opacity:0.0; 
stroke:#000000; stroke-width:39.3701; stroke-opacity:1; 
stroke-linecap:round; stroke-linejoin:round;">
</g>
<g style="fill:#000000; fill-opacity:0.0; 
stroke:#000000; stroke-width:59.0551; stroke-opacity:1; 
stroke-linecap:round; stroke-linejoin:round;">
<path d="M70192 72289
L70276 72317
L70417 72317
L70473 72289
L70501 72260
L70529 72204
L70529 72148
L70501 72092
L70473 72064
L70417 72036
L70304 72007
L70248 71979
L70220 71951
L70192 71895
L70192 71839
L70220 71782
L70248 71754
L70304 71726
L70445 71726
L70529 71754
" />
<path d="M70782 72317
L70782 71726
" />
<path d="M71035 72317
L71035 72007
L71007 71951
L70951 71923
L70867 71923
L70810 71951
L70782 71979
" />
<path d="M71541 72289
L71485 72317
L71373 72317
L71316 72289
L71288 72232
L71288 72007
L71316 71951
L71373 71923
L71485 71923
L71541 71951
L71570 72007
L71570 72064
L71288 72120
" />
<path d="M72048 72289
L71991 72317
L71879 72317
L71823 72289
L71795 72232
L71795 72007
L71823 71951
L71879 71923
L71991 71923
L72048 71951
L72076 72007
L72076 72064
L71795 72120
" />
<path d="M72244 71923
L72469 71923
" />
<path d="M72329 71726
L72329 72232
L72357 72289
L72413 72317
L72469 72317
" />
<path d="M72666 72260
L72694 72289
L72666 72317
L72638 72289
L72666 72260
L72666 72317
" />
<path d="M72666 71951
L72694 71979
L72666 72007
L72638 71979
L72666 71951
L72666 72007
" />
</g>
<g style="fill:#000000; fill-opacity:0.0; 
stroke:#000000; stroke-width:39.3701; stroke-opacity:1; 
stroke-linecap:round; stroke-linejoin:round;">
</g>
<g style="fill:#000000; fill-opacity:0.0; 
stroke:#000000; stroke-width:59.0551; stroke-opacity:1; 
stroke-linecap:round; stroke-linejoin:round;">
<path d="M77559 75396
L77559 76577
" />
</g>
<g style="fill:#000000; fill-opacity:0.0; 
stroke:#000000; stroke-width:39.3701; stroke-opacity:1; 
stroke-linecap:round; stroke-linejoin:round;">
</g>
<g style="fill:#000000; fill-opacity:0.0; 
stroke:#000000; stroke-width:59.0551; stroke-opacity:1; 
stroke-linecap:round; stroke-linejoin:round;">
<path d="M102756 75396
L102756 77955
" />
</g>
<g style="fill:#000000; fill-opacity:0.0; 
stroke:#000000; stroke-width:78.7402; stroke-opacity:1; 
stroke-linecap:round; stroke-linejoin:round;">
<path d="M28059 60464
L67429 60464
" />
<path d="M28059 37214
L67429 37214
" />
<circle cx="69017.3" cy="11765.9" r="656.168" /> 
<path d="M68033 11765
L70001 11765
" />
<path d="M69017 10781
L69017 12750
" />
<circle cx="69017.3" cy="31515.9" r="656.168" /> 
<path d="M68033 31515
L70001 31515
" />
<path d="M69017 30531
L69017 32500
" />
<circle cx="25517.3" cy="31515.9" r="656.168" /> 
<path d="M24533 31515
L26501 31515
" />
<path d="M25517 30531
L25517 32500
" />
<circle cx="25267.3" cy="12015.9" r="656.168" /> 
<path d="M24283 12015
L26251 12015
" />
<path d="M25267 11031
L25267 13000
" />
</g>
<g style="fill:#000000; fill-opacity:0.0; 
stroke:#000000; stroke-width:0; stroke-opacity:1; 
stroke-linecap:round; stroke-linejoin:round;">
</g>
<g style="fill:#000000; fill-opacity:1.0; 
stroke:#000000; stroke-width:0; stroke-opacity:1; 
stroke-linecap:round; stroke-linejoin:round;">
<polyline style="fill-rule:evenodd;"
points="39834,62155
39165,62155
39165,61407
39834,61407
39834,62155
" /> 
<polyline style="fill-rule:evenodd;"
points="39834,61092
39165,61092
39165,60344
39834,60344
39834,61092
" /> 
<polyline style="fill-rule:evenodd;"
points="23409,40905
22740,40905
22740,40157
23409,40157
23409,40905
" /> 
<polyline style="fill-rule:evenodd;"
points="23409,39842
22740,39842
22740,39094
23409,39094
23409,39842
" /> 
<polyline style="fill-rule:evenodd;"
points="38834,57155
38165,57155
38165,56407
38834,56407
38834,57155
" /> 
<polyline style="fill-rule:evenodd;"
points="38834,56092
38165,56092
38165,55344
38834,55344
38834,56092
" /> 
<polyline style="fill-rule:evenodd;"
points="41334,62655
40665,62655
40665,61907
41334,61907
41334,62655
" /> 
<polyline style="fill-rule:evenodd;"
points="41334,61592
40665,61592
40665,60844
41334,60844
41334,61592
" /> 
<polyline style="fill-rule:evenodd;"
points="91834,36905
91165,36905
91165,36157
91834,36157
91834,36905
" /> 
<polyline style="fill-rule:evenodd;"
points="91834,35842
91165,35842
91165,35094
91834,35094
91834,35842
" /> 
<polyline style="fill-rule:evenodd;"
points="58415,52844
59084,52844
59084,53592
58415,53592
58415,52844
" /> 
<polyline style="fill-rule:evenodd;"
points="58415,53907
59084,53907
59084,54655
58415,54655
58415,53907
" /> 
<polyline style="fill-rule:evenodd;"
points="40915,52844
41584,52844
41584,53592
40915,53592
40915,52844
" /> 
<polyline style="fill-rule:evenodd;"
points="40915,53907
41584,53907
41584,54655
40915,54655
40915,53907
" /> 
<polyline style="fill-rule:evenodd;"
points="63084,58655
62415,58655
62415,57907
63084,57907
63084,58655
" /> 
<polyline style="fill-rule:evenodd;"
points="63084,57592
62415,57592
62415,56844
63084,56844
63084,57592
" /> 
<polyline style="fill-rule:evenodd;"
points="35415,47094
36084,47094
36084,47842
35415,47842
35415,47094
" /> 
<polyline style="fill-rule:evenodd;"
points="35415,48157
36084,48157
36084,48905
35415,48905
35415,48157
" /> 
<polyline style="fill-rule:evenodd;"
points="84377,59562
85046,59562
85046,60310
84377,60310
84377,59562
" /> 
<polyline style="fill-rule:evenodd;"
points="84377,60625
85046,60625
85046,61373
84377,61373
84377,60625
" /> 
<polyline style="fill-rule:evenodd;"
points="83134,65605
82465,65605
82465,64857
83134,64857
83134,65605
" /> 
<polyline style="fill-rule:evenodd;"
points="83134,64542
82465,64542
82465,63794
83134,63794
83134,64542
" /> 
<polyline style="fill-rule:evenodd;"
points="61665,51344
62334,51344
62334,52092
61665,52092
61665,51344
" /> 
<polyline style="fill-rule:evenodd;"
points="61665,52407
62334,52407
62334,53155
61665,53155
61665,52407
" /> 
<polyline style="fill-rule:evenodd;"
points="41427,38112
42096,38112
42096,38860
41427,38860
41427,38112
" /> 
<polyline style="fill-rule:evenodd;"
points="41427,39175
42096,39175
42096,39923
41427,39923
41427,39175
" /> 
<polyline style="fill-rule:evenodd;"
points="83165,51594
83834,51594
83834,52342
83165,52342
83165,51594
" /> 
<polyline style="fill-rule:evenodd;"
points="83165,52657
83834,52657
83834,53405
83165,53405
83165,52657
" /> 
<polyline style="fill-rule:evenodd;"
points="44903,48832
44638,48567
45195,48010
45459,48275
44903,48832
" /> 
<polyline style="fill-rule:evenodd;"
points="45125,49054
44861,48790
45418,48233
45682,48497
45125,49054
" /> 
<polyline style="fill-rule:evenodd;"
points="45348,49277
45083,49012
45640,48456
45905,48720
45348,49277
" /> 
<polyline style="fill-rule:evenodd;"
points="45571,49500
45306,49235
45863,48678
46127,48943
45571,49500
" /> 
<polyline style="fill-rule:evenodd;"
points="45793,49722
45529,49458
46086,48901
46350,49166
45793,49722
" /> 
<polyline style="fill-rule:evenodd;"
points="46016,49945
45752,49681
46308,49124
46573,49388
46016,49945
" /> 
<polyline style="fill-rule:evenodd;"
points="46239,50168
45974,49903
46531,49347
46796,49611
46239,50168
" /> 
<polyline style="fill-rule:evenodd;"
points="46461,50390
46197,50126
46754,49569
47018,49834
46461,50390
" /> 
<polyline style="fill-rule:evenodd;"
points="47826,50126
47561,50390
47004,49834
47269,49569
47826,50126
" /> 
<polyline style="fill-rule:evenodd;"
points="48048,49903
47784,50168
47227,49611
47492,49347
48048,49903
" /> 
<polyline style="fill-rule:evenodd;"
points="48271,49681
48007,49945
47450,49388
47714,49124
48271,49681
" /> 
<polyline style="fill-rule:evenodd;"
points="48494,49458
48229,49722
47672,49166
47937,48901
48494,49458
" /> 
<polyline style="fill-rule:evenodd;"
points="48716,49235
48452,49500
47895,48943
48160,48678
48716,49235
" /> 
<polyline style="fill-rule:evenodd;"
points="48939,49012
48675,49277
48118,48720
48382,48456
48939,49012
" /> 
<polyline style="fill-rule:evenodd;"
points="49162,48790
48897,49054
48341,48497
48605,48233
49162,48790
" /> 
<polyline style="fill-rule:evenodd;"
points="49385,48567
49120,48832
48563,48275
48828,48010
49385,48567
" /> 
<polyline style="fill-rule:evenodd;"
points="48828,48024
48563,47760
49120,47203
49385,47467
48828,48024
" /> 
<polyline style="fill-rule:evenodd;"
points="48605,47801
48341,47537
48897,46980
49162,47245
48605,47801
" /> 
<polyline style="fill-rule:evenodd;"
points="48382,47579
48118,47314
48675,46758
48939,47022
48382,47579
" /> 
<polyline style="fill-rule:evenodd;"
points="48160,47356
47895,47092
48452,46535
48716,46799
48160,47356
" /> 
<polyline style="fill-rule:evenodd;"
points="47937,47133
47672,46869
48229,46312
48494,46577
47937,47133
" /> 
<polyline style="fill-rule:evenodd;"
points="47714,46911
47450,46646
48007,46089
48271,46354
47714,46911
" /> 
<polyline style="fill-rule:evenodd;"
points="47492,46688
47227,46423
47784,45867
48048,46131
47492,46688
" /> 
<polyline style="fill-rule:evenodd;"
points="47269,46465
47004,46201
47561,45644
47826,45908
47269,46465
" /> 
<polyline style="fill-rule:evenodd;"
points="47018,46201
46754,46465
46197,45908
46461,45644
47018,46201
" /> 
<polyline style="fill-rule:evenodd;"
points="46796,46423
46531,46688
45974,46131
46239,45867
46796,46423
" /> 
<polyline style="fill-rule:evenodd;"
points="46573,46646
46308,46911
45752,46354
46016,46089
46573,46646
" /> 
<polyline style="fill-rule:evenodd;"
points="46350,46869
46086,47133
45529,46577
45793,46312
46350,46869
" /> 
<polyline style="fill-rule:evenodd;"
points="46127,47092
45863,47356
45306,46799
45571,46535
46127,47092
" /> 
<polyline style="fill-rule:evenodd;"
points="45905,47314
45640,47579
45083,47022
45348,46758
45905,47314
" /> 
<polyline style="fill-rule:evenodd;"
points="45682,47537
45418,47801
44861,47245
45125,46980
45682,47537
" /> 
<polyline style="fill-rule:evenodd;"
points="45459,47760
45195,48024
44638,47467
44903,47203
45459,47760
" /> 
<polyline style="fill-rule:evenodd;"
points="5893,63110
5893,61889
7428,61889
7428,63110
5893,63110
" /> 
<polyline style="fill-rule:evenodd;"
points="8571,63110
8571,61889
10106,61889
10106,63110
8571,63110
" /> 
<polyline style="fill-rule:evenodd;"
points="84889,38393
86110,38393
86110,39928
84889,39928
84889,38393
" /> 
<polyline style="fill-rule:evenodd;"
points="84889,41071
86110,41071
86110,42606
84889,42606
84889,41071
" /> 
<polyline style="fill-rule:evenodd;"
points="5393,57610
5393,56389
6928,56389
6928,57610
5393,57610
" /> 
<polyline style="fill-rule:evenodd;"
points="8071,57610
8071,56389
9606,56389
9606,57610
8071,57610
" /> 
<polyline style="fill-rule:evenodd;"
points="91085,64426
89864,64426
89864,62891
91085,62891
91085,64426
" /> 
<polyline style="fill-rule:evenodd;"
points="91085,61748
89864,61748
89864,60213
91085,60213
91085,61748
" /> 
<polyline style="fill-rule:evenodd;"
points="12393,57610
12393,56389
13928,56389
13928,57610
12393,57610
" /> 
<polyline style="fill-rule:evenodd;"
points="15071,57610
15071,56389
16606,56389
16606,57610
15071,57610
" /> 
<polyline style="fill-rule:evenodd;"
points="18893,57610
18893,56389
20428,56389
20428,57610
18893,57610
" /> 
<polyline style="fill-rule:evenodd;"
points="21571,57610
21571,56389
23106,56389
23106,57610
21571,57610
" /> 
<polyline style="fill-rule:evenodd;"
points="53425,52883
54074,52883
54074,53631
53425,53631
53425,52883
" /> 
<polyline style="fill-rule:evenodd;"
points="53425,53868
54074,53868
54074,54616
53425,54616
53425,53868
" /> 
<polyline style="fill-rule:evenodd;"
points="83175,44133
83824,44133
83824,44881
83175,44881
83175,44133
" /> 
<polyline style="fill-rule:evenodd;"
points="83175,45118
83824,45118
83824,45866
83175,45866
83175,45118
" /> 
<polyline style="fill-rule:evenodd;"
points="88675,44133
89324,44133
89324,44881
88675,44881
88675,44133
" /> 
<polyline style="fill-rule:evenodd;"
points="88675,45118
89324,45118
89324,45866
88675,45866
88675,45118
" /> 
<polyline style="fill-rule:evenodd;"
points="55925,52883
56574,52883
56574,53631
55925,53631
55925,52883
" /> 
<polyline style="fill-rule:evenodd;"
points="55925,53868
56574,53868
56574,54616
55925,54616
55925,53868
" /> 
<polyline style="fill-rule:evenodd;"
points="55242,56482
55891,56482
55891,57230
55242,57230
55242,56482
" /> 
<polyline style="fill-rule:evenodd;"
points="55242,57466
55891,57466
55891,58214
55242,58214
55242,57466
" /> 
<polyline style="fill-rule:evenodd;"
points="51133,58824
51133,58175
51881,58175
51881,58824
51133,58824
" /> 
<polyline style="fill-rule:evenodd;"
points="52118,58824
52118,58175
52866,58175
52866,58824
52118,58824
" /> 
<polyline style="fill-rule:evenodd;"
points="40675,58383
41324,58383
41324,59131
40675,59131
40675,58383
" /> 
<polyline style="fill-rule:evenodd;"
points="40675,59368
41324,59368
41324,60116
40675,60116
40675,59368
" /> 
<polyline style="fill-rule:evenodd;"
points="50425,52883
51074,52883
51074,53631
50425,53631
50425,52883
" /> 
<polyline style="fill-rule:evenodd;"
points="50425,53868
51074,53868
51074,54616
50425,54616
50425,53868
" /> 
<polyline style="fill-rule:evenodd;"
points="36425,52883
37074,52883
37074,53631
36425,53631
36425,52883
" /> 
<polyline style="fill-rule:evenodd;"
points="36425,53868
37074,53868
37074,54616
36425,54616
36425,53868
" /> 
<polyline style="fill-rule:evenodd;"
points="47425,52883
48074,52883
48074,53631
47425,53631
47425,52883
" /> 
<polyline style="fill-rule:evenodd;"
points="47425,53868
48074,53868
48074,54616
47425,54616
47425,53868
" /> 
<polyline style="fill-rule:evenodd;"
points="81084,65755
80415,65755
80415,65007
81084,65007
81084,65755
" /> 
<polyline style="fill-rule:evenodd;"
points="81084,64692
80415,64692
80415,63944
81084,63944
81084,64692
" /> 
<polyline style="fill-rule:evenodd;"
points="38925,52883
39574,52883
39574,53631
38925,53631
38925,52883
" /> 
<polyline style="fill-rule:evenodd;"
points="38925,53868
39574,53868
39574,54616
38925,54616
38925,53868
" /> 
<polyline style="fill-rule:evenodd;"
points="34074,54616
33425,54616
33425,53868
34074,53868
34074,54616
" /> 
<polyline style="fill-rule:evenodd;"
points="34074,53631
33425,53631
33425,52883
34074,52883
34074,53631
" /> 
<polyline style="fill-rule:evenodd;"
points="51343,41038
52180,41038
52180,41996
51343,41996
51343,41038
" /> 
</g>
<g style="fill:#000000; fill-opacity:1.0; 
stroke:#000000; stroke-width:837.48; stroke-opacity:1; 
stroke-linecap:round; stroke-linejoin:round;">
</g>
<g style="fill:#000000; fill-opacity:0.0; 
stroke:#000000; stroke-width:837.48; stroke-opacity:1; 
stroke-linecap:round; stroke-linejoin:round;">
<path d="M50761 41457
L50761 41577
" />
<path d="M49761 41457
L49761 41577
" />
<path d="M48761 41457
L48761 41577
" />
<path d="M47761 41457
L47761 41577
" />
<path d="M46761 41457
L46761 41577
" />
<path d="M45761 41457
L45761 41577
" />
<path d="M44761 41457
L44761 41577
" />
<path d="M43761 41457
L43761 41577
" />
<path d="M42761 41457
L42761 41577
" />
</g>
<g style="fill:#000000; fill-opacity:0.0; 
stroke:#000000; stroke-width:0; stroke-opacity:1; 
stroke-linecap:round; stroke-linejoin:round;">
</g>
<g style="fill:#000000; fill-opacity:1.0; 
stroke:#000000; stroke-width:0; stroke-opacity:1; 
stroke-linecap:round; stroke-linejoin:round;">
<polyline style="fill-rule:evenodd;"
points="83818,49401
83181,49401
83181,48885
83818,48885
83818,49401
" /> 
<polyline style="fill-rule:evenodd;"
points="83818,48114
83181,48114
83181,47598
83818,47598
83818,48114
" /> 
</g>
<g style="fill:#000000; fill-opacity:1.0; 
stroke:#000000; stroke-width:590.551; stroke-opacity:1; 
stroke-linecap:round; stroke-linejoin:round;">
</g>
<g style="fill:#000000; fill-opacity:0.0; 
stroke:#000000; stroke-width:590.551; stroke-opacity:1; 
stroke-linecap:round; stroke-linejoin:round;">
<path d="M27072 48722
L27230 48722
" />
<path d="M27072 46812
L27230 46812
" />
</g>
<g style="fill:#000000; fill-opacity:0.0; 
stroke:#000000; stroke-width:629.921; stroke-opacity:1; 
stroke-linecap:round; stroke-linejoin:round;">
<path d="M25872 48840
L26068 48840
" />
<path d="M25872 46694
L26068 46694
" />
</g>
<g style="fill:#000000; fill-opacity:0.0; 
stroke:#000000; stroke-width:0; stroke-opacity:1; 
stroke-linecap:round; stroke-linejoin:round;">
</g>
<g style="fill:#000000; fill-opacity:1.0; 
stroke:#000000; stroke-width:0; stroke-opacity:1; 
stroke-linecap:round; stroke-linejoin:round;">
<polyline style="fill-rule:evenodd;"
points="59570,57935
58429,57935
58429,57620
59570,57620
59570,57935
" /> 
<polyline style="fill-rule:evenodd;"
points="59570,58407
58429,58407
58429,58092
59570,58092
59570,58407
" /> 
<polyline style="fill-rule:evenodd;"
points="59570,58879
58429,58879
58429,58564
59570,58564
59570,58879
" /> 
<polyline style="fill-rule:evenodd;"
points="91390,48785
90249,48785
90249,48470
91390,48470
91390,48785
" /> 
<polyline style="fill-rule:evenodd;"
points="91390,49257
90249,49257
90249,48942
91390,48942
91390,49257
" /> 
<polyline style="fill-rule:evenodd;"
points="91390,49729
90249,49729
90249,49414
91390,49414
91390,49729
" /> 
<circle cx="69011.8" cy="43717.7" r="828.74" /> 
</g>
<g style="fill:#000000; fill-opacity:1.0; 
stroke:#000000; stroke-width:39.3701; stroke-opacity:1; 
stroke-linecap:round; stroke-linejoin:round;">
</g>
<g style="fill:#000000; fill-opacity:1.0; 
stroke:#000000; stroke-width:0; stroke-opacity:1; 
stroke-linecap:round; stroke-linejoin:round;">
<circle cx="69011.8" cy="53717.7" r="828.74" /> 
</g>
<g style="fill:#000000; fill-opacity:1.0; 
stroke:#000000; stroke-width:39.3701; stroke-opacity:1; 
stroke-linecap:round; stroke-linejoin:round;">
</g>
<g style="fill:#000000; fill-opacity:1.0; 
stroke:#000000; stroke-width:0; stroke-opacity:1; 
stroke-linecap:round; stroke-linejoin:round;">
<polyline style="fill-rule:evenodd;"
points="68390,51296
67633,51296
67633,50538
68390,50538
68390,51296
" /> 
<circle cx="68011.8" cy="49817.7" r="378.74" /> 
</g>
<g style="fill:#000000; fill-opacity:1.0; 
stroke:#000000; stroke-width:39.3701; stroke-opacity:1; 
stroke-linecap:round; stroke-linejoin:round;">
</g>
<g style="fill:#000000; fill-opacity:1.0; 
stroke:#000000; stroke-width:0; stroke-opacity:1; 
stroke-linecap:round; stroke-linejoin:round;">
<circle cx="68011.8" cy="48767.7" r="378.74" /> 
</g>
<g style="fill:#000000; fill-opacity:1.0; 
stroke:#000000; stroke-width:39.3701; stroke-opacity:1; 
stroke-linecap:round; stroke-linejoin:round;">
</g>
<g style="fill:#000000; fill-opacity:1.0; 
stroke:#000000; stroke-width:0; stroke-opacity:1; 
stroke-linecap:round; stroke-linejoin:round;">
<circle cx="68011.8" cy="47667.7" r="378.74" /> 
</g>
<g style="fill:#000000; fill-opacity:1.0; 
stroke:#000000; stroke-width:39.3701; stroke-opacity:1; 
stroke-linecap:round; stroke-linejoin:round;">
</g>
<g style="fill:#000000; fill-opacity:1.0; 
stroke:#000000; stroke-width:0; stroke-opacity:1; 
stroke-linecap:round; stroke-linejoin:round;">
<circle cx="68011.8" cy="46567.7" r="378.74" /> 
</g>
<g style="fill:#000000; fill-opacity:1.0; 
stroke:#000000; stroke-width:39.3701; stroke-opacity:1; 
stroke-linecap:round; stroke-linejoin:round;">
</g>
<g style="fill:#000000; fill-opacity:1.0; 
stroke:#000000; stroke-width:0; stroke-opacity:1; 
stroke-linecap:round; stroke-linejoin:round;">
<circle cx="69011.8" cy="50367.7" r="378.74" /> 
</g>
<g style="fill:#000000; fill-opacity:1.0; 
stroke:#000000; stroke-width:39.3701; stroke-opacity:1; 
stroke-linecap:round; stroke-linejoin:round;">
</g>
<g style="fill:#000000; fill-opacity:1.0; 
stroke:#000000; stroke-width:0; stroke-opacity:1; 
stroke-linecap:round; stroke-linejoin:round;">
<circle cx="69011.8" cy="49267.7" r="378.74" /> 
</g>
<g style="fill:#000000; fill-opacity:1.0; 
stroke:#000000; stroke-width:39.3701; stroke-opacity:1; 
stroke-linecap:round; stroke-linejoin:round;">
</g>
<g style="fill:#000000; fill-opacity:1.0; 
stroke:#000000; stroke-width:0; stroke-opacity:1; 
stroke-linecap:round; stroke-linejoin:round;">
<circle cx="69011.8" cy="48217.7" r="378.74" /> 
</g>
<g style="fill:#000000; fill-opacity:1.0; 
stroke:#000000; stroke-width:39.3701; stroke-opacity:1; 
stroke-linecap:round; stroke-linejoin:round;">
</g>
<g style="fill:#000000; fill-opacity:1.0; 
stroke:#000000; stroke-width:0; stroke-opacity:1; 
stroke-linecap:round; stroke-linejoin:round;">
<circle cx="69011.8" cy="47117.7" r="378.74" /> 
</g>
<g style="fill:#000000; fill-opacity:1.0; 
stroke:#000000; stroke-width:39.3701; stroke-opacity:1; 
stroke-linecap:round; stroke-linejoin:round;">
</g>
<g style="fill:#000000; fill-opacity:1.0; 
stroke:#000000; stroke-width:0; stroke-opacity:1; 
stroke-linecap:round; stroke-linejoin:round;">
<polyline style="fill-rule:evenodd;"
points="54900,44238
54900,45296
54123,45296
54123,44238
54900,44238
" /> 
</g>
<g style="fill:#000000; fill-opacity:1.0; 
stroke:#000000; stroke-width:777.48; stroke-opacity:1; 
stroke-linecap:round; stroke-linejoin:round;">
</g>
<g style="fill:#000000; fill-opacity:0.0; 
stroke:#000000; stroke-width:777.48; stroke-opacity:1; 
stroke-linecap:round; stroke-linejoin:round;">
<path d="M53511 44907
L53511 44627
" />
<path d="M52511 44907
L52511 44627
" />
<path d="M51511 44907
L51511 44627
" />
<path d="M50511 44907
L50511 44627
" />
<path d="M49511 44907
L49511 44627
" />
<path d="M48511 44907
L48511 44627
" />
<path d="M47511 44907
L47511 44627
" />
<path d="M46511 44907
L46511 44627
" />
<path d="M45511 44907
L45511 44627
" />
<path d="M44511 44907
L44511 44627
" />
<path d="M43511 44907
L43511 44627
" />
<path d="M42511 44907
L42511 44627
" />
<path d="M41511 44907
L41511 44627
" />
<path d="M40511 44907
L40511 44627
" />
<path d="M40511 51407
L40511 51127
" />
<path d="M41511 51407
L41511 51127
" />
<path d="M42511 51407
L42511 51127
" />
<path d="M43511 51407
L43511 51127
" />
<path d="M44511 51407
L44511 51127
" />
<path d="M45511 51407
L45511 51127
" />
<path d="M46511 51407
L46511 51127
" />
<path d="M47511 51407
L47511 51127
" />
<path d="M48511 51407
L48511 51127
" />
<path d="M49511 51407
L49511 51127
" />
<path d="M50511 51407
L50511 51127
" />
<path d="M51511 51407
L51511 51127
" />
<path d="M52511 51407
L52511 51127
" />
<path d="M53511 51407
L53511 51127
" />
<path d="M54511 51407
L54511 51127
" />
</g>
<g style="fill:#000000; fill-opacity:0.0; 
stroke:#000000; stroke-width:0; stroke-opacity:1; 
stroke-linecap:round; stroke-linejoin:round;">
</g>
<g style="fill:#000000; fill-opacity:1.0; 
stroke:#000000; stroke-width:0; stroke-opacity:1; 
stroke-linecap:round; stroke-linejoin:round;">
<polyline style="fill-rule:evenodd;"
points="58680,40186
57843,40186
57843,39348
58680,39348
58680,40186
" /> 
</g>
<g style="fill:#000000; fill-opacity:1.0; 
stroke:#000000; stroke-width:837.48; stroke-opacity:1; 
stroke-linecap:round; stroke-linejoin:round;">
</g>
<g style="fill:#000000; fill-opacity:0.0; 
stroke:#000000; stroke-width:837.48; stroke-opacity:1; 
stroke-linecap:round; stroke-linejoin:round;">
<path d="M58261 38767
L58261 38767
" />
<path d="M59261 39767
L59261 39767
" />
<path d="M59261 38767
L59261 38767
" />
<path d="M60261 39767
L60261 39767
" />
<path d="M60261 38767
L60261 38767
" />
<path d="M61261 39767
L61261 39767
" />
<path d="M61261 38767
L61261 38767
" />
<path d="M62261 39767
L62261 39767
" />
<path d="M62261 38767
L62261 38767
" />
</g>
<g style="fill:#000000; fill-opacity:0.0; 
stroke:#000000; stroke-width:0; stroke-opacity:1; 
stroke-linecap:round; stroke-linejoin:round;">
</g>
<g style="fill:#000000; fill-opacity:1.0; 
stroke:#000000; stroke-width:0; stroke-opacity:1; 
stroke-linecap:round; stroke-linejoin:round;">
<polyline style="fill-rule:evenodd;"
points="34680,40186
33843,40186
33843,39348
34680,39348
34680,40186
" /> 
</g>
<g style="fill:#000000; fill-opacity:1.0; 
stroke:#000000; stroke-width:837.48; stroke-opacity:1; 
stroke-linecap:round; stroke-linejoin:round;">
</g>
<g style="fill:#000000; fill-opacity:0.0; 
stroke:#000000; stroke-width:837.48; stroke-opacity:1; 
stroke-linecap:round; stroke-linejoin:round;">
<path d="M34261 38767
L34261 38767
" />
<path d="M35261 39767
L35261 39767
" />
<path d="M35261 38767
L35261 38767
" />
<path d="M36261 39767
L36261 39767
" />
<path d="M36261 38767
L36261 38767
" />
<path d="M37261 39767
L37261 39767
" />
<path d="M37261 38767
L37261 38767
" />
<path d="M38261 39767
L38261 39767
" />
<path d="M38261 38767
L38261 38767
" />
</g>
<g style="fill:#000000; fill-opacity:0.0; 
stroke:#000000; stroke-width:0; stroke-opacity:1; 
stroke-linecap:round; stroke-linejoin:round;">
</g>
<g style="fill:#000000; fill-opacity:1.0; 
stroke:#000000; stroke-width:0; stroke-opacity:1; 
stroke-linecap:round; stroke-linejoin:round;">
<polyline style="fill-rule:evenodd;"
points="30531,38486
29311,38486
29311,36951
30531,36951
30531,38486
" /> 
<polyline style="fill-rule:evenodd;"
points="30531,35808
29311,35808
29311,34273
30531,34273
30531,35808
" /> 
<polyline style="fill-rule:evenodd;"
points="32893,38720
31673,38720
31673,37185
32893,37185
32893,38720
" /> 
<polyline style="fill-rule:evenodd;"
points="32893,36042
31673,36042
31673,34507
32893,34507
32893,36042
" /> 
<polyline style="fill-rule:evenodd;"
points="23325,38386
22104,38386
22104,36851
23325,36851
23325,38386
" /> 
<polyline style="fill-rule:evenodd;"
points="23325,35708
22104,35708
22104,34173
23325,34173
23325,35708
" /> 
<polyline style="fill-rule:evenodd;"
points="27775,38720
26555,38720
26555,37185
27775,37185
27775,38720
" /> 
<polyline style="fill-rule:evenodd;"
points="27775,36042
26555,36042
26555,34507
27775,34507
27775,36042
" /> 
<polyline style="fill-rule:evenodd;"
points="24524,34393
25745,34393
25745,35928
24524,35928
24524,34393
" /> 
<polyline style="fill-rule:evenodd;"
points="24524,37071
25745,37071
25745,38606
24524,38606
24524,37071
" /> 
</g>
<g style="fill:#000000; fill-opacity:1.0; 
stroke:#000000; stroke-width:748.48; stroke-opacity:1; 
stroke-linecap:round; stroke-linejoin:round;">
</g>
<g style="fill:#000000; fill-opacity:0.0; 
stroke:#000000; stroke-width:748.48; stroke-opacity:1; 
stroke-linecap:round; stroke-linejoin:round;">
<path d="M83303 32500
L83696 32500
" />
<path d="M83303 31500
L83696 31500
" />
<path d="M83303 33500
L83696 33500
" />
</g>
<g style="fill:#000000; fill-opacity:1.0; 
stroke:#000000; stroke-width:0; stroke-opacity:1; 
stroke-linecap:round; stroke-linejoin:round;">
<circle cx="90100" cy="32500" r="826.74" /> 
</g>
<g style="fill:#000000; fill-opacity:1.0; 
stroke:#000000; stroke-width:39.3701; stroke-opacity:1; 
stroke-linecap:round; stroke-linejoin:round;">
</g>
<g style="fill:#000000; fill-opacity:1.0; 
stroke:#000000; stroke-width:0; stroke-opacity:1; 
stroke-linecap:round; stroke-linejoin:round;">
<polyline style="fill-rule:evenodd;"
points="79795,33893
79795,33106
81370,33106
81370,33893
79795,33893
" /> 
<polyline style="fill-rule:evenodd;"
points="77629,33893
77629,33106
79204,33106
79204,33893
77629,33893
" /> 
<circle cx="82500" cy="67500" r="378.74" /> 
</g>
<g style="fill:#000000; fill-opacity:1.0; 
stroke:#000000; stroke-width:39.3701; stroke-opacity:1; 
stroke-linecap:round; stroke-linejoin:round;">
</g>
<g style="fill:#000000; fill-opacity:1.0; 
stroke:#000000; stroke-width:0; stroke-opacity:1; 
stroke-linecap:round; stroke-linejoin:round;">
<circle cx="83500" cy="67500" r="378.74" /> 
</g>
<g style="fill:#000000; fill-opacity:1.0; 
stroke:#000000; stroke-width:39.3701; stroke-opacity:1; 
stroke-linecap:round; stroke-linejoin:round;">
</g>
<g style="fill:#000000; fill-opacity:1.0; 
stroke:#000000; stroke-width:0; stroke-opacity:1; 
stroke-linecap:round; stroke-linejoin:round;">
<circle cx="81500" cy="67500" r="378.74" /> 
</g>
<g style="fill:#000000; fill-opacity:1.0; 
stroke:#000000; stroke-width:39.3701; stroke-opacity:1; 
stroke-linecap:round; stroke-linejoin:round;">
</g>
<g style="fill:#000000; fill-opacity:1.0; 
stroke:#000000; stroke-width:0; stroke-opacity:1; 
stroke-linecap:round; stroke-linejoin:round;">
<circle cx="85450" cy="68350" r="378.74" /> 
</g>
<g style="fill:#000000; fill-opacity:1.0; 
stroke:#000000; stroke-width:39.3701; stroke-opacity:1; 
stroke-linecap:round; stroke-linejoin:round;">
</g>
<g style="fill:#000000; fill-opacity:1.0; 
stroke:#000000; stroke-width:0; stroke-opacity:1; 
stroke-linecap:round; stroke-linejoin:round;">
<circle cx="85450" cy="67350" r="378.74" /> 
</g>
<g style="fill:#000000; fill-opacity:1.0; 
stroke:#000000; stroke-width:39.3701; stroke-opacity:1; 
stroke-linecap:round; stroke-linejoin:round;">
</g>
<g style="fill:#000000; fill-opacity:1.0; 
stroke:#000000; stroke-width:0; stroke-opacity:1; 
stroke-linecap:round; stroke-linejoin:round;">
<circle cx="85450" cy="69350" r="378.74" /> 
</g>
<g style="fill:#000000; fill-opacity:1.0; 
stroke:#000000; stroke-width:39.3701; stroke-opacity:1; 
stroke-linecap:round; stroke-linejoin:round;">
</g>
<g style="fill:#000000; fill-opacity:1.0; 
stroke:#000000; stroke-width:787.402; stroke-opacity:1; 
stroke-linecap:round; stroke-linejoin:round;">
</g>
<g style="fill:#000000; fill-opacity:0.0; 
stroke:#000000; stroke-width:787.402; stroke-opacity:1; 
stroke-linecap:round; stroke-linejoin:round;">
<path d="M61379 26771
L61379 26771
" />
<path d="M61379 25771
L61379 25771
" />
<path d="M61379 24771
L61379 24771
" />
<path d="M61379 23771
L61379 23771
" />
<path d="M61379 22771
L61379 22771
" />
<path d="M61379 21771
L61379 21771
" />
<path d="M61379 20771
L61379 20771
" />
<path d="M61379 19771
L61379 19771
" />
<path d="M58379 19771
L58379 19771
" />
<path d="M58379 20771
L58379 20771
" />
<path d="M58379 21771
L58379 21771
" />
<path d="M58379 22771
L58379 22771
" />
<path d="M58379 23771
L58379 23771
" />
<path d="M58379 24771
L58379 24771
" />
<path d="M58379 25771
L58379 25771
" />
<path d="M58379 26771
L58379 26771
" />
<path d="M32100 19900
L32100 19900
" />
<path d="M32100 20900
L32100 20900
" />
<path d="M32100 21900
L32100 21900
" />
<path d="M32100 22900
L32100 22900
" />
<path d="M32100 23900
L32100 23900
" />
<path d="M32100 24900
L32100 24900
" />
<path d="M32100 25900
L32100 25900
" />
<path d="M32100 26900
L32100 26900
" />
<path d="M35100 26900
L35100 26900
" />
<path d="M35100 25900
L35100 25900
" />
<path d="M35100 24900
L35100 24900
" />
<path d="M35100 23900
L35100 23900
" />
<path d="M35100 22900
L35100 22900
" />
<path d="M35100 21900
L35100 21900
" />
<path d="M35100 20900
L35100 20900
" />
<path d="M35100 19900
L35100 19900
" />
<path d="M37300 19900
L37300 19900
" />
<path d="M37300 20900
L37300 20900
" />
<path d="M37300 21900
L37300 21900
" />
<path d="M37300 22900
L37300 22900
" />
<path d="M37300 23900
L37300 23900
" />
<path d="M37300 24900
L37300 24900
" />
<path d="M37300 25900
L37300 25900
" />
<path d="M37300 26900
L37300 26900
" />
<path d="M40300 26900
L40300 26900
" />
<path d="M40300 25900
L40300 25900
" />
<path d="M40300 24900
L40300 24900
" />
<path d="M40300 23900
L40300 23900
" />
<path d="M40300 22900
L40300 22900
" />
<path d="M40300 21900
L40300 21900
" />
<path d="M40300 20900
L40300 20900
" />
<path d="M40300 19900
L40300 19900
" />
<path d="M55511 26771
L55511 26771
" />
<path d="M55511 25771
L55511 25771
" />
<path d="M55511 24771
L55511 24771
" />
<path d="M55511 23771
L55511 23771
" />
<path d="M55511 22771
L55511 22771
" />
<path d="M55511 21771
L55511 21771
" />
<path d="M55511 20771
L55511 20771
" />
<path d="M55511 19771
L55511 19771
" />
<path d="M52511 19771
L52511 19771
" />
<path d="M52511 20771
L52511 20771
" />
<path d="M52511 21771
L52511 21771
" />
<path d="M52511 22771
L52511 22771
" />
<path d="M52511 23771
L52511 23771
" />
<path d="M52511 24771
L52511 24771
" />
<path d="M52511 25771
L52511 25771
" />
<path d="M52511 26771
L52511 26771
" />
<path d="M31500 17500
L31500 17500
" />
<path d="M32500 17500
L32500 17500
" />
<path d="M33500 17500
L33500 17500
" />
<path d="M34500 17500
L34500 17500
" />
<path d="M35500 17500
L35500 17500
" />
<path d="M36500 17500
L36500 17500
" />
<path d="M37500 17500
L37500 17500
" />
<path d="M38500 17500
L38500 17500
" />
<path d="M39500 17500
L39500 17500
" />
<path d="M40500 17500
L40500 17500
" />
<path d="M40500 14500
L40500 14500
" />
<path d="M39500 14500
L39500 14500
" />
<path d="M38500 14500
L38500 14500
" />
<path d="M37500 14500
L37500 14500
" />
<path d="M36500 14500
L36500 14500
" />
<path d="M35500 14500
L35500 14500
" />
<path d="M34500 14500
L34500 14500
" />
<path d="M33500 14500
L33500 14500
" />
<path d="M32500 14500
L32500 14500
" />
<path d="M31500 14500
L31500 14500
" />
<path d="M42500 17500
L42500 17500
" />
<path d="M43500 17500
L43500 17500
" />
<path d="M44500 17500
L44500 17500
" />
<path d="M45500 17500
L45500 17500
" />
<path d="M46500 17500
L46500 17500
" />
<path d="M47500 17500
L47500 17500
" />
<path d="M48500 17500
L48500 17500
" />
<path d="M49500 17500
L49500 17500
" />
<path d="M50500 17500
L50500 17500
" />
<path d="M51500 17500
L51500 17500
" />
<path d="M51500 14500
L51500 14500
" />
<path d="M50500 14500
L50500 14500
" />
<path d="M49500 14500
L49500 14500
" />
<path d="M48500 14500
L48500 14500
" />
<path d="M47500 14500
L47500 14500
" />
<path d="M46500 14500
L46500 14500
" />
<path d="M45500 14500
L45500 14500
" />
<path d="M44500 14500
L44500 14500
" />
<path d="M43500 14500
L43500 14500
" />
<path d="M42500 14500
L42500 14500
" />
<path d="M53500 17500
L53500 17500
" />
<path d="M54500 17500
L54500 17500
" />
<path d="M55500 17500
L55500 17500
" />
<path d="M56500 17500
L56500 17500
" />
<path d="M57500 17500
L57500 17500
" />
<path d="M58500 17500
L58500 17500
" />
<path d="M59500 17500
L59500 17500
" />
<path d="M60500 17500
L60500 17500
" />
<path d="M61500 17500
L61500 17500
" />
<path d="M62500 17500
L62500 17500
" />
<path d="M62500 14500
L62500 14500
" />
<path d="M61500 14500
L61500 14500
" />
<path d="M60500 14500
L60500 14500
" />
<path d="M59500 14500
L59500 14500
" />
<path d="M58500 14500
L58500 14500
" />
<path d="M57500 14500
L57500 14500
" />
<path d="M56500 14500
L56500 14500
" />
<path d="M55500 14500
L55500 14500
" />
<path d="M54500 14500
L54500 14500
" />
<path d="M53500 14500
L53500 14500
" />
</g>
<g style="fill:#000000; fill-opacity:1.0; 
stroke:#000000; stroke-width:0; stroke-opacity:1; 
stroke-linecap:round; stroke-linejoin:round;">
<circle cx="44444.9" cy="18810.2" r="378.74" /> 
</g>
<g style="fill:#000000; fill-opacity:1.0; 
stroke:#000000; stroke-width:39.3701; stroke-opacity:1; 
stroke-linecap:round; stroke-linejoin:round;">
</g>
<g style="fill:#000000; fill-opacity:1.0; 
stroke:#000000; stroke-width:0; stroke-opacity:1; 
stroke-linecap:round; stroke-linejoin:round;">
<circle cx="45444.9" cy="18810.2" r="378.74" /> 
</g>
<g style="fill:#000000; fill-opacity:1.0; 
stroke:#000000; stroke-width:39.3701; stroke-opacity:1; 
stroke-linecap:round; stroke-linejoin:round;">
</g>
<g style="fill:#000000; fill-opacity:1.0; 
stroke:#000000; stroke-width:0; stroke-opacity:1; 
stroke-linecap:round; stroke-linejoin:round;">
<circle cx="46444.9" cy="18810.2" r="378.74" /> 
</g>
<g style="fill:#000000; fill-opacity:1.0; 
stroke:#000000; stroke-width:39.3701; stroke-opacity:1; 
stroke-linecap:round; stroke-linejoin:round;">
</g>
<g style="fill:#000000; fill-opacity:1.0; 
stroke:#000000; stroke-width:0; stroke-opacity:1; 
stroke-linecap:round; stroke-linejoin:round;">
<circle cx="47444.9" cy="18810.2" r="378.74" /> 
</g>
<g style="fill:#000000; fill-opacity:1.0; 
stroke:#000000; stroke-width:39.3701; stroke-opacity:1; 
stroke-linecap:round; stroke-linejoin:round;">
</g>
<g style="fill:#000000; fill-opacity:1.0; 
stroke:#000000; stroke-width:0; stroke-opacity:1; 
stroke-linecap:round; stroke-linejoin:round;">
<circle cx="48445.3" cy="18809.8" r="378.74" /> 
</g>
<g style="fill:#000000; fill-opacity:1.0; 
stroke:#000000; stroke-width:39.3701; stroke-opacity:1; 
stroke-linecap:round; stroke-linejoin:round;">
</g>
<g style="fill:#000000; fill-opacity:1.0; 
stroke:#000000; stroke-width:0; stroke-opacity:1; 
stroke-linecap:round; stroke-linejoin:round;">
<circle cx="44249.6" cy="30950.4" r="378.74" /> 
</g>
<g style="fill:#000000; fill-opacity:1.0; 
stroke:#000000; stroke-width:39.3701; stroke-opacity:1; 
stroke-linecap:round; stroke-linejoin:round;">
</g>
<g style="fill:#000000; fill-opacity:1.0; 
stroke:#000000; stroke-width:0; stroke-opacity:1; 
stroke-linecap:round; stroke-linejoin:round;">
<circle cx="45250" cy="30950" r="378.74" /> 
</g>
<g style="fill:#000000; fill-opacity:1.0; 
stroke:#000000; stroke-width:39.3701; stroke-opacity:1; 
stroke-linecap:round; stroke-linejoin:round;">
</g>
<g style="fill:#000000; fill-opacity:1.0; 
stroke:#000000; stroke-width:0; stroke-opacity:1; 
stroke-linecap:round; stroke-linejoin:round;">
<circle cx="46250" cy="30950" r="378.74" /> 
</g>
<g style="fill:#000000; fill-opacity:1.0; 
stroke:#000000; stroke-width:39.3701; stroke-opacity:1; 
stroke-linecap:round; stroke-linejoin:round;">
</g>
<g style="fill:#000000; fill-opacity:1.0; 
stroke:#000000; stroke-width:0; stroke-opacity:1; 
stroke-linecap:round; stroke-linejoin:round;">
<circle cx="47250" cy="30950" r="378.74" /> 
</g>
<g style="fill:#000000; fill-opacity:1.0; 
stroke:#000000; stroke-width:39.3701; stroke-opacity:1; 
stroke-linecap:round; stroke-linejoin:round;">
</g>
<g style="fill:#000000; fill-opacity:1.0; 
stroke:#000000; stroke-width:0; stroke-opacity:1; 
stroke-linecap:round; stroke-linejoin:round;">
<circle cx="48250" cy="30950" r="378.74" /> 
</g>
<g style="fill:#000000; fill-opacity:1.0; 
stroke:#000000; stroke-width:39.3701; stroke-opacity:1; 
stroke-linecap:round; stroke-linejoin:round;">
</g>
<g style="fill:#000000; fill-opacity:1.0; 
stroke:#000000; stroke-width:0; stroke-opacity:1; 
stroke-linecap:round; stroke-linejoin:round;">
<polyline style="fill-rule:evenodd;"
points="50952,12972
50047,12972
50047,12027
50952,12027
50952,12972
" /> 
<circle cx="51500" cy="12500" r="452.756" /> 
</g>
<g style="fill:#000000; fill-opacity:1.0; 
stroke:#000000; stroke-width:39.3701; stroke-opacity:1; 
stroke-linecap:round; stroke-linejoin:round;">
</g>
<g style="fill:#000000; fill-opacity:1.0; 
stroke:#000000; stroke-width:0; stroke-opacity:1; 
stroke-linecap:round; stroke-linejoin:round;">
<polyline style="fill-rule:evenodd;"
points="45952,12972
45047,12972
45047,12027
45952,12027
45952,12972
" /> 
<circle cx="46500" cy="12500" r="452.756" /> 
</g>
<g style="fill:#000000; fill-opacity:1.0; 
stroke:#000000; stroke-width:39.3701; stroke-opacity:1; 
stroke-linecap:round; stroke-linejoin:round;">
</g>
<g style="fill:#000000; fill-opacity:1.0; 
stroke:#000000; stroke-width:0; stroke-opacity:1; 
stroke-linecap:round; stroke-linejoin:round;">
<polyline style="fill-rule:evenodd;"
points="48452,12972
47547,12972
47547,12027
48452,12027
48452,12972
" /> 
<circle cx="49000" cy="12500" r="452.756" /> 
</g>
<g style="fill:#000000; fill-opacity:1.0; 
stroke:#000000; stroke-width:39.3701; stroke-opacity:1; 
stroke-linecap:round; stroke-linejoin:round;">
</g>
<g style="fill:#000000; fill-opacity:1.0; 
stroke:#000000; stroke-width:0; stroke-opacity:1; 
stroke-linecap:round; stroke-linejoin:round;">
<polyline style="fill-rule:evenodd;"
points="43452,12972
42547,12972
42547,12027
43452,12027
43452,12972
" /> 
<circle cx="44000" cy="12500" r="452.756" /> 
</g>
<g style="fill:#000000; fill-opacity:1.0; 
stroke:#000000; stroke-width:39.3701; stroke-opacity:1; 
stroke-linecap:round; stroke-linejoin:round;">
</g>
<g style="fill:#000000; fill-opacity:1.0; 
stroke:#000000; stroke-width:0; stroke-opacity:1; 
stroke-linecap:round; stroke-linejoin:round;">
<polyline style="fill-rule:evenodd;"
points="58740,32188
57902,32188
57902,31351
58740,31351
58740,32188
" /> 
</g>
<g style="fill:#000000; fill-opacity:1.0; 
stroke:#000000; stroke-width:837.48; stroke-opacity:1; 
stroke-linecap:round; stroke-linejoin:round;">
</g>
<g style="fill:#000000; fill-opacity:0.0; 
stroke:#000000; stroke-width:837.48; stroke-opacity:1; 
stroke-linecap:round; stroke-linejoin:round;">
<path d="M58321 30769
L58321 30769
" />
<path d="M59321 31769
L59321 31769
" />
<path d="M59321 30769
L59321 30769
" />
<path d="M60321 31769
L60321 31769
" />
<path d="M60321 30769
L60321 30769
" />
<path d="M61321 31769
L61321 31769
" />
<path d="M61321 30769
L61321 30769
" />
<path d="M62321 31769
L62321 31769
" />
<path d="M62321 30769
L62321 30769
" />
</g>
<g style="fill:#000000; fill-opacity:0.0; 
stroke:#000000; stroke-width:0; stroke-opacity:1; 
stroke-linecap:round; stroke-linejoin:round;">
</g>
<g style="fill:#000000; fill-opacity:1.0; 
stroke:#000000; stroke-width:0; stroke-opacity:1; 
stroke-linecap:round; stroke-linejoin:round;">
<polyline style="fill-rule:evenodd;"
points="34680,32436
33843,32436
33843,31598
34680,31598
34680,32436
" /> 
</g>
<g style="fill:#000000; fill-opacity:1.0; 
stroke:#000000; stroke-width:837.48; stroke-opacity:1; 
stroke-linecap:round; stroke-linejoin:round;">
</g>
<g style="fill:#000000; fill-opacity:0.0; 
stroke:#000000; stroke-width:837.48; stroke-opacity:1; 
stroke-linecap:round; stroke-linejoin:round;">
<path d="M34261 31017
L34261 31017
" />
<path d="M35261 32017
L35261 32017
" />
<path d="M35261 31017
L35261 31017
" />
<path d="M36261 32017
L36261 32017
" />
<path d="M36261 31017
L36261 31017
" />
<path d="M37261 32017
L37261 32017
" />
<path d="M37261 31017
L37261 31017
" />
<path d="M38261 32017
L38261 32017
" />
<path d="M38261 31017
L38261 31017
" />
</g> 
</svg>
