<?xml version="1.0" standalone="no"?>
 <!DOCTYPE svg PUBLIC "-//W3C//DTD SVG 1.1//EN" 
 "http://www.w3.org/Graphics/SVG/1.1/DTD/svg11.dtd"> 
<svg xmlns="http://www.w3.org/2000/svg" version="1.1" 
    width="12.3927cm" height="12.888cm" viewBox="0 0 48790 50740 ">
<title>SVG Picture created as bargraph-brd.svg date 2016/06/05 20:56:26 </title>
  <desc>Picture generated by PCBNEW </desc>
<g style="fill:#000000; fill-opacity:1;stroke:#000000; stroke-opacity:1;
stroke-linecap:round; stroke-linejoin:round; "
 transform="translate(0 0) scale(1 1)">
</g>
<g style="fill:#000000; fill-opacity:0.0; 
stroke:#000000; stroke-width:-0.000393701; stroke-opacity:1; 
stroke-linecap:round; stroke-linejoin:round;">
</g>
<g style="fill:#000000; fill-opacity:0.0; 
stroke:#000000; stroke-width:59.0551; stroke-opacity:1; 
stroke-linecap:round; stroke-linejoin:round;">
<path d="M26580 28914
L27052 28914
" />
<path d="M27052 29603
L26580 29603
" />
<path d="M34044 41437
L33571 41437
" />
<path d="M33571 40748
L34044 40748
" />
<path d="M8542 12489
L8542 12096
" />
<path d="M7873 12096
L7873 12489
" />
<path d="M39994 33187
L39521 33187
" />
<path d="M39521 32498
L39994 32498
" />
<path d="M17808 48692
L8808 48692
" />
<path d="M8808 48692
L8808 47692
" />
<path d="M8808 47692
L17808 47692
" />
<path d="M18918 48803
L18308 48803
" />
<path d="M17808 48692
L17808 47692
" />
<path d="M18308 47582
L18918 47582
" />
<path d="M18918 47582
L18918 48803
" />
<path d="M39217 17702
L39217 17202
" />
<path d="M36323 17702
L36323 17202
" />
<path d="M36323 8895
L36323 9395
" />
<path d="M39217 8895
L39217 9395
" />
<path d="M39217 17702
L36323 17702
" />
<path d="M39217 8895
L36323 8895
" />
<path d="M39217 17202
L39585 17202
" />
<path d="M10043 9023
L10043 9523
" />
<path d="M12937 9023
L12937 9523
" />
<path d="M12937 17830
L12937 17330
" />
<path d="M10043 17830
L10043 17330
" />
<path d="M10043 9023
L12937 9023
" />
<path d="M10043 17830
L12937 17830
" />
<path d="M10043 9523
L9675 9523
" />
<path d="M15243 9023
L15243 9523
" />
<path d="M18137 9023
L18137 9523
" />
<path d="M18137 17830
L18137 17330
" />
<path d="M15243 17830
L15243 17330
" />
<path d="M15243 9023
L18137 9023
" />
<path d="M15243 17830
L18137 17830
" />
<path d="M15243 9523
L14875 9523
" />
<path d="M33349 17702
L33349 17202
" />
<path d="M30455 17702
L30455 17202
" />
<path d="M30455 8895
L30455 9395
" />
<path d="M33349 8895
L33349 9395
" />
<path d="M33349 17702
L30455 17702
" />
<path d="M33349 8895
L30455 8895
" />
<path d="M33349 17202
L33717 17202
" />
<path d="M12353 6935
L12853 6935
" />
<path d="M12353 4042
L12853 4042
" />
<path d="M23160 4042
L22660 4042
" />
<path d="M23160 6935
L22660 6935
" />
<path d="M12353 6935
L12353 4042
" />
<path d="M23160 6935
L23160 4042
" />
<path d="M12853 6935
L12853 7303
" />
<path d="M22387 6973
L22887 6973
" />
<path d="M22387 4080
L22887 4080
" />
<path d="M33194 4080
L32694 4080
" />
<path d="M33194 6973
L32694 6973
" />
<path d="M22387 6973
L22387 4080
" />
<path d="M33194 6973
L33194 4080
" />
<path d="M22887 6973
L22887 7341
" />
<path d="M32353 6935
L32853 6935
" />
<path d="M32353 4042
L32853 4042
" />
<path d="M43160 4042
L42660 4042
" />
<path d="M43160 6935
L42660 6935
" />
<path d="M32353 6935
L32353 4042
" />
<path d="M43160 6935
L43160 4042
" />
<path d="M32853 6935
L32853 7303
" />
<circle cx="26782.5" cy="19248.6" r="455.912" /> 
<path d="M24211 18654
L21546 18764
" />
<path d="M25199 15244
L24628 18654
" />
<path d="M25199 14913
L22471 14847
" />
<path d="M26211 11264
L25550 14693
" />
<path d="M23306 10890
L26187 10843
" />
<path d="M22140 14606
L22912 10933
" />
<path d="M21282 18831
L22073 15004
" />
<path d="M28985 8187
L19517 8187
" />
<path d="M28985 21624
L19517 21624
" />
<path d="M28985 8187
L28985 21587
" />
<path d="M19485 8187
L19485 21587
" />
<path d="M28990 21626
L28990 8226
" />
<path d="M19490 21626
L19490 8226
" />
<path d="M19490 8189
L28959 8189
" />
<path d="M19490 21626
L28959 21626
" />
<path d="M27512.4 2527.32 A1147.83 1147.83 0.0 1 0 27506.5 1336.42 " />
<path d="M27506 2517
L27506 1336
" />
<circle cx="28490.7" cy="1926.97" r="991.313" /> 
<path d="M22512.4 2527.32 A1147.83 1147.83 0.0 1 0 22506.5 1336.42 " />
<path d="M22506 2517
L22506 1336
" />
<circle cx="23490.7" cy="1926.97" r="991.313" /> 
<path d="M25012.4 2527.32 A1147.83 1147.83 0.0 1 0 25006.5 1336.42 " />
<path d="M25006 2517
L25006 1336
" />
<circle cx="25990.7" cy="1926.97" r="991.313" /> 
<path d="M20012.4 2527.32 A1147.83 1147.83 0.0 1 0 20006.5 1336.42 " />
<path d="M20006 2517
L20006 1336
" />
<circle cx="20990.7" cy="1926.97" r="991.313" /> 
<path d="M46116 35362
L46116 40362
" />
<path d="M46116 40362
L44116 40362
" />
<path d="M44116 40362
L44116 36362
" />
<path d="M46116 35362
L45116 35362
" />
<path d="M44616 35251
L44006 35251
" />
<path d="M45116 35362
L45116 36362
" />
<path d="M45116 36362
L44116 36362
" />
<path d="M44006 35251
L44006 35862
" />
<path d="M39508 46042
L40058 46042
" />
<path d="M39508 45042
L40058 45042
" />
<path d="M39508 44042
L40058 44042
" />
<circle cx="34358.1" cy="45042.9" r="989.95" /> 
<path d="M36158 42942
L33008 42942
" />
<path d="M33008 42942
L33008 47142
" />
<path d="M33008 47142
L36158 47142
" />
<path d="M39508 42942
L36158 42942
" />
<path d="M36158 42942
L36158 47142
" />
<path d="M36158 47142
L39508 47142
" />
<path d="M39508 45042
L39508 47142
" />
<path d="M39508 45042
L39508 42942
" />
<path d="M43994 33118
L44604 33118
" />
<path d="M46104 33007
L45104 33007
" />
<path d="M45104 33007
L45104 32007
" />
<path d="M44604 31897
L43994 31897
" />
<path d="M43994 31897
L43994 33118
" />
<path d="M45104 32007
L46104 32007
" />
<path d="M46104 32007
L46104 33007
" />
<path d="M26524 30264
L26393 30076
" />
<path d="M26299 30264
L26299 29870
L26449 29870
L26487 29889
L26506 29907
L26524 29945
L26524 30001
L26506 30039
L26487 30057
L26449 30076
L26299 30076
" />
<path d="M26862 30001
L26862 30264
" />
<path d="M26768 29851
L26674 30132
L26918 30132
" />
<path d="M27255 29870
L27068 29870
L27049 30057
L27068 30039
L27105 30020
L27199 30020
L27237 30039
L27255 30057
L27274 30095
L27274 30189
L27255 30226
L27237 30245
L27199 30264
L27105 30264
L27068 30245
L27049 30226
" />
<path d="M33704 40444
L33572 40256
" />
<path d="M33479 40444
L33479 40050
L33629 40050
L33666 40069
L33685 40088
L33704 40125
L33704 40181
L33685 40219
L33666 40237
L33629 40256
L33479 40256
" />
<path d="M34041 40050
L33966 40050
L33929 40069
L33910 40088
L33872 40144
L33854 40219
L33854 40369
L33872 40406
L33891 40425
L33929 40444
L34004 40444
L34041 40425
L34060 40406
L34079 40369
L34079 40275
L34060 40237
L34041 40219
L34004 40200
L33929 40200
L33891 40219
L33872 40237
L33854 40275
" />
<path d="M9175 12396
L9194 12415
L9212 12471
L9212 12509
L9194 12565
L9156 12603
L9119 12621
L9044 12640
L8987 12640
L8912 12621
L8875 12603
L8837 12565
L8819 12509
L8819 12471
L8837 12415
L8856 12396
" />
<path d="M9212 12021
L9212 12246
" />
<path d="M9212 12134
L8819 12134
L8875 12171
L8912 12209
L8931 12246
" />
<path d="M39466 32194
L39335 32006
" />
<path d="M39241 32194
L39241 31800
L39391 31800
L39429 31819
L39447 31838
L39466 31875
L39466 31931
L39447 31969
L39429 31987
L39391 32006
L39241 32006
" />
<path d="M39597 31800
L39841 31800
L39710 31950
L39766 31950
L39804 31969
L39822 31987
L39841 32025
L39841 32119
L39822 32156
L39804 32175
L39766 32194
L39654 32194
L39616 32175
L39597 32156
" />
<path d="M40066 31969
L40029 31950
L40010 31931
L39991 31894
L39991 31875
L40010 31838
L40029 31819
L40066 31800
L40141 31800
L40179 31819
L40197 31838
L40216 31875
L40216 31894
L40197 31931
L40179 31950
L40141 31969
L40066 31969
L40029 31987
L40010 32006
L39991 32044
L39991 32119
L40010 32156
L40029 32175
L40066 32194
L40141 32194
L40179 32175
L40197 32156
L40216 32119
L40216 32044
L40197 32006
L40179 31987
L40141 31969
" />
<path d="M20494 48531
L20100 48531
" />
<path d="M20287 48531
L20287 48306
" />
<path d="M20494 48306
L20100 48306
" />
<path d="M20494 47912
L20494 48137
" />
<path d="M20494 48025
L20100 48025
L20156 48062
L20194 48100
L20212 48137
" />
<path d="M38932 18638
L38932 18956
L38951 18994
L38969 19013
L39007 19031
L39082 19031
L39119 19013
L39138 18994
L39157 18956
L39157 18638
" />
<path d="M39513 18638
L39438 18638
L39401 18656
L39382 18675
L39344 18731
L39326 18806
L39326 18956
L39344 18994
L39363 19013
L39401 19031
L39476 19031
L39513 19013
L39532 18994
L39550 18956
L39550 18863
L39532 18825
L39513 18806
L39476 18788
L39401 18788
L39363 18806
L39344 18825
L39326 18863
" />
<path d="M9652 7656
L9652 7974
L9671 8012
L9689 8031
L9727 8049
L9802 8049
L9839 8031
L9858 8012
L9877 7974
L9877 7656
" />
<path d="M10233 7787
L10233 8049
" />
<path d="M10139 7637
L10046 7918
L10289 7918
" />
<path d="M14852 7656
L14852 7974
L14871 8012
L14889 8031
L14927 8049
L15002 8049
L15039 8031
L15058 8012
L15077 7974
L15077 7656
" />
<path d="M15452 7656
L15264 7656
L15246 7843
L15264 7824
L15302 7806
L15396 7806
L15433 7824
L15452 7843
L15471 7881
L15471 7974
L15452 8012
L15433 8031
L15396 8049
L15302 8049
L15264 8031
L15246 8012
" />
<path d="M33064 18638
L33064 18956
L33082 18994
L33101 19013
L33139 19031
L33214 19031
L33251 19013
L33270 18994
L33289 18956
L33289 18638
" />
<path d="M33439 18638
L33701 18638
L33532 19031
" />
<path d="M11379 8564
L10986 8564
" />
<path d="M11136 8564
L11117 8527
L11117 8452
L11136 8414
L11154 8395
L11192 8377
L11304 8377
L11342 8395
L11360 8414
L11379 8452
L11379 8527
L11360 8564
" />
<path d="M11379 8039
L11173 8039
L11136 8058
L11117 8095
L11117 8170
L11136 8208
" />
<path d="M11360 8039
L11379 8077
L11379 8170
L11360 8208
L11323 8227
L11285 8227
L11248 8208
L11229 8170
L11229 8077
L11211 8039
" />
<path d="M11379 7852
L11117 7852
" />
<path d="M11192 7852
L11154 7833
L11136 7814
L11117 7777
L11117 7739
" />
<path d="M11417 7702
L11417 7402
" />
<path d="M11117 7139
L11435 7139
L11473 7158
L11492 7177
L11510 7214
L11510 7271
L11492 7308
" />
<path d="M11360 7139
L11379 7177
L11379 7252
L11360 7289
L11342 7308
L11304 7327
L11192 7327
L11154 7308
L11136 7289
L11117 7252
L11117 7177
L11136 7139
" />
<path d="M11379 6952
L11117 6952
" />
<path d="M11192 6952
L11154 6933
L11136 6914
L11117 6877
L11117 6839
" />
<path d="M11360 6558
L11379 6596
L11379 6671
L11360 6708
L11323 6727
L11173 6727
L11136 6708
L11117 6671
L11117 6596
L11136 6558
L11173 6539
L11211 6539
L11248 6727
" />
<path d="M11360 6221
L11379 6258
L11379 6333
L11360 6371
L11323 6389
L11173 6389
L11136 6371
L11117 6333
L11117 6258
L11136 6221
L11173 6202
L11211 6202
L11248 6389
" />
<path d="M11117 6033
L11379 6033
" />
<path d="M11154 6033
L11136 6014
L11117 5977
L11117 5921
L11136 5883
L11173 5864
L11379 5864
" />
<path d="M11379 5471
L11379 5696
" />
<path d="M11379 5583
L10986 5583
L11042 5621
L11079 5658
L11098 5696
" />
<path d="M21413 8246
L21020 8246
" />
<path d="M21170 8246
L21151 8208
L21151 8133
L21170 8096
L21188 8077
L21226 8058
L21338 8058
L21376 8077
L21394 8096
L21413 8133
L21413 8208
L21394 8246
" />
<path d="M21413 7721
L21207 7721
L21170 7740
L21151 7777
L21151 7852
L21170 7890
" />
<path d="M21394 7721
L21413 7759
L21413 7852
L21394 7890
L21357 7908
L21319 7908
L21282 7890
L21263 7852
L21263 7759
L21245 7721
" />
<path d="M21413 7534
L21151 7534
" />
<path d="M21226 7534
L21188 7515
L21170 7496
L21151 7459
L21151 7421
" />
<path d="M21451 7384
L21451 7084
" />
<path d="M21151 7027
L21413 6934
" />
<path d="M21151 6840
L21413 6934
L21507 6971
L21526 6990
L21544 7027
" />
<path d="M21413 6634
L21394 6671
L21357 6690
L21020 6690
" />
<path d="M21151 6521
L21413 6446
L21226 6371
L21413 6296
L21151 6221
" />
<path d="M21413 5865
L21413 6090
" />
<path d="M21413 5977
L21020 5977
L21076 6015
L21113 6052
L21132 6090
" />
<path d="M31379 8217
L30986 8217
" />
<path d="M31136 8217
L31117 8180
L31117 8105
L31136 8067
L31154 8049
L31192 8030
L31304 8030
L31342 8049
L31360 8067
L31379 8105
L31379 8180
L31360 8217
" />
<path d="M31379 7692
L31173 7692
L31136 7711
L31117 7749
L31117 7824
L31136 7861
" />
<path d="M31360 7692
L31379 7730
L31379 7824
L31360 7861
L31323 7880
L31285 7880
L31248 7861
L31229 7824
L31229 7730
L31211 7692
" />
<path d="M31379 7505
L31117 7505
" />
<path d="M31192 7505
L31154 7486
L31136 7467
L31117 7430
L31117 7392
" />
<path d="M31417 7355
L31417 7055
" />
<path d="M31379 6961
L31117 6961
" />
<path d="M31192 6961
L31154 6942
L31136 6924
L31117 6886
L31117 6849
" />
<path d="M31360 6568
L31379 6605
L31379 6680
L31360 6718
L31323 6736
L31173 6736
L31136 6718
L31117 6680
L31117 6605
L31136 6568
L31173 6549
L31211 6549
L31248 6736
" />
<path d="M31379 6211
L30986 6211
" />
<path d="M31360 6211
L31379 6249
L31379 6324
L31360 6361
L31342 6380
L31304 6399
L31192 6399
L31154 6380
L31136 6361
L31117 6324
L31117 6249
L31136 6211
" />
<path d="M31379 5818
L31379 6043
" />
<path d="M31379 5930
L30986 5930
L31042 5968
L31079 6005
L31098 6043
" />
<path d="M21715 22787
L21903 22787
" />
<path d="M21678 22899
L21809 22505
L21940 22899
" />
<path d="M22203 22693
L22071 22693
" />
<path d="M22071 22899
L22071 22505
L22259 22505
" />
<path d="M22540 22693
L22409 22693
" />
<path d="M22409 22899
L22409 22505
L22596 22505
" />
<path d="M22952 22899
L22727 22899
" />
<path d="M22840 22899
L22840 22505
L22802 22562
L22765 22599
L22727 22618
" />
<path d="M28074 3705
L28074 3311
L28168 3311
L28224 3330
L28261 3367
L28280 3405
L28299 3480
L28299 3536
L28280 3611
L28261 3648
L28224 3686
L28168 3705
L28074 3705
" />
<path d="M28674 3705
L28449 3705
" />
<path d="M28561 3705
L28561 3311
L28524 3367
L28486 3405
L28449 3423
" />
<path d="M28805 3311
L29049 3311
L28917 3461
L28974 3461
L29011 3480
L29030 3498
L29049 3536
L29049 3630
L29030 3667
L29011 3686
L28974 3705
L28861 3705
L28824 3686
L28805 3667
" />
<path d="M27099 2855
L27099 2461
" />
<path d="M27324 2855
L27155 2630
" />
<path d="M27324 2461
L27099 2686
" />
<path d="M23074 3705
L23074 3311
L23168 3311
L23224 3330
L23261 3367
L23280 3405
L23299 3480
L23299 3536
L23280 3611
L23261 3648
L23224 3686
L23168 3705
L23074 3705
" />
<path d="M23674 3705
L23449 3705
" />
<path d="M23561 3705
L23561 3311
L23524 3367
L23486 3405
L23449 3423
" />
<path d="M23805 3311
L24067 3311
L23899 3705
" />
<path d="M22099 2855
L22099 2461
" />
<path d="M22324 2855
L22155 2630
" />
<path d="M22324 2461
L22099 2686
" />
<path d="M25574 3705
L25574 3311
L25668 3311
L25724 3330
L25761 3367
L25780 3405
L25799 3480
L25799 3536
L25780 3611
L25761 3648
L25724 3686
L25668 3705
L25574 3705
" />
<path d="M26174 3705
L25949 3705
" />
<path d="M26061 3705
L26061 3311
L26024 3367
L25986 3405
L25949 3423
" />
<path d="M26530 3311
L26342 3311
L26324 3498
L26342 3480
L26380 3461
L26474 3461
L26511 3480
L26530 3498
L26549 3536
L26549 3630
L26530 3667
L26511 3686
L26474 3705
L26380 3705
L26342 3686
L26324 3667
" />
<path d="M24599 2855
L24599 2461
" />
<path d="M24824 2855
L24655 2630
" />
<path d="M24824 2461
L24599 2686
" />
<path d="M20574 3705
L20574 3311
L20668 3311
L20724 3330
L20761 3367
L20780 3405
L20799 3480
L20799 3536
L20780 3611
L20761 3648
L20724 3686
L20668 3705
L20574 3705
" />
<path d="M21174 3705
L20949 3705
" />
<path d="M21061 3705
L21061 3311
L21024 3367
L20986 3405
L20949 3423
" />
<path d="M21511 3442
L21511 3705
" />
<path d="M21417 3292
L21324 3573
L21567 3573
" />
<path d="M19599 2855
L19599 2461
" />
<path d="M19824 2855
L19655 2630
" />
<path d="M19824 2461
L19599 2686
" />
<path d="M44446 33638
L44446 33919
L44428 33976
L44390 34013
L44334 34032
L44296 34032
" />
<path d="M44840 34032
L44615 34032
" />
<path d="M44728 34032
L44728 33638
L44690 33694
L44653 33732
L44615 33751
" />
<path d="M31746 45283
L32065 45283
L32102 45264
L32121 45245
L32140 45208
L32140 45133
L32121 45095
L32102 45077
L32065 45058
L31746 45058
" />
<path d="M31783 44889
L31765 44870
L31746 44833
L31746 44739
L31765 44702
L31783 44683
L31821 44664
L31858 44664
L31915 44683
L32140 44908
L32140 44664
" />
<path d="M44275 30678
L44275 30284
L44425 30284
L44463 30303
L44482 30321
L44500 30359
L44500 30415
L44482 30453
L44463 30471
L44425 30490
L44275 30490
" />
<path d="M44838 30284
L44763 30284
L44725 30303
L44707 30321
L44669 30378
L44650 30453
L44650 30603
L44669 30640
L44688 30659
L44725 30678
L44800 30678
L44838 30659
L44856 30640
L44875 30603
L44875 30509
L44856 30471
L44838 30453
L44800 30434
L44725 30434
L44688 30453
L44669 30471
L44650 30509
" />
<path d="M26318 28254
L26337 28235
L26374 28216
L26468 28216
L26506 28235
L26524 28254
L26543 28291
L26543 28329
L26524 28385
L26299 28610
L26543 28610
" />
<path d="M26712 28610
L26712 28216
" />
<path d="M26749 28460
L26862 28610
" />
<path d="M26862 28348
L26712 28498
" />
<path d="M26993 28216
L27255 28216
L27087 28610
" />
<path d="M33310 41741
L33329 41722
L33366 41704
L33460 41704
L33497 41722
L33516 41741
L33535 41779
L33535 41816
L33516 41872
L33291 42097
L33535 42097
" />
<path d="M33704 42097
L33704 41704
" />
<path d="M33741 41947
L33854 42097
" />
<path d="M33854 41835
L33704 41985
" />
<path d="M34004 41741
L34022 41722
L34060 41704
L34154 41704
L34191 41722
L34210 41741
L34229 41779
L34229 41816
L34210 41872
L33985 42097
L34229 42097
" />
<path d="M7559 12771
L7559 12996
" />
<path d="M7559 12884
L7165 12884
L7221 12921
L7259 12959
L7278 12996
" />
<path d="M7165 12528
L7165 12490
L7184 12453
L7203 12434
L7240 12415
L7315 12396
L7409 12396
L7484 12415
L7521 12434
L7540 12453
L7559 12490
L7559 12528
L7540 12565
L7521 12584
L7484 12603
L7409 12621
L7315 12621
L7240 12603
L7203 12584
L7184 12565
L7165 12528
" />
<path d="M7165 12153
L7165 12115
L7184 12078
L7203 12059
L7240 12040
L7315 12021
L7409 12021
L7484 12040
L7521 12059
L7540 12078
L7559 12115
L7559 12153
L7540 12190
L7521 12209
L7484 12228
L7409 12246
L7315 12246
L7240 12228
L7203 12209
L7184 12190
L7165 12153
" />
<path d="M7296 11853
L7559 11853
" />
<path d="M7334 11853
L7315 11834
L7296 11796
L7296 11740
L7315 11703
L7353 11684
L7559 11684
" />
<path d="M39635 33847
L39410 33847
" />
<path d="M39522 33847
L39522 33454
L39485 33510
L39447 33547
L39410 33566
" />
<path d="M40029 33847
L39897 33660
" />
<path d="M39804 33847
L39804 33454
L39954 33454
L39991 33472
L40010 33491
L40029 33529
L40029 33585
L40010 33622
L39991 33641
L39954 33660
L39804 33660
" />
<path d="M19444 50256
L19837 50256
" />
<path d="M19462 50256
L19444 50218
L19444 50143
L19462 50106
L19481 50087
L19519 50068
L19631 50068
L19669 50087
L19687 50106
L19706 50143
L19706 50218
L19687 50256
" />
<path d="M19706 49899
L19444 49899
" />
<path d="M19312 49899
L19331 49918
L19350 49899
L19331 49881
L19312 49899
L19350 49899
" />
<path d="M19444 49712
L19706 49712
" />
<path d="M19481 49712
L19462 49693
L19444 49656
L19444 49599
L19462 49562
L19500 49543
L19706 49543
" />
<path d="M19744 49449
L19744 49149
" />
<path d="M19706 49056
L19312 49056
" />
<path d="M19706 48887
L19500 48887
L19462 48906
L19444 48943
L19444 48999
L19462 49037
L19481 49056
" />
<path d="M19687 48549
L19706 48587
L19706 48662
L19687 48699
L19650 48718
L19500 48718
L19462 48699
L19444 48662
L19444 48587
L19462 48549
L19500 48531
L19537 48531
L19575 48718
" />
<path d="M19706 48193
L19500 48193
L19462 48212
L19444 48250
L19444 48325
L19462 48362
" />
<path d="M19687 48193
L19706 48231
L19706 48325
L19687 48362
L19650 48381
L19612 48381
L19575 48362
L19556 48325
L19556 48231
L19537 48193
" />
<path d="M19706 47837
L19312 47837
" />
<path d="M19687 47837
L19706 47875
L19706 47950
L19687 47987
L19669 48006
L19631 48025
L19519 48025
L19481 48006
L19462 47987
L19444 47950
L19444 47875
L19462 47837
" />
<path d="M19687 47500
L19706 47537
L19706 47612
L19687 47650
L19650 47668
L19500 47668
L19462 47650
L19444 47612
L19444 47537
L19462 47500
L19500 47481
L19537 47481
L19575 47668
" />
<path d="M19706 47312
L19444 47312
" />
<path d="M19519 47312
L19481 47293
L19462 47275
L19444 47237
L19444 47200
" />
<path d="M19744 47162
L19744 46862
" />
<path d="M19706 46562
L19706 46787
" />
<path d="M19706 46675
L19312 46675
L19369 46712
L19406 46750
L19425 46787
" />
<path d="M19312 46319
L19312 46281
L19331 46244
L19350 46225
L19387 46206
L19462 46187
L19556 46187
L19631 46206
L19669 46225
L19687 46244
L19706 46281
L19706 46319
L19687 46356
L19669 46375
L19631 46394
L19556 46412
L19462 46412
L19387 46394
L19350 46375
L19331 46356
L19312 46319
" />
<path d="M37760 18047
L38023 18047
L37854 18441
" />
<path d="M38341 18178
L38341 18441
" />
<path d="M38248 18028
L38154 18310
L38398 18310
" />
<path d="M38547 18441
L38547 18047
" />
<path d="M38547 18235
L38772 18235
" />
<path d="M38772 18441
L38772 18047
" />
<path d="M39185 18403
L39166 18422
L39110 18441
L39072 18441
L39016 18422
L38979 18385
L38960 18347
L38941 18272
L38941 18216
L38960 18141
L38979 18103
L39016 18066
L39072 18047
L39110 18047
L39166 18066
L39185 18085
" />
<path d="M39522 18178
L39522 18441
" />
<path d="M39429 18028
L39335 18310
L39579 18310
" />
<path d="M39804 18047
L39841 18047
L39879 18066
L39897 18085
L39916 18122
L39935 18197
L39935 18291
L39916 18366
L39897 18403
L39879 18422
L39841 18441
L39804 18441
L39766 18422
L39747 18403
L39729 18366
L39710 18291
L39710 18197
L39729 18122
L39747 18085
L39766 18066
L39804 18047
" />
<path d="M40122 18441
L40197 18441
L40235 18422
L40254 18403
L40291 18347
L40310 18272
L40310 18122
L40291 18085
L40272 18066
L40235 18047
L40160 18047
L40122 18066
L40104 18085
L40085 18122
L40085 18216
L40104 18253
L40122 18272
L40160 18291
L40235 18291
L40272 18272
L40291 18253
L40310 18216
" />
<path d="M40647 18178
L40647 18441
" />
<path d="M40553 18028
L40460 18310
L40703 18310
" />
<path d="M8480 8246
L8743 8246
L8574 8640
" />
<path d="M9061 8378
L9061 8640
" />
<path d="M8968 8228
L8874 8509
L9118 8509
" />
<path d="M9268 8640
L9268 8246
" />
<path d="M9268 8434
L9493 8434
" />
<path d="M9493 8640
L9493 8246
" />
<path d="M9905 8603
L9886 8621
L9830 8640
L9793 8640
L9736 8621
L9699 8584
L9680 8546
L9661 8471
L9661 8415
L9680 8340
L9699 8303
L9736 8265
L9793 8246
L9830 8246
L9886 8265
L9905 8284
" />
<path d="M10242 8378
L10242 8640
" />
<path d="M10149 8228
L10055 8509
L10299 8509
" />
<path d="M10524 8246
L10561 8246
L10599 8265
L10617 8284
L10636 8321
L10655 8396
L10655 8490
L10636 8565
L10617 8603
L10599 8621
L10561 8640
L10524 8640
L10486 8621
L10467 8603
L10449 8565
L10430 8490
L10430 8396
L10449 8321
L10467 8284
L10486 8265
L10524 8246
" />
<path d="M10842 8640
L10917 8640
L10955 8621
L10974 8603
L11011 8546
L11030 8471
L11030 8321
L11011 8284
L10992 8265
L10955 8246
L10880 8246
L10842 8265
L10824 8284
L10805 8321
L10805 8415
L10824 8453
L10842 8471
L10880 8490
L10955 8490
L10992 8471
L11011 8453
L11030 8415
" />
<path d="M11367 8378
L11367 8640
" />
<path d="M11274 8228
L11180 8509
L11424 8509
" />
<path d="M13680 8246
L13943 8246
L13774 8640
" />
<path d="M14261 8378
L14261 8640
" />
<path d="M14168 8228
L14074 8509
L14318 8509
" />
<path d="M14468 8640
L14468 8246
" />
<path d="M14468 8434
L14693 8434
" />
<path d="M14693 8640
L14693 8246
" />
<path d="M15105 8603
L15086 8621
L15030 8640
L14993 8640
L14936 8621
L14899 8584
L14880 8546
L14861 8471
L14861 8415
L14880 8340
L14899 8303
L14936 8265
L14993 8246
L15030 8246
L15086 8265
L15105 8284
" />
<path d="M15442 8378
L15442 8640
" />
<path d="M15349 8228
L15255 8509
L15499 8509
" />
<path d="M15724 8246
L15761 8246
L15799 8265
L15817 8284
L15836 8321
L15855 8396
L15855 8490
L15836 8565
L15817 8603
L15799 8621
L15761 8640
L15724 8640
L15686 8621
L15667 8603
L15649 8565
L15630 8490
L15630 8396
L15649 8321
L15667 8284
L15686 8265
L15724 8246
" />
<path d="M16042 8640
L16117 8640
L16155 8621
L16174 8603
L16211 8546
L16230 8471
L16230 8321
L16211 8284
L16192 8265
L16155 8246
L16080 8246
L16042 8265
L16024 8284
L16005 8321
L16005 8415
L16024 8453
L16042 8471
L16080 8490
L16155 8490
L16192 8471
L16211 8453
L16230 8415
" />
<path d="M16567 8378
L16567 8640
" />
<path d="M16474 8228
L16380 8509
L16624 8509
" />
<path d="M31892 18047
L32154 18047
L31986 18441
" />
<path d="M32473 18178
L32473 18441
" />
<path d="M32379 18028
L32286 18310
L32529 18310
" />
<path d="M32679 18441
L32679 18047
" />
<path d="M32679 18235
L32904 18235
" />
<path d="M32904 18441
L32904 18047
" />
<path d="M33317 18403
L33298 18422
L33242 18441
L33204 18441
L33148 18422
L33111 18385
L33092 18347
L33073 18272
L33073 18216
L33092 18141
L33111 18103
L33148 18066
L33204 18047
L33242 18047
L33298 18066
L33317 18085
" />
<path d="M33654 18178
L33654 18441
" />
<path d="M33561 18028
L33467 18310
L33711 18310
" />
<path d="M33935 18047
L33973 18047
L34010 18066
L34029 18085
L34048 18122
L34067 18197
L34067 18291
L34048 18366
L34029 18403
L34010 18422
L33973 18441
L33935 18441
L33898 18422
L33879 18403
L33860 18366
L33842 18291
L33842 18197
L33860 18122
L33879 18085
L33898 18066
L33935 18047
" />
<path d="M34254 18441
L34329 18441
L34367 18422
L34385 18403
L34423 18347
L34442 18272
L34442 18122
L34423 18085
L34404 18066
L34367 18047
L34292 18047
L34254 18066
L34235 18085
L34217 18122
L34217 18216
L34235 18253
L34254 18272
L34292 18291
L34367 18291
L34404 18272
L34423 18253
L34442 18216
" />
<path d="M34779 18178
L34779 18441
" />
<path d="M34685 18028
L34592 18310
L34835 18310
" />
<path d="M11970 8480
L11576 8480
L11576 8386
L11595 8330
L11632 8292
L11670 8274
L11745 8255
L11801 8255
L11876 8274
L11914 8292
L11951 8330
L11970 8386
L11970 8480
" />
<path d="M11576 8011
L11576 7936
L11595 7899
L11632 7861
L11707 7842
L11839 7842
L11914 7861
L11951 7899
L11970 7936
L11970 8011
L11951 8049
L11914 8086
L11839 8105
L11707 8105
L11632 8086
L11595 8049
L11576 8011
" />
<path d="M11576 7730
L11576 7505
" />
<path d="M11970 7617
L11576 7617
" />
<path d="M11820 7374
L11820 7074
" />
<path d="M11764 6755
L11782 6699
L11801 6680
L11839 6661
L11895 6661
L11932 6680
L11951 6699
L11970 6736
L11970 6886
L11576 6886
L11576 6755
L11595 6718
L11614 6699
L11651 6680
L11689 6680
L11726 6699
L11745 6718
L11764 6755
L11764 6886
" />
<path d="M11857 6511
L11857 6324
" />
<path d="M11970 6549
L11576 6418
L11970 6286
" />
<path d="M11970 5930
L11782 6061
" />
<path d="M11970 6155
L11576 6155
L11576 6005
L11595 5968
L11614 5949
L11651 5930
L11707 5930
L11745 5949
L11764 5968
L11782 6005
L11782 6155
" />
<path d="M11614 5780
L11595 5761
L11576 5724
L11576 5630
L11595 5593
L11614 5574
L11651 5555
L11689 5555
L11745 5574
L11970 5799
L11970 5555
" />
<path d="M22004 8518
L21610 8518
L21610 8424
L21629 8368
L21666 8330
L21704 8312
L21779 8293
L21835 8293
L21910 8312
L21948 8330
L21985 8368
L22004 8424
L22004 8518
" />
<path d="M21610 8049
L21610 7974
L21629 7937
L21666 7899
L21741 7880
L21873 7880
L21948 7899
L21985 7937
L22004 7974
L22004 8049
L21985 8087
L21948 8124
L21873 8143
L21741 8143
L21666 8124
L21629 8087
L21610 8049
" />
<path d="M21610 7768
L21610 7543
" />
<path d="M22004 7655
L21610 7655
" />
<path d="M21854 7412
L21854 7112
" />
<path d="M21798 6793
L21816 6737
L21835 6718
L21873 6699
L21929 6699
L21966 6718
L21985 6737
L22004 6774
L22004 6924
L21610 6924
L21610 6793
L21629 6756
L21648 6737
L21685 6718
L21723 6718
L21760 6737
L21779 6756
L21798 6793
L21798 6924
" />
<path d="M21891 6549
L21891 6362
" />
<path d="M22004 6587
L21610 6456
L22004 6324
" />
<path d="M22004 5968
L21816 6099
" />
<path d="M22004 6193
L21610 6193
L21610 6043
L21629 6006
L21648 5987
L21685 5968
L21741 5968
L21779 5987
L21798 6006
L21816 6043
L21816 6193
" />
<path d="M21648 5818
L21629 5799
L21610 5762
L21610 5668
L21629 5631
L21648 5612
L21685 5593
L21723 5593
L21779 5612
L22004 5837
L22004 5593
" />
<path d="M31970 8480
L31576 8480
L31576 8386
L31595 8330
L31632 8292
L31670 8274
L31745 8255
L31801 8255
L31876 8274
L31914 8292
L31951 8330
L31970 8386
L31970 8480
" />
<path d="M31576 8011
L31576 7936
L31595 7899
L31632 7861
L31707 7842
L31839 7842
L31914 7861
L31951 7899
L31970 7936
L31970 8011
L31951 8049
L31914 8086
L31839 8105
L31707 8105
L31632 8086
L31595 8049
L31576 8011
" />
<path d="M31576 7730
L31576 7505
" />
<path d="M31970 7617
L31576 7617
" />
<path d="M31820 7374
L31820 7074
" />
<path d="M31764 6755
L31782 6699
L31801 6680
L31839 6661
L31895 6661
L31932 6680
L31951 6699
L31970 6736
L31970 6886
L31576 6886
L31576 6755
L31595 6718
L31614 6699
L31651 6680
L31689 6680
L31726 6699
L31745 6718
L31764 6755
L31764 6886
" />
<path d="M31857 6511
L31857 6324
" />
<path d="M31970 6549
L31576 6418
L31970 6286
" />
<path d="M31970 5930
L31782 6061
" />
<path d="M31970 6155
L31576 6155
L31576 6005
L31595 5968
L31614 5949
L31651 5930
L31707 5930
L31745 5949
L31764 5968
L31782 6005
L31782 6155
" />
<path d="M31614 5780
L31595 5761
L31576 5724
L31576 5630
L31595 5593
L31614 5574
L31651 5555
L31689 5555
L31745 5574
L31970 5799
L31970 5555
" />
<path d="M16737 20576
L16999 20576
L16830 20970
" />
<path d="M17130 20951
L17187 20970
L17280 20970
L17318 20951
L17337 20932
L17355 20895
L17355 20857
L17337 20820
L17318 20801
L17280 20782
L17205 20764
L17168 20745
L17149 20726
L17130 20689
L17130 20651
L17149 20614
L17168 20595
L17205 20576
L17299 20576
L17355 20595
" />
<path d="M17524 20764
L17655 20764
" />
<path d="M17712 20970
L17524 20970
L17524 20576
L17712 20576
" />
<path d="M18086 20595
L18049 20576
L17993 20576
L17936 20595
L17899 20632
L17880 20670
L17861 20745
L17861 20801
L17880 20876
L17899 20914
L17936 20951
L17993 20970
L18030 20970
L18086 20951
L18105 20932
L18105 20801
L18030 20801
" />
<path d="M18274 20970
L18274 20576
L18405 20857
L18536 20576
L18536 20970
" />
<path d="M18724 20764
L18855 20764
" />
<path d="M18911 20970
L18724 20970
L18724 20576
L18911 20576
" />
<path d="M19080 20970
L19080 20576
L19305 20970
L19305 20576
" />
<path d="M19436 20576
L19661 20576
" />
<path d="M19549 20970
L19549 20576
" />
<path d="M19774 20951
L19830 20970
L19924 20970
L19961 20951
L19980 20932
L19999 20895
L19999 20857
L19980 20820
L19961 20801
L19924 20782
L19849 20764
L19811 20745
L19793 20726
L19774 20689
L19774 20651
L19793 20614
L19811 20595
L19849 20576
L19942 20576
L19999 20595
" />
<path d="M28299 555
L28111 555
L28111 161
" />
<path d="M28430 348
L28561 348
" />
<path d="M28617 555
L28430 555
L28430 161
L28617 161
" />
<path d="M28786 555
L28786 161
L28880 161
L28936 180
L28974 217
L28992 255
L29011 330
L29011 386
L28992 461
L28974 498
L28936 536
L28880 555
L28786 555
" />
<path d="M23299 555
L23111 555
L23111 161
" />
<path d="M23430 348
L23561 348
" />
<path d="M23617 555
L23430 555
L23430 161
L23617 161
" />
<path d="M23786 555
L23786 161
L23880 161
L23936 180
L23974 217
L23992 255
L24011 330
L24011 386
L23992 461
L23974 498
L23936 536
L23880 555
L23786 555
" />
<path d="M25799 555
L25611 555
L25611 161
" />
<path d="M25930 348
L26061 348
" />
<path d="M26117 555
L25930 555
L25930 161
L26117 161
" />
<path d="M26286 555
L26286 161
L26380 161
L26436 180
L26474 217
L26492 255
L26511 330
L26511 386
L26492 461
L26474 498
L26436 536
L26380 555
L26286 555
" />
<path d="M20799 555
L20611 555
L20611 161
" />
<path d="M20930 348
L21061 348
" />
<path d="M21117 555
L20930 555
L20930 161
L21117 161
" />
<path d="M21286 555
L21286 161
L21380 161
L21436 180
L21474 217
L21492 255
L21511 330
L21511 386
L21492 461
L21474 498
L21436 536
L21380 555
L21286 555
" />
<path d="M44090 34819
L44090 34426
L44184 34426
L44240 34444
L44278 34482
L44296 34519
L44315 34594
L44315 34651
L44296 34726
L44278 34763
L44240 34801
L44184 34819
L44090 34819
" />
<path d="M44615 34613
L44671 34632
L44690 34651
L44709 34688
L44709 34744
L44690 34782
L44671 34801
L44634 34819
L44484 34819
L44484 34426
L44615 34426
L44653 34444
L44671 34463
L44690 34501
L44690 34538
L44671 34576
L44653 34594
L44615 34613
L44484 34613
" />
<path d="M44896 34819
L44971 34819
L45009 34801
L45028 34782
L45065 34726
L45084 34651
L45084 34501
L45065 34463
L45046 34444
L45009 34426
L44934 34426
L44896 34444
L44878 34463
L44859 34501
L44859 34594
L44878 34632
L44896 34651
L44934 34669
L45009 34669
L45046 34651
L45065 34632
L45084 34594
" />
<path d="M42809 46360
L42809 46547
L42415 46547
" />
<path d="M42809 46228
L42415 46228
L42696 46097
L42415 45966
L42809 45966
" />
<path d="M42415 45816
L42415 45553
L42809 45722
" />
<path d="M42584 45347
L42565 45385
L42546 45403
L42509 45422
L42490 45422
L42452 45403
L42434 45385
L42415 45347
L42415 45272
L42434 45235
L42452 45216
L42490 45197
L42509 45197
L42546 45216
L42565 45235
L42584 45272
L42584 45347
L42602 45385
L42621 45403
L42659 45422
L42734 45422
L42771 45403
L42790 45385
L42809 45347
L42809 45272
L42790 45235
L42771 45216
L42734 45197
L42659 45197
L42621 45216
L42602 45235
L42584 45272
" />
<path d="M42415 44954
L42415 44916
L42434 44879
L42452 44860
L42490 44841
L42565 44822
L42659 44822
L42734 44841
L42771 44860
L42790 44879
L42809 44916
L42809 44954
L42790 44991
L42771 45010
L42734 45029
L42659 45047
L42565 45047
L42490 45029
L42452 45010
L42434 44991
L42415 44954
" />
<path d="M42415 44466
L42415 44654
L42602 44672
L42584 44654
L42565 44616
L42565 44522
L42584 44485
L42602 44466
L42640 44447
L42734 44447
L42771 44466
L42790 44485
L42809 44522
L42809 44616
L42790 44654
L42771 44672
" />
<path d="M42771 44054
L42790 44072
L42809 44129
L42809 44166
L42790 44222
L42752 44260
L42715 44279
L42640 44297
L42584 44297
L42509 44279
L42471 44260
L42434 44222
L42415 44166
L42415 44129
L42434 44072
L42452 44054
" />
<path d="M42415 43941
L42415 43716
" />
<path d="M42809 43829
L42415 43829
" />
<path d="M42982 31428
L42963 31446
L42907 31465
L42869 31465
L42813 31446
L42775 31409
L42757 31371
L42738 31296
L42738 31240
L42757 31165
L42775 31128
L42813 31090
L42869 31071
L42907 31071
L42963 31090
L42982 31109
" />
<path d="M43225 31071
L43300 31071
L43338 31090
L43375 31128
L43394 31203
L43394 31334
L43375 31409
L43338 31446
L43300 31465
L43225 31465
L43188 31446
L43150 31409
L43132 31334
L43132 31203
L43150 31128
L43188 31090
L43225 31071
" />
<path d="M43563 31465
L43563 31071
L43788 31465
L43788 31071
" />
<path d="M43975 31465
L43975 31071
L44200 31465
L44200 31071
" />
<path d="M44294 31502
L44594 31502
" />
<path d="M44763 31071
L44800 31071
L44838 31090
L44856 31109
L44875 31146
L44894 31221
L44894 31315
L44875 31390
L44856 31428
L44838 31446
L44800 31465
L44763 31465
L44725 31446
L44707 31428
L44688 31390
L44669 31315
L44669 31221
L44688 31146
L44707 31109
L44725 31090
L44763 31071
" />
<path d="M45269 31465
L45044 31465
" />
<path d="M45156 31465
L45156 31071
L45119 31128
L45081 31165
L45044 31184
" />
<path d="M45400 31071
L45663 31465
" />
<path d="M45663 31071
L45400 31465
" />
<path d="M45888 31071
L45925 31071
L45963 31090
L45981 31109
L46000 31146
L46019 31221
L46019 31315
L46000 31390
L45981 31428
L45963 31446
L45925 31465
L45888 31465
L45850 31446
L45831 31428
L45813 31390
L45794 31315
L45794 31221
L45813 31146
L45831 31109
L45850 31090
L45888 31071
" />
<path d="M46169 31109
L46188 31090
L46225 31071
L46319 31071
L46356 31090
L46375 31109
L46394 31146
L46394 31184
L46375 31240
L46150 31465
L46394 31465
" />
</g>
<g style="fill:#000000; fill-opacity:0.0; 
stroke:#000000; stroke-width:78.7402; stroke-opacity:1; 
stroke-linecap:round; stroke-linejoin:round;">
<circle cx="3481.16" cy="48520.5" r="656.168" /> 
<path d="M2496 48520
L4465 48520
" />
<path d="M3481 47536
L3481 49504
" />
<circle cx="46788.2" cy="48520.5" r="656.168" /> 
<path d="M45803 48520
L47772 48520
" />
<path d="M46788 47536
L46788 49504
" />
<circle cx="46794.3" cy="29208.5" r="656.168" /> 
<path d="M45810 29208
L47778 29208
" />
<path d="M46794 28224
L46794 30192
" />
<circle cx="3487.25" cy="29208.5" r="656.168" /> 
<path d="M2503 29208
L4471 29208
" />
<path d="M3487 28224
L3487 30192
" />
<circle cx="3475.16" cy="21520.5" r="656.168" /> 
<path d="M2490 21520
L4459 21520
" />
<path d="M3475 20536
L3475 22504
" />
<circle cx="46782.2" cy="21520.5" r="656.168" /> 
<path d="M45797 21520
L47766 21520
" />
<path d="M46782 20536
L46782 22504
" />
<circle cx="46785.3" cy="2237.47" r="656.168" /> 
<path d="M45801 2237
L47769 2237
" />
<path d="M46785 1253
L46785 3221
" />
<circle cx="3478.25" cy="2237.47" r="656.168" /> 
<path d="M2494 2237
L4462 2237
" />
<path d="M3478 1253
L3478 3221
" />
<path d="M1512 50263
L48756 50263
" />
<path d="M1512 50263
L1512 27034
" />
<path d="M48756 50263
L48756 27034
" />
<path d="M1512 27034
L48756 27034
" />
<path d="M1512 263
L48756 263
" />
<path d="M48756 23491
L48756 263
" />
<path d="M1512 23491
L1512 263
" />
</g> 
</svg>
