<?xml version="1.0" standalone="no"?>
 <!DOCTYPE svg PUBLIC "-//W3C//DTD SVG 1.1//EN" 
 "http://www.w3.org/Graphics/SVG/1.1/DTD/svg11.dtd"> 
<svg xmlns="http://www.w3.org/2000/svg" version="1.1" 
    width="12.3927cm" height="12.888cm" viewBox="0 0 48790 50740 ">
<title>SVG Picture created as bargraph-Edge.Cuts.svg date 2016/06/05 20:56:18 </title>
  <desc>Picture generated by PCBNEW </desc>
<g style="fill:#000000; fill-opacity:1;stroke:#000000; stroke-opacity:1;
stroke-linecap:round; stroke-linejoin:round; "
 transform="translate(0 0) scale(1 1)">
</g>
<g style="fill:#000000; fill-opacity:0.0; 
stroke:#000000; stroke-width:-0.000393701; stroke-opacity:1; 
stroke-linecap:round; stroke-linejoin:round;">
</g>
<g style="fill:#000000; fill-opacity:0.0; 
stroke:#000000; stroke-width:78.7402; stroke-opacity:1; 
stroke-linecap:round; stroke-linejoin:round;">
<circle cx="3481.16" cy="48520.5" r="656.168" /> 
<path d="M2496 48520
L4465 48520
" />
<path d="M3481 47536
L3481 49504
" />
<circle cx="46788.2" cy="48520.5" r="656.168" /> 
<path d="M45803 48520
L47772 48520
" />
<path d="M46788 47536
L46788 49504
" />
<circle cx="46794.3" cy="29208.5" r="656.168" /> 
<path d="M45810 29208
L47778 29208
" />
<path d="M46794 28224
L46794 30192
" />
<circle cx="3487.25" cy="29208.5" r="656.168" /> 
<path d="M2503 29208
L4471 29208
" />
<path d="M3487 28224
L3487 30192
" />
<circle cx="3475.16" cy="21520.5" r="656.168" /> 
<path d="M2490 21520
L4459 21520
" />
<path d="M3475 20536
L3475 22504
" />
<circle cx="46782.2" cy="21520.5" r="656.168" /> 
<path d="M45797 21520
L47766 21520
" />
<path d="M46782 20536
L46782 22504
" />
<circle cx="46785.3" cy="2237.47" r="656.168" /> 
<path d="M45801 2237
L47769 2237
" />
<path d="M46785 1253
L46785 3221
" />
<circle cx="3478.25" cy="2237.47" r="656.168" /> 
<path d="M2494 2237
L4462 2237
" />
<path d="M3478 1253
L3478 3221
" />
<path d="M1512 50263
L48756 50263
" />
<path d="M1512 50263
L1512 27034
" />
<path d="M48756 50263
L48756 27034
" />
<path d="M1512 27034
L48756 27034
" />
<path d="M1512 263
L48756 263
" />
<path d="M48756 23491
L48756 263
" />
<path d="M1512 23491
L1512 263
" />
</g> 
</svg>
